<?xml version="1.0" standalone="no"?>
<!DOCTYPE svg PUBLIC "-//W3C//DTD SVG 1.1//EN" "http://www.w3.org/Graphics/SVG/1.1/DTD/svg11.dtd" >
<svg xmlns="http://www.w3.org/2000/svg">
<metadata>
This is a custom SVG webfont generated by Font Squirrel.
Designer    : Dalton Maag Ltd
Foundry     : Dalton Maag Ltd
Foundry URL : httpwwwdaltonmaagcom
</metadata>
<defs>
<font id="webfontPxVORYT4" horiz-adv-x="568" >
<font-face units-per-em="1000" ascent="800" descent="-200" />
<missing-glyph horiz-adv-x="235" />
<glyph unicode=" "  horiz-adv-x="235" />
<glyph unicode="&#x09;" horiz-adv-x="235" />
<glyph unicode="&#xa0;" horiz-adv-x="235" />
<glyph unicode="!" horiz-adv-x="254" d="M340 693l-45 -189q-6 -24 -16.5 -62.5t-23.5 -79.5l-26 -80q-13 -40 -24 -66h-57q8 68 18.5 136.5t30.5 152.5l45 188h98zM135 -13q-28 0 -44 15t-16 44q0 36 21.5 55.5t49.5 19.5t44.5 -15.5t16.5 -45.5q0 -17 -6.5 -30.5t-16.5 -23t-23 -14.5t-26 -5z" />
<glyph unicode="&#x22;" horiz-adv-x="414" d="M350 760l-12 -50q-12 -49 -30.5 -103.5t-40.5 -105.5h-54q4 53 11 106.5t19 103.5l12 49h95zM523 760l-12 -50q-12 -49 -30.5 -103.5t-40.5 -105.5h-54q4 53 11 106.5t19 103.5l12 49h95z" />
<glyph unicode="#" horiz-adv-x="658" d="M404 510h157l78 183h84l-78 -183h84l-18 -74h-97l-78 -179h132l-18 -74h-145l-78 -183h-84l77 183h-156l-78 -183h-84l77 183h-86l18 74h100l77 179h-134l18 74h147l79 183h84zM295 257h157l78 179h-157z" />
<glyph unicode="$" d="M279 96q29 0 58 5.5t52 18.5t37 34.5t14 53.5q0 22 -8.5 38t-24 29t-37.5 23l-46 23q-22 10 -43.5 23t-38.5 31.5t-27.5 44t-10.5 61.5q0 72 49 120.5t144 60.5l27 114h81l-27 -112q43 -4 77.5 -17.5t52.5 -25.5l-42 -69q-17 12 -49.5 23t-80.5 11q-29 0 -54.5 -5.5 t-45 -17.5t-30.5 -30.5t-11 -43.5q0 -41 25 -63t76 -46q27 -12 52 -26t43.5 -33t29.5 -44.5t11 -60.5q0 -44 -15 -78t-43 -58.5t-66.5 -39.5t-84.5 -20l-30 -129h-81l31 130q-26 1 -50 6t-45 12t-37 14.5t-25 13.5l43 71q18 -11 55 -26.5t95 -15.5z" />
<glyph unicode="%" horiz-adv-x="840" d="M271 0h-95l549 693h95zM160 476q0 42 13.5 83.5t38 74.5t60.5 53.5t81 20.5q60 0 93.5 -34.5t33.5 -101.5q0 -42 -13.5 -83.5t-38 -74.5t-60.5 -53.5t-81 -20.5q-60 0 -93.5 34.5t-33.5 101.5zM406 565q0 34 -11.5 55.5t-46.5 21.5q-29 0 -50.5 -16t-35.5 -39.5 t-21 -51.5t-7 -52q0 -34 11.5 -55.5t46.5 -21.5q29 0 50.5 16t35.5 39.5t21 51.5t7 52zM516 121q0 42 13.5 83.5t38 74.5t60.5 53.5t81 20.5q60 0 93.5 -34.5t33.5 -101.5q0 -42 -13.5 -83.5t-38 -74.5t-60.5 -53.5t-81 -20.5q-60 0 -93.5 34.5t-33.5 101.5zM762 210 q0 34 -11.5 55.5t-46.5 21.5q-29 0 -50.5 -16t-35.5 -39.5t-21 -51.5t-7 -52q0 -34 11.5 -55.5t46.5 -21.5q29 0 50.5 16t35.5 39.5t21 51.5t7 52z" />
<glyph unicode="&#x26;" horiz-adv-x="644" d="M80 147q0 45 14.5 81t40 64.5t60.5 51t76 40.5q-17 28 -29 59t-12 71q0 45 15 81t42.5 61.5t67 39t87.5 13.5q28 0 54 -8.5t45 -25.5t30.5 -41.5t11.5 -57.5q0 -39 -14 -70.5t-39.5 -57.5t-60.5 -48t-77 -41l116 -161q49 63 77 141l81 -10q-14 -42 -41.5 -93.5 t-69.5 -100.5q25 -35 46.5 -69t33.5 -66h-96q-8 18 -19.5 36.5t-25.5 38.5q-45 -37 -100.5 -60.5t-127.5 -23.5q-49 0 -84.5 11.5t-58 32.5t-33 49.5t-10.5 62.5zM272 68q48 0 94 17.5t83 51.5l-138 190q-26 -11 -51 -26t-44.5 -35.5t-32 -46t-12.5 -56.5q0 -42 22.5 -68.5 t78.5 -26.5zM317 520q0 -27 10.5 -53t26.5 -52q26 10 52 25t46.5 33.5t33 41.5t12.5 50q0 34 -18.5 52t-50.5 18q-45 0 -78.5 -28.5t-33.5 -86.5z" />
<glyph unicode="'" horiz-adv-x="240" d="M350 760l-12 -50q-12 -49 -30.5 -103.5t-40.5 -105.5h-54q4 53 11 106.5t19 103.5l12 49h95z" />
<glyph unicode="(" horiz-adv-x="321" d="M493 739q-63 -63 -114 -133.5t-86.5 -146t-55 -155t-19.5 -161.5q0 -85 12 -153.5t41 -130.5l-71 -40q-34 60 -53 139.5t-19 165.5q0 189 77 354t226 305z" />
<glyph unicode=")" horiz-adv-x="321" d="M-48 -141q63 63 114 133.5t86.5 146t55 155t19.5 161.5q0 85 -12 153.5t-41 130.5l71 40q34 -60 53 -139.5t19 -165.5q0 -189 -77 -354t-226 -305z" />
<glyph unicode="*" horiz-adv-x="474" d="M398 685q0 -42 -8 -81l-15 -79l71 39q35 19 76 33l6 2l28 -84l-8 -3q-40 -15 -80 -19.5t-82 -7.5l62 -55q29 -26 54 -61l5 -7l-73 -51l-4 6q-24 36 -42 71l-35 74l-35 -74q-18 -35 -42 -71l-4 -6l-73 51l5 7q25 35 54 61l62 55q-42 3 -82 7.5t-80 19.5l-8 3l28 84l6 -2 q41 -14 76 -33l71 -39l-15 79q-8 39 -8 81v8h90v-8z" />
<glyph unicode="+" d="M457 540l-50 -206h182l-19 -79h-182l-50 -207h-84l49 207h-182l19 79h182l50 206h85z" />
<glyph unicode="," horiz-adv-x="250" d="M200 114q-5 -36 -17 -73t-30 -72.5t-39.5 -68t-45.5 -59.5l-63 26q20 27 36.5 59t29 65t20 64.5t10.5 58.5h99z" />
<glyph unicode="-" horiz-adv-x="297" d="M106 328h242l-20 -87h-242z" />
<glyph unicode="." horiz-adv-x="250" d="M130 -13q-28 0 -44 15t-16 44q0 36 21.5 55.5t49.5 19.5t44.5 -15.5t16.5 -45.5q0 -17 -6.5 -30.5t-16.5 -23t-23 -14.5t-26 -5z" />
<glyph unicode="/" horiz-adv-x="380" d="M29 -185h-93l559 968h93z" />
<glyph unicode="0" d="M611 501q0 -49 -9 -106.5t-26.5 -115t-44.5 -110.5t-63.5 -94t-82.5 -65.5t-101 -24.5q-85 0 -125.5 52.5t-40.5 155.5q0 49 9 106.5t26.5 115t44.5 110.5t63.5 94t82 65.5t101.5 24.5q85 0 125.5 -52.5t40.5 -155.5zM516 489q0 75 -18 107t-64 32q-31 0 -60 -19 t-53.5 -51t-44.5 -74.5t-34 -89.5t-21.5 -96t-7.5 -93q0 -75 18 -107t64 -32q32 0 60.5 19t53 51t44.5 74.5t34 89.5t21.5 95.5t7.5 93.5z" />
<glyph unicode="1" d="M410 555q-14 -11 -33.5 -22.5t-42 -22.5t-46 -20.5t-46.5 -16.5l-15 77q60 22 122.5 56.5t119.5 86.5h67l-166 -693h-93z" />
<glyph unicode="2" d="M591 552q0 -53 -17 -93t-46 -73.5t-67 -63.5l-81 -61l-53 -41q-28 -22 -53 -45.5t-44 -48t-27 -48.5h301l-18 -78h-405q8 53 28.5 96t49 79t63 66t71.5 58l75 57q37 27 65 55.5t45 59.5t17 68q0 41 -22.5 65t-73.5 24q-29 0 -53.5 -7t-44.5 -17.5t-35.5 -21.5t-24.5 -20 l-32 72q14 13 35 26t47.5 24t56.5 18t63 7q48 0 82.5 -13.5t56 -35.5t31.5 -50t10 -58z" />
<glyph unicode="3" d="M251 67q40 0 74.5 9.5t60 28.5t39.5 47.5t14 66.5q0 59 -43.5 85.5t-115.5 26.5h-21l18 76h31q33 0 64.5 8.5t57 26t41 43t15.5 59.5q0 42 -26 63.5t-73 21.5q-43 0 -77.5 -13.5t-59.5 -29.5l-22 72q13 9 32 18t42 16.5t48.5 12t51.5 4.5q47 0 80.5 -12t55.5 -33 t32 -49.5t10 -60.5q0 -66 -38.5 -112.5t-104.5 -72.5q17 -7 34.5 -19.5t31 -31t22 -43t8.5 -54.5q0 -53 -18.5 -96.5t-54.5 -74.5t-89 -48t-123 -17q-35 0 -64.5 5t-52.5 11.5t-38.5 13.5t-21.5 11l35 79q7 -4 19.5 -10.5t30.5 -12.5t41.5 -10.5t53.5 -4.5z" />
<glyph unicode="4" d="M483 177l-42 -177h-90l42 177h-304l15 63q28 47 73.5 107t101 122t116.5 120.5t121 103.5h91l-106 -440h81l-18 -76h-81zM490 577q-36 -30 -75 -67.5t-77 -79.5t-73 -87t-63 -90h210z" />
<glyph unicode="5" d="M370 615l-14 -47l-18 -52l-17 -50l-13 -40q113 -15 171 -62.5t58 -133.5q0 -51 -17 -96t-53 -78t-91.5 -52t-131.5 -19q-32 0 -60.5 5t-51 11.5t-37.5 13t-20 9.5l36 78q14 -8 48.5 -21.5t89.5 -13.5q41 0 76.5 10.5t61.5 30t41 48.5t15 65q0 46 -25 72.5t-62 40 t-80 17.5t-79 6l31 88l28 83l26 80q12 41 23 85h324l-18 -78h-241z" />
<glyph unicode="6" d="M238 318q-10 -32 -15 -65.5t-5 -59.5q0 -62 23 -97t79 -35q39 0 69 16.5t50.5 43.5t31 61t10.5 68q0 48 -23.5 73t-77.5 25q-35 0 -70.5 -6.5t-71.5 -23.5zM126 185q0 105 35.5 198t100 162.5t156 110t204.5 40.5h13l-11 -79h-5q-71 0 -128.5 -18.5t-102 -49t-76.5 -71.5 t-50 -86q32 16 69 24.5t71 8.5q45 0 77.5 -13.5t53.5 -36t30.5 -52.5t9.5 -63q0 -50 -15.5 -99.5t-47.5 -88.5t-82.5 -63t-120.5 -24q-88 0 -134.5 54t-46.5 146z" />
<glyph unicode="7" d="M160 0q15 53 39.5 110.5t55.5 115.5t66.5 114t72.5 106.5t74 92.5t72 73h-329l19 81h435l-19 -80q-29 -25 -63.5 -63t-72 -85.5t-74.5 -102.5t-70.5 -115t-61.5 -122.5t-46 -124.5h-98z" />
<glyph unicode="8" d="M471 349q34 -23 57.5 -56.5t23.5 -86.5q0 -44 -16.5 -84t-49.5 -70.5t-83 -48.5t-116 -18q-50 0 -85 14t-57 36t-32 50t-10 56q0 72 42.5 128t117.5 93q-61 48 -61 124q0 45 16.5 85t47.5 71t75.5 49t100.5 18q47 0 80 -13t54 -35t31 -49.5t10 -56.5q0 -68 -39 -120 t-107 -86zM332 327q-27 -12 -52 -29.5t-44 -40t-30 -48t-11 -52.5q0 -20 5 -37t17 -30.5t32 -21t50 -7.5q33 0 62.5 10t51.5 28t34.5 43t12.5 55q0 49 -34 79t-94 51zM398 381q25 12 48 28t40.5 36.5t28 45t10.5 54.5q0 15 -4 31t-14.5 28.5t-29 20.5t-46.5 8 q-30 0 -55 -10.5t-43.5 -28.5t-29 -43.5t-10.5 -55.5q0 -41 25 -68.5t80 -45.5z" />
<glyph unicode="9" d="M328 272q-45 0 -77.5 13t-53.5 35.5t-31 52.5t-10 63q0 50 15.5 99t48 87.5t81.5 62t115 23.5q92 0 139.5 -54t47.5 -146q0 -107 -33.5 -200t-96.5 -162t-154 -108.5t-206 -39.5h-11q-5 0 -15 1l17 79q3 -1 10 -1h8q70 0 125.5 17.5t98 48.5t72.5 72t50 89 q-32 -16 -69 -24t-71 -8zM350 349q35 0 70.5 6.5t71.5 23.5q9 30 14 63.5t5 66.5q0 55 -24 89t-78 34q-39 0 -69 -16.5t-50.5 -42.5t-31 -59.5t-10.5 -67.5q0 -48 24 -72.5t78 -24.5z" />
<glyph unicode=":" horiz-adv-x="250" d="M225 386q-28 0 -44 15t-16 44q0 36 21.5 55.5t49.5 19.5t44.5 -15.5t16.5 -45.5q0 -17 -6.5 -30.5t-16.5 -23t-23 -14.5t-26 -5zM130 -13q-28 0 -44 15t-16 44q0 36 21.5 55.5t49.5 19.5t44.5 -15.5t16.5 -45.5q0 -17 -6.5 -30.5t-16.5 -23t-23 -14.5t-26 -5z" />
<glyph unicode=";" horiz-adv-x="250" d="M200 114q-5 -36 -17 -73t-30 -72.5t-39.5 -68t-45.5 -59.5l-63 26q20 27 36.5 59t29 65t20 64.5t10.5 58.5h99zM225 386q-28 0 -44 15t-16 44q0 36 21.5 55.5t49.5 19.5t44.5 -15.5t16.5 -45.5q0 -17 -6.5 -30.5t-16.5 -23t-23 -14.5t-26 -5z" />
<glyph unicode="&#x3c;" d="M501 71l-380 183l19 80l468 183l6 -82l-382 -146l311 -145z" />
<glyph unicode="=" d="M166 440h449l-19 -79h-449zM115 227h449l-19 -79h-449z" />
<glyph unicode="&#x3e;" d="M209 517l380 -183l-19 -80l-468 -183l-6 82l382 146l-311 145z" />
<glyph unicode="?" horiz-adv-x="388" d="M490 567q0 -34 -12 -61.5t-31.5 -51t-43.5 -44t-49 -39.5q-37 -29 -67.5 -60.5t-41.5 -75.5q-2 -6 -2.5 -11.5t-0.5 -7.5h-81q1 12 2 22t3 20q12 51 47 87.5t80 71.5l39 32q19 16 33.5 33t23 36.5t8.5 42.5q0 11 -3 24t-12.5 23.5t-26.5 17.5t-45 7q-48 0 -80 -11 t-50 -20l-10 72q24 14 65.5 24.5t86.5 10.5q47 0 79 -11t52 -30t28.5 -45t8.5 -56zM178 -13q-28 0 -44 15t-16 44q0 36 21.5 55.5t49.5 19.5t44.5 -15.5t16.5 -45.5q0 -17 -6.5 -30.5t-16.5 -23t-23 -14.5t-26 -5z" />
<glyph unicode="@" horiz-adv-x="935" d="M696 43q-63 0 -89 35q-23 -14 -54 -22.5t-66 -8.5q-74 0 -119.5 43t-45.5 127q0 57 19.5 110.5t56.5 94t90.5 65t120.5 24.5q52 0 90.5 -9t58.5 -17l-73 -304q-2 -7 -3.5 -14t-1.5 -15q0 -12 6.5 -21t26.5 -9q42 0 72 24.5t50 63t29.5 84.5t9.5 89q0 55 -14 101t-45.5 79 t-82.5 51.5t-125 18.5q-87 0 -162 -37.5t-130 -100t-86 -145t-31 -172.5q0 -67 19.5 -115t54.5 -79t84 -46t108 -15q58 0 97.5 7.5t50.5 11.5l-7 -74q-9 -3 -26 -6.5t-38.5 -7t-46 -5.5t-48.5 -2q-72 0 -133 20.5t-105.5 61t-69.5 100.5t-25 139q0 100 33.5 197.5 t98.5 173.5t159 123t216 47q162 0 250.5 -81.5t88.5 -238.5q0 -47 -10.5 -106.5t-39.5 -113t-80.5 -90t-132.5 -36.5zM500 122q55 0 92 20q0 17 2 28.5t5 22.5l57 235q-5 2 -22 4t-37 2q-43 0 -77 -17t-58 -46t-37 -67t-13 -79q0 -54 22.5 -78.5t65.5 -24.5z" />
<glyph unicode="A" horiz-adv-x="640" d="M216 178l-48 -86l-50 -92h-106q112 202 218 372l211 321h95q15 -75 28 -151.5t24 -160.5l22 -177q12 -94 24 -204h-98q-5 45 -9 90.5t-9 87.5h-302zM509 256q-8 80 -18.5 160.5t-24.5 165.5l-87 -132q-52 -81 -118 -194h248z" />
<glyph unicode="B" horiz-adv-x="622" d="M265 -7q-20 0 -43.5 1t-47.5 3t-47 5.5t-41 8.5l161 672q42 10 93.5 13.5t92.5 3.5q51 0 93.5 -8.5t73 -27t48 -48.5t17.5 -72q0 -61 -36.5 -107.5t-100.5 -69.5q43 -16 69.5 -49.5t26.5 -80.5q0 -69 -28 -116t-76.5 -75.5t-114 -40.5t-140.5 -12zM256 324l-58 -246 q11 -2 33 -3.5t56 -1.5q37 0 79 5.5t77 22t58.5 46.5t23.5 80q0 49 -35 73t-113 24h-121zM275 400h95q33 0 67.5 5.5t63 20t47 39.5t18.5 64q0 51 -38 71t-116 20q-26 0 -51 -2t-34 -4z" />
<glyph unicode="C" horiz-adv-x="604" d="M389 -15q-65 0 -114.5 19t-82.5 54t-49.5 84.5t-16.5 111.5q0 90 28.5 172t81 145t126.5 100.5t165 37.5q39 0 70 -4.5t54.5 -11.5t40 -15t26.5 -15l-40 -80q-23 15 -62.5 28.5t-93.5 13.5q-69 0 -124 -32.5t-93 -84t-58 -116t-20 -127.5q0 -195 169 -195q36 0 64 4.5 t50.5 11.5t39.5 15l30 14l12 -84q-24 -14 -77 -30t-126 -16z" />
<glyph unicode="D" horiz-adv-x="695" d="M417 618q-38 0 -60 -1t-30 -3l-128 -534q8 -2 27 -3.5t62 -1.5q79 0 142.5 26.5t107.5 74t68 113t24 143.5q0 88 -51 137t-162 49zM425 700q154 0 230 -72.5t76 -195.5q0 -86 -27 -165.5t-84 -140.5t-145.5 -97t-211.5 -36q-41 0 -90.5 4t-86.5 14l161 673q42 10 89 13 t89 3z" />
<glyph unicode="E" horiz-adv-x="561" d="M83 0l166 693h409l-19 -81h-313l-50 -209h278l-19 -79h-277l-59 -243h336l-19 -81h-433z" />
<glyph unicode="F" horiz-adv-x="528" d="M83 0l166 693h405l-19 -81h-309l-51 -212h274l-19 -79h-273l-77 -321h-97z" />
<glyph unicode="G" horiz-adv-x="655" d="M382 -14q-126 0 -191 72.5t-65 195.5q0 90 28.5 172t81.5 145t127.5 100.5t167.5 37.5q46 0 79.5 -6t57.5 -14t39 -16.5t24 -14.5l-43 -79q-8 5 -22 13t-34 15.5t-46.5 12.5t-58.5 5q-71 0 -127 -32.5t-94.5 -84t-58.5 -116t-20 -127.5q0 -98 42.5 -147t132.5 -49 q37 0 67 5t43 10l60 254h95l-76 -316q-12 -7 -33 -13.5t-49 -11.5t-60.5 -8t-66.5 -3z" />
<glyph unicode="H" horiz-adv-x="685" d="M598 0h-97l77 322h-321l-77 -322h-97l166 693h97l-70 -290h321l70 290h97z" />
<glyph unicode="I" horiz-adv-x="267" d="M249 693h97l-166 -693h-97z" />
<glyph unicode="J" horiz-adv-x="486" d="M457 223q-12 -48 -27 -91.5t-42.5 -76t-72 -51.5t-114.5 -19q-35 0 -63.5 6.5t-50.5 16.5t-37.5 20.5t-23.5 19.5l48 73q8 -8 20 -17t28 -16.5t36 -13t45 -5.5q35 0 60.5 9t43.5 28.5t30.5 50.5t23.5 75l111 461h97z" />
<glyph unicode="K" horiz-adv-x="618" d="M752 693l-86 -77l-98 -86l-104 -88l-99 -81q31 -29 65.5 -72t68.5 -92t64 -100t53 -97h-108l-56 94q-29 48 -61 92.5t-65 82.5t-66 65l-80 -334h-97l166 693h97l-73 -303l95 75l100 84l92 80l70 64h122z" />
<glyph unicode="L" horiz-adv-x="511" d="M506 81l-19 -81h-404l166 693h97l-147 -612h307z" />
<glyph unicode="M" horiz-adv-x="851" d="M785 544l-40 -57l-53 -77l-58 -88l-58 -88l-52 -78l-38 -60h-78l-10 60l-14 80l-17 88l-17 87q-8 42 -16 77l-12 56q-42 -128 -82 -266l-78 -278h-96q24 90 51 182l54 180l55 172l53 159h95q12 -44 26 -104t27 -125.5t24.5 -130.5t19.5 -118l79 119l88 131l86 125l74 103 h93q-17 -168 -45.5 -343.5t-62.5 -349.5h-97q30 143 55 279.5t44 264.5z" />
<glyph unicode="N" horiz-adv-x="702" d="M530 0l-43 132q-25 74 -54.5 150t-60.5 147.5t-61 124.5l-133 -554h-95l166 693h83q32 -54 65.5 -122.5t64.5 -140.5t56.5 -141t42.5 -124l124 528h95l-165 -693h-85z" />
<glyph unicode="O" horiz-adv-x="743" d="M527 709q55 0 101.5 -16.5t80 -49.5t52 -82.5t18.5 -115.5q0 -83 -25.5 -165t-75.5 -147.5t-125 -106.5t-175 -41q-56 0 -102 16.5t-79.5 49.5t-52 82.5t-18.5 115.5q0 82 25 164.5t75.5 148t125.5 106.5t175 41zM388 69q67 0 121 32.5t91.5 84.5t57.5 117t20 130 q0 89 -38.5 140.5t-122.5 51.5q-68 0 -121.5 -32.5t-91 -84.5t-57.5 -117t-20 -130q0 -89 38.5 -140.5t122.5 -51.5z" />
<glyph unicode="P" horiz-adv-x="594" d="M425 700q121 0 182.5 -46t61.5 -134q0 -68 -25.5 -117.5t-72.5 -81.5t-113 -47.5t-147 -15.5h-69l-62 -258h-97l164 684q42 10 89 13t89 3zM413 618q-35 0 -56.5 -1t-29.5 -3l-66 -275h63q42 0 86 7.5t79 26.5t57.5 52.5t22.5 86.5q0 57 -42.5 81.5t-113.5 24.5z" />
<glyph unicode="Q" horiz-adv-x="743" d="M435 -11q-1 -3 -1 -7v-6q0 -20 15.5 -34t41 -24t59 -16.5t69.5 -10.5l-34 -76q-35 4 -78 12t-80.5 25.5t-62.5 46.5t-25 75v5q0 3 1 8q-48 5 -87.5 24t-67.5 52t-43.5 79.5t-15.5 106.5q0 82 25 164.5t75.5 148t125.5 106.5t175 41q55 0 101.5 -16.5t80 -49.5t52 -82.5 t18.5 -115.5q0 -77 -21.5 -153t-65 -139.5t-108 -107.5t-149.5 -56zM388 69q67 0 121 32.5t91.5 84.5t57.5 117t20 130q0 89 -38.5 140.5t-122.5 51.5q-68 0 -121.5 -32.5t-91 -84.5t-57.5 -117t-20 -130q0 -89 38.5 -140.5t122.5 -51.5z" />
<glyph unicode="R" horiz-adv-x="613" d="M425 700q111 0 176 -45t65 -132t-52 -147t-144 -86q12 -21 28 -53.5t32 -72.5l34 -82q16 -42 28 -82h-99l-29 77q-15 39 -30.5 75t-31 68t-28.5 55q-13 -1 -26 -1.5t-26 -0.5h-77l-65 -273h-97l164 684q42 10 89 13t89 3zM413 618q-35 0 -56.5 -1t-29.5 -3l-63 -262h59 q41 0 84 6t78.5 23.5t58 49t22.5 83.5q0 56 -42.5 80t-110.5 24z" />
<glyph unicode="S" horiz-adv-x="521" d="M248 69q31 0 61.5 6.5t54.5 21.5t39 39.5t15 60.5q0 25 -9.5 43.5t-26 33t-38.5 26.5l-50 27q-23 12 -46.5 26t-42 34.5t-30 48.5t-11.5 67q0 45 17.5 83t51.5 65.5t83.5 42.5t113.5 15q29 0 56.5 -4.5t50.5 -11t39.5 -14.5t24.5 -14l-45 -76q-17 14 -54.5 25.5 t-88.5 11.5q-32 0 -59.5 -6.5t-47.5 -20.5t-32 -35.5t-12 -51.5q0 -26 8 -43.5t22 -31t34 -24.5l45 -23q30 -15 56.5 -30.5t46.5 -36.5t31.5 -49.5t11.5 -67.5q0 -55 -21.5 -96.5t-59 -69t-89 -41.5t-111.5 -14q-40 0 -72.5 5.5t-57 13.5t-41.5 16.5t-26 15.5l45 79 q19 -13 60 -29.5t104 -16.5z" />
<glyph unicode="T" horiz-adv-x="559" d="M701 693l-19 -81h-209l-147 -612h-97l147 612h-209l19 81h515z" />
<glyph unicode="U" horiz-adv-x="670" d="M336 -15q-52 0 -90 15.5t-63 42t-37 63t-12 78.5q0 22 4 49t9 50l98 410h97l-100 -416q-5 -19 -8 -42t-3 -43q0 -25 6 -47.5t20.5 -39t37.5 -26t56 -9.5q43 0 75.5 11.5t56.5 36t41.5 62t29.5 89.5l102 424h97l-104 -435q-14 -57 -32.5 -107t-52.5 -86.5t-88.5 -58 t-139.5 -21.5z" />
<glyph unicode="V" horiz-adv-x="627" d="M333 115q42 60 85 129l87 144l85 151q42 77 80 154h107l-107 -197l-104 -180l-104 -164q-51 -78 -105 -152h-95q-15 75 -27.5 151.5t-24 160.5t-22 177.5t-20.5 203.5h100q16 -178 30.5 -319t34.5 -259z" />
<glyph unicode="W" horiz-adv-x="920" d="M639 609q4 -66 10 -132t12.5 -128t14.5 -119l14 -106q30 56 62 123l66 141l65 150l62 155h103q-80 -198 -159.5 -369t-167.5 -324h-98q-17 106 -33 219t-26 245l-134 -236q-65 -113 -139 -228h-98q-8 81 -11 162.5t-3 167.5t3 175.5t9 187.5h96q-7 -104 -11 -207.5 t-4 -208.5q0 -77 3 -153q68 106 137 230l138 255h89z" />
<glyph unicode="X" horiz-adv-x="609" d="M486 0q-23 70 -50.5 142.5t-61.5 147.5l-245 -290h-114l319 370l-141 323h107l105 -255l107 126q52 65 96 129h111q-59 -82 -131 -167l-143 -162l75 -182q38 -94 67 -182h-101z" />
<glyph unicode="Y" horiz-adv-x="576" d="M234 0l66 278q-39 104 -72.5 210.5t-61.5 204.5h105q19 -81 42.5 -165t52.5 -162l67 79l67 83l63 84q30 41 56 81h111l-156 -205l-177 -210l-66 -278h-97z" />
<glyph unicode="Z" horiz-adv-x="565" d="M668 616l-66 -62l-82 -82l-90 -94l-92 -101l-88 -101q-43 -50 -77 -95h374l-19 -81h-491l15 65q29 39 67 85l81 98l90 101l91 99l87 90q41 42 76 74h-343l19 81h466z" />
<glyph unicode="[" horiz-adv-x="326" d="M283 783h221l-17 -73h-134l-198 -822h134l-18 -73h-221z" />
<glyph unicode="\" horiz-adv-x="380" d="M167 783h85l106 -968h-87z" />
<glyph unicode="]" horiz-adv-x="326" d="M182 -185h-221l17 73h134l198 822h-134l18 73h221z" />
<glyph unicode="^" d="M423 597l-223 -279l-68 41l268 334h79l109 -343l-76 -33z" />
<glyph unicode="_" horiz-adv-x="500" d="M-25 -106h500l-19 -79h-500z" />
<glyph unicode="`" horiz-adv-x="380" d="M285 779l148 -157l-45 -46l-166 134z" />
<glyph unicode="a" horiz-adv-x="548" d="M434 -6q-5 11 -10 24.5t-8 28.5q-22 -20 -59.5 -40t-90.5 -20q-44 0 -75.5 14t-51.5 39t-29.5 59t-9.5 75q0 67 22.5 131t67.5 114t113 81t159 31q27 0 63 -6t62 -20l-77 -314q-5 -23 -8.5 -44t-3.5 -44t4 -46.5t14 -50.5zM285 66q42 0 72 18t52 42q2 35 10 73l60 248 q-5 2 -16.5 3t-20.5 1q-57 0 -103 -22t-78.5 -58.5t-50 -85t-17.5 -101.5q0 -21 4 -42.5t14.5 -38t28 -27t45.5 -10.5z" />
<glyph unicode="b" horiz-adv-x="559" d="M291 499q23 14 53 24t64 10q43 0 75.5 -14t53.5 -38.5t31.5 -58.5t10.5 -73q0 -69 -22 -133.5t-67 -115t-112.5 -81t-158.5 -30.5q-15 0 -33 1.5t-36.5 5.5t-36 10t-30.5 14l177 740l97 16zM385 454q-30 0 -59.5 -10.5t-55.5 -29.5l-81 -339q10 -2 23 -4t26 -2 q57 0 103 22.5t78 60t49.5 86t17.5 101.5q0 22 -4.5 43t-16 37t-31 25.5t-49.5 9.5z" />
<glyph unicode="c" horiz-adv-x="455" d="M102 186q0 68 20.5 131t60.5 111t98 76.5t133 28.5q33 0 63 -4.5t57 -17.5l-35 -78q-16 9 -37.5 14t-55.5 5q-49 0 -88 -21.5t-66.5 -57t-42 -82t-14.5 -96.5q0 -26 5.5 -49t19.5 -40.5t37.5 -27.5t59.5 -10q19 0 38.5 3.5t36.5 8.5t30.5 10.5t19.5 10.5l8 -79 q-19 -12 -59.5 -23.5t-90.5 -11.5q-48 0 -85 14.5t-62 41t-38 63t-13 80.5z" />
<glyph unicode="d" horiz-adv-x="551" d="M501 103q0 -23 4 -46.5t14 -50.5l-82 -12q-11 21 -17 53q-22 -20 -59.5 -40t-90.5 -20q-44 0 -76 13.5t-53 38.5t-31 59.5t-10 75.5q0 67 22.5 131t67 114t111.5 80.5t156 30.5q11 0 22 -1t23 -3l56 234l97 16l-141 -585q-5 -23 -9 -44t-4 -44zM289 66q41 0 71 17.5 t52 40.5q1 32 11 75l60 250q-9 2 -20 2.5t-21 0.5q-57 0 -103 -22t-78.5 -59t-50 -85.5t-17.5 -101.5q0 -22 5 -43.5t16 -38t29.5 -26.5t45.5 -10z" />
<glyph unicode="e" horiz-adv-x="522" d="M206 273q58 2 106 7.5t83 19t54.5 36.5t19.5 60q0 9 -3.5 19t-12 18.5t-23 14t-37.5 5.5q-35 0 -65.5 -15t-54.5 -39.5t-41 -57t-26 -68.5zM301 -13q-51 0 -88 14.5t-62 40t-37 59.5t-12 72q0 70 21 135t60 115t95 79.5t127 29.5q41 0 70.5 -10.5t48 -28.5t27.5 -41.5 t9 -48.5q0 -47 -17 -80t-45 -54.5t-65.5 -33.5t-78 -18.5t-82 -9.5t-78.5 -5q-1 -8 -1 -13v-8q0 -23 5.5 -43.5t20.5 -36t41.5 -24.5t69.5 -9q19 0 39.5 3.5t39 9t32.5 11t21 10.5l8 -79q-20 -11 -64.5 -23.5t-104.5 -12.5z" />
<glyph unicode="f" horiz-adv-x="372" d="M296 520h174l-18 -78h-174l-80 -330l-21 -91q-9 -40 -22 -75t-33 -67.5t-55 -67.5l-82 12q20 26 34 46.5t24 38.5t17 36t13.5 40.5t13.5 51.5l16 67l111 464q12 50 30.5 89t47 65.5t67.5 40.5t93 14q35 0 66.5 -7t47.5 -15l-37 -74q-8 4 -27.5 10t-57.5 6q-33 0 -56 -9.5 t-38.5 -26.5t-25.5 -41t-17 -54z" />
<glyph unicode="g" horiz-adv-x="554" d="M204 -108q41 0 72 10t53.5 29t36.5 45t22 59l4 19q-20 -11 -54 -22t-70 -11q-81 0 -124.5 40.5t-43.5 113.5q0 67 22 131t67 114t112 80.5t157 30.5q14 0 31.5 -2t36 -5.5t36 -9.5t30.5 -14l-109 -455q-13 -54 -32 -97t-52 -73t-85 -46.5t-130 -16.5q-43 0 -85 11.5 t-71 28.5l35 78q23 -17 61 -27.5t80 -10.5zM288 99q40 0 73.5 14.5t51.5 27.5l73 304q-10 2 -23 4t-25 2q-54 0 -99 -20.5t-77.5 -55t-50.5 -79.5t-18 -95q0 -53 23.5 -77.5t71.5 -24.5z" />
<glyph unicode="h" horiz-adv-x="556" d="M78 0l183 760l97 16l-64 -263q23 8 48.5 13t51.5 5q45 0 77.5 -12.5t52.5 -34t29.5 -52t9.5 -66.5q0 -46 -14 -100l-64 -266h-93l59 246q7 28 13.5 57t6.5 55q0 20 -5 37t-17 29.5t-32 19.5t-50 7q-24 0 -49.5 -4.5t-42.5 -12.5l-104 -434h-93z" />
<glyph unicode="i" horiz-adv-x="253" d="M171 0h-93l125 520h93zM279 614q-23 0 -38.5 14t-15.5 39q0 32 20 50.5t45 18.5q23 0 39 -14.5t16 -40.5q0 -30 -21 -48.5t-45 -18.5z" />
<glyph unicode="j" horiz-adv-x="253" d="M176 20q-14 -56 -30.5 -95.5t-41 -64.5t-59 -36.5t-82.5 -11.5q-17 0 -38.5 5t-33.5 13l21 77q11 -7 28 -11t37 -4q45 0 68.5 35t37.5 92l120 501h93zM280 614q-23 0 -38.5 14t-15.5 39q0 32 20 50.5t45 18.5q23 0 39 -14.5t16 -40.5q0 -30 -21 -48.5t-45 -18.5z" />
<glyph unicode="k" horiz-adv-x="521" d="M78 0l183 760l97 16l-112 -463q33 24 68 53l66 56l58 54q27 25 44 44h110q-21 -25 -53.5 -57.5t-68.5 -64.5l-72 -63q-37 -30 -66 -51q27 -25 54.5 -59.5t53 -73t46.5 -77.5t35 -74h-101q-35 80 -83.5 148.5t-102.5 111.5l-63 -260h-93z" />
<glyph unicode="l" horiz-adv-x="280" d="M217 229l-10 -43q-5 -21 -5 -40q0 -34 16.5 -54t61.5 -25l-21 -76q-41 1 -69.5 12.5t-46 30.5t-25.5 45t-8 57q0 23 4 48t11 52l126 524l97 16z" />
<glyph unicode="m" horiz-adv-x="832" d="M680 531q44 0 74.5 -13.5t49 -36.5t26.5 -53.5t8 -64.5q0 -22 -3.5 -47.5t-9.5 -49.5l-64 -266h-93l59 246l11 52q7 28 7 56q0 19 -4.5 37t-15 31t-29.5 21t-47 8q-32 0 -62 -12.5t-50 -25.5q5 -28 5 -54q0 -23 -3.5 -46.5t-8.5 -46.5l-64 -266h-93l59 246l11 52 q6 29 6 58q0 19 -4 36.5t-13.5 30.5t-25.5 20.5t-41 7.5t-48.5 -3t-39.5 -8l-106 -440h-93l120 500q22 7 47.5 13t51 10t50 6t45.5 2q42 0 71 -14.5t46 -38.5q10 7 27.5 16t40 17t49 14t54.5 6z" />
<glyph unicode="n" horiz-adv-x="555" d="M171 0h-93l120 500q22 7 48 13t51.5 10t50 6t45.5 2q45 0 77.5 -12.5t52.5 -34t29.5 -52t9.5 -66.5q0 -23 -4 -48.5t-10 -51.5l-64 -266h-93l59 246q7 28 13.5 57t6.5 55q0 20 -5 37t-17 29.5t-32 19.5t-50 7q-25 0 -49 -3t-40 -8z" />
<glyph unicode="o" horiz-adv-x="559" d="M277 -13q-82 0 -128.5 48.5t-46.5 133.5q0 58 16.5 122t52.5 118t93 89t138 35q82 0 128.5 -48.5t46.5 -133.5q0 -58 -16.5 -122t-52.5 -118t-93 -89t-138 -35zM293 66q45 0 80.5 26t60 66.5t37.5 89.5t13 95q0 50 -22.5 80.5t-75.5 30.5q-45 0 -80.5 -26t-60 -66.5 t-37.5 -89.5t-13 -95q0 -50 22.5 -80.5t75.5 -30.5z" />
<glyph unicode="p" horiz-adv-x="550" d="M381 533q49 0 84.5 -14t58.5 -38.5t34.5 -58t11.5 -73.5q0 -69 -21 -133.5t-64.5 -114.5t-110 -80t-157.5 -30q-11 0 -24 1t-23 3l-43 -180h-93l164 683q41 17 91 26t92 9zM189 73q10 -2 21.5 -2.5t22.5 -0.5q57 0 102 22t76.5 59.5t48.5 86t17 101.5q0 22 -5 43 t-18.5 37t-36.5 25.5t-59 9.5q-25 0 -46 -4.5t-35 -8.5z" />
<glyph unicode="q" horiz-adv-x="555" d="M335 -185l48 201q-23 -12 -52 -20.5t-61 -8.5q-44 0 -76 13.5t-53 38.5t-31 59.5t-10 75.5q0 67 22.5 131t67.5 114t113 81t159 31q28 0 64.5 -6.5t66.5 -22.5l-165 -687h-93zM293 66q29 0 58 9.5t53 27.5l83 343q-25 5 -45 5q-57 0 -103 -22t-78.5 -58.5t-50 -85 t-17.5 -101.5q0 -22 4.5 -43.5t15.5 -38t30.5 -26.5t49.5 -10z" />
<glyph unicode="r" horiz-adv-x="376" d="M376 531q12 0 27 -1.5t29.5 -3.5t26.5 -4.5t18 -5.5l-27 -81q-20 8 -46 12t-50 4q-21 0 -41.5 -3t-35.5 -8l-106 -440h-93l120 500q40 14 86 22.5t92 8.5z" />
<glyph unicode="s" horiz-adv-x="416" d="M208 65q21 0 42.5 4t38 13t27 24.5t10.5 38.5q0 31 -21 48.5t-67 40.5q-23 11 -42 22t-33.5 26t-22.5 35.5t-8 49.5q0 75 54.5 120.5t156.5 45.5q47 0 84 -9.5t51 -17.5l-35 -76q-14 8 -45 17t-69 9q-19 0 -38 -4t-34.5 -13.5t-25 -25t-9.5 -37.5q0 -27 21.5 -44.5 t62.5 -36.5q26 -12 46.5 -24.5t35 -28t22 -36.5t7.5 -50q0 -42 -16 -74t-44.5 -53t-67.5 -31.5t-85 -10.5q-34 0 -61.5 4.5t-48 10.5t-34 12.5t-20.5 10.5l36 76q7 -4 19.5 -10t30 -12t38.5 -10t44 -4z" />
<glyph unicode="t" horiz-adv-x="393" d="M256 -14q-74 0 -109.5 33t-35.5 96q0 44 14 105l107 445l97 16l-39 -161h177l-19 -78h-177l-55 -230q-12 -47 -12 -82q0 -33 18 -47.5t60 -14.5q29 0 57 9.5t43 17.5l7 -79q-15 -9 -51 -19.5t-82 -10.5z" />
<glyph unicode="u" horiz-adv-x="554" d="M268 -13q-44 0 -73.5 13t-48 35t-26.5 52t-8 64q0 26 4.5 51.5t10.5 51.5l64 266h93l-59 -246q-5 -23 -13 -54t-8 -62q0 -18 3.5 -34.5t13 -29t25.5 -20t40 -7.5q43 0 75.5 18.5t54.5 43.5q1 16 3 33t7 37l77 321h93l-79 -329q-5 -23 -8.5 -44.5t-3.5 -44.5t4 -46t14 -50 l-82 -12q-5 11 -10 25t-8 30q-11 -10 -26 -21t-34.5 -20t-43 -15t-51.5 -6z" />
<glyph unicode="v" horiz-adv-x="485" d="M195 0q-12 52 -22.5 112.5t-19.5 127t-15.5 137.5t-8.5 143h94q1 -49 4 -104.5t8.5 -111t12.5 -107t15 -93.5q30 38 62.5 89.5t62.5 108t55 113.5t40 105h94q-22 -66 -55.5 -137t-73.5 -139.5t-83.5 -131.5t-84.5 -112h-85z" />
<glyph unicode="w" horiz-adv-x="791" d="M575 108q25 31 56.5 81.5t61.5 108t55.5 116.5t39.5 106h95q-22 -69 -56 -142t-73.5 -141.5t-82 -129.5t-81.5 -107h-83q-11 86 -19.5 174.5t-10.5 179.5q-20 -45 -45 -93t-52.5 -95t-56 -89.5t-54.5 -76.5h-83q-21 103 -34 235t-15 285h93q1 -47 2.5 -102t4.5 -110.5 t7.5 -107.5t10.5 -92q31 44 61 95.5t58 105.5t51.5 108t40.5 103h84q0 -45 1.5 -96.5t5 -105.5t8 -107.5t10.5 -102.5z" />
<glyph unicode="x" horiz-adv-x="477" d="M318 333l78 98q35 47 61 89h101q-43 -63 -94 -128l-106 -127l64 -131q32 -67 55 -134h-97q-15 45 -38 97l-47 100l-173 -197h-108l240 268l-129 252h103z" />
<glyph unicode="y" horiz-adv-x="482" d="M283 84q38 60 69 124.5t54.5 123.5t39.5 108.5t23 79.5h97q-11 -38 -31.5 -94.5t-48.5 -122t-63.5 -134t-77.5 -131.5q-32 -47 -64 -88.5t-68.5 -72t-80.5 -48t-99 -17.5q-28 0 -52 7t-35 15l32 76q10 -8 27 -13.5t38 -5.5q58 0 98.5 28t76.5 74q-37 121 -60.5 255.5 t-28.5 271.5h95q1 -45 5.5 -98.5t11.5 -111t17.5 -115.5t24.5 -111z" />
<glyph unicode="z" horiz-adv-x="458" d="M526 453l-48 -45l-64 -60l-70 -70l-71 -73l-63 -69q-29 -33 -48 -58h279l-18 -78h-388l14 60q20 29 47 63l60 69l64 72l66 68l62 60q30 29 54 50h-249l18 78h371z" />
<glyph unicode="{" horiz-adv-x="330" d="M122 335q23 0 41.5 8.5t33 22t24 31t13.5 35.5l43 180q11 46 27.5 78.5t43 53t65 30t92.5 9.5h4l-18 -73q-28 0 -48.5 -3.5t-36 -14.5t-26.5 -30.5t-18 -50.5l-37 -154q-16 -66 -39 -103t-64 -55q21 -17 29.5 -40.5t8.5 -49.5q0 -17 -3 -34t-7 -34l-37 -154 q-3 -14 -5 -25t-2 -20q0 -32 21 -42t66 -12l-19 -73h-4q-72 0 -111 25.5t-39 85.5q0 25 8 60l43 180q2 8 3 15t1 14q0 28 -16.5 47t-54.5 21z" />
<glyph unicode="|" horiz-adv-x="279" d="M283 783h85l-233 -968h-85z" />
<glyph unicode="}" horiz-adv-x="330" d="M347 263q-23 0 -42 -8.5t-33 -22t-23.5 -31t-13.5 -35.5l-43 -180q-11 -46 -27.5 -78.5t-43 -53t-65 -30t-92.5 -9.5h-4l18 73q28 0 48.5 3.5t36 14.5t26 30t18.5 51l37 154q16 66 39 103t64 55q-21 17 -29.5 40.5t-8.5 49.5q0 17 3 34t7 34l37 154q3 14 5 25t2 20 q0 32 -21 42t-66 12l19 73h4q72 0 111 -25.5t39 -85.5q0 -25 -8 -60l-43 -180q-2 -8 -3 -15t-1 -14q0 -28 16.5 -47t54.5 -21z" />
<glyph unicode="~" d="M369 336l41 -30q18 -13 45 -13q16 0 29.5 8t23.5 19.5t18 25.5t14 26l64 -20q-8 -22 -21.5 -46.5t-33.5 -45.5t-46.5 -34.5t-60.5 -13.5q-35 0 -57.5 13.5t-41.5 27.5l-41 29q-18 14 -45 14q-17 0 -30 -8t-23 -19.5t-18 -25.5t-14 -26l-64 20q8 22 21.5 46.5t33.5 45.5 t46.5 34.5t60.5 13.5q35 0 57.5 -13.5t41.5 -27.5z" />
<glyph unicode="&#xa2;" d="M460 475q-47 0 -85.5 -21.5t-65.5 -56.5t-42 -79t-15 -90q0 -24 5.5 -45.5t19 -37.5t36.5 -25.5t57 -9.5q19 0 38 3.5t36 8t30 10t19 10.5l7 -77q-16 -11 -51.5 -21.5t-80.5 -12.5l-33 -140h-81l34 145q-127 29 -127 189q0 54 16 107t48 97.5t79 76.5t109 43l34 144h81 l-33 -139q24 -2 47 -7.5t44 -16.5l-34 -74q-16 9 -37.5 14t-54.5 5z" />
<glyph unicode="&#xa3;" d="M339 373h189l-18 -75h-189l-2 -8q-12 -50 -29.5 -105t-37.5 -105h290l-19 -80h-394q28 71 53 141.5t42 141.5l4 15h-93l18 75h93l20 83q18 75 42 123.5t56.5 76.5t73.5 39t92 11q52 0 81 -9.5t52 -22.5l-42 -75q-23 12 -47.5 19t-55.5 7q-29 0 -53 -8t-43.5 -27.5 t-35 -51.5t-27.5 -80z" />
<glyph unicode="&#xa5;" d="M516 106h-163l-25 -106h-90l25 106h-162l17 71h162l24 102h-161l17 71h136q-35 88 -63 173.5t-48 169.5h96q7 -35 17 -74t22 -79t25 -79t28 -75l59 71l62 78q31 40 59 80.5t51 77.5h105l-63 -87l-68 -89l-70 -87l-70 -80h136l-17 -71h-163l-24 -102h163z" />
<glyph unicode="&#xa9;" horiz-adv-x="818" d="M828 347q0 -85 -28 -152.5t-75 -114t-109 -71t-130 -24.5t-130 24.5t-109 71t-75 114t-28 152.5t28 152.5t75 114t109 71t130 24.5t130 -24.5t109 -71t75 -114t28 -152.5zM755 347q0 66 -20 120.5t-55.5 93.5t-85 60t-108.5 21t-108.5 -21t-85 -60t-55.5 -93.5 t-20 -120.5t20 -120.5t55.5 -93.5t85 -60t108.5 -21t108.5 21t85 60t55.5 93.5t20 120.5zM498 140q-43 0 -78 14t-60.5 40t-39.5 64.5t-14 88.5q0 49 15.5 87t41.5 64.5t61 40.5t74 14q26 0 47.5 -4t37.5 -9.5t26.5 -11t14.5 -8.5l-23 -60q-12 7 -38.5 16.5t-61.5 9.5 q-51 0 -85 -35.5t-34 -103.5q0 -62 31 -101.5t91 -39.5q39 0 64.5 8.5t39.5 15.5l19 -60q-5 -3 -16.5 -8.5t-28.5 -10t-38.5 -8t-45.5 -3.5z" />
<glyph unicode="&#xad;" horiz-adv-x="297" d="M106 328h242l-20 -87h-242z" />
<glyph unicode="&#xae;" horiz-adv-x="818" d="M828 347q0 -85 -28 -152.5t-75 -114t-109 -71t-130 -24.5t-130 24.5t-109 71t-75 114t-28 152.5t28 152.5t75 114t109 71t130 24.5t130 -24.5t109 -71t75 -114t28 -152.5zM755 347q0 66 -20 120.5t-55.5 93.5t-85 60t-108.5 21t-108.5 -21t-85 -60t-55.5 -93.5 t-20 -120.5t20 -120.5t55.5 -93.5t85 -60t108.5 -21t108.5 21t85 60t55.5 93.5t20 120.5zM585 148q-23 45 -51.5 85.5t-49.5 64.5h-67v-150h-71v388q27 6 57 9t55 3q86 0 131 -32t45 -97q0 -37 -19.5 -64.5t-55.5 -42.5q10 -12 23 -30t27 -40l28 -46q14 -24 25 -48h-77z M417 356h38q45 0 75 12.5t30 51.5q0 37 -28.5 51.5t-68.5 14.5q-11 0 -23 -0.5t-23 -1.5v-128z" />
<glyph unicode="&#xb4;" horiz-adv-x="380" d="M476 707l-178 -127l-36 55l170 145z" />
<glyph unicode="&#x2000;" horiz-adv-x="391" />
<glyph unicode="&#x2001;" horiz-adv-x="783" />
<glyph unicode="&#x2002;" horiz-adv-x="391" />
<glyph unicode="&#x2003;" horiz-adv-x="783" />
<glyph unicode="&#x2004;" horiz-adv-x="261" />
<glyph unicode="&#x2005;" horiz-adv-x="195" />
<glyph unicode="&#x2006;" horiz-adv-x="130" />
<glyph unicode="&#x2007;" horiz-adv-x="130" />
<glyph unicode="&#x2008;" horiz-adv-x="97" />
<glyph unicode="&#x2009;" horiz-adv-x="156" />
<glyph unicode="&#x200a;" horiz-adv-x="43" />
<glyph unicode="&#x2010;" horiz-adv-x="297" d="M106 328h242l-20 -87h-242z" />
<glyph unicode="&#x2011;" horiz-adv-x="297" d="M106 328h242l-20 -87h-242z" />
<glyph unicode="&#x2013;" horiz-adv-x="500" d="M82 343h500l-19 -79h-500z" />
<glyph unicode="&#x2014;" horiz-adv-x="1000" d="M82 343h1000l-19 -79h-1000z" />
<glyph unicode="&#x2018;" horiz-adv-x="239" d="M184 520q5 33 18 66t30.5 64.5t38 59.5t41.5 50l63 -26q-35 -53 -58 -104.5t-31 -109.5h-102z" />
<glyph unicode="&#x2019;" horiz-adv-x="239" d="M357 750q-5 -33 -18 -66t-30.5 -64.5t-38 -59.5t-41.5 -50l-63 26q35 53 58 104.5t31 109.5h102z" />
<glyph unicode="&#x201a;" horiz-adv-x="239" d="M204 114q-5 -33 -18 -66t-30.5 -64.5t-38 -59.5t-41.5 -50l-63 26q35 53 58 104.5t31 109.5h102z" />
<glyph unicode="&#x201c;" horiz-adv-x="421" d="M184 520q5 33 18 66t30.5 64.5t38 59.5t41.5 50l63 -26q-35 -53 -58 -104.5t-31 -109.5h-102zM366 520q5 33 18 66t30.5 64.5t38 59.5t41.5 50l63 -26q-35 -53 -58 -104.5t-31 -109.5h-102z" />
<glyph unicode="&#x201d;" horiz-adv-x="421" d="M357 750q-5 -33 -18 -66t-30.5 -64.5t-38 -59.5t-41.5 -50l-63 26q35 53 58 104.5t31 109.5h102zM539 750q-5 -33 -18 -66t-30.5 -64.5t-38 -59.5t-41.5 -50l-63 26q35 53 58 104.5t31 109.5h102z" />
<glyph unicode="&#x2022;" horiz-adv-x="364" d="M392 353q0 -26 -9 -49t-25.5 -40t-40 -27.5t-53.5 -10.5t-53.5 10.5t-40 27.5t-25.5 40t-9 49q0 25 9 48.5t25.5 40.5t40 27.5t53.5 10.5t53.5 -10.5t40 -27.5t25.5 -40.5t9 -48.5z" />
<glyph unicode="&#x2026;" horiz-adv-x="1000" d="M172 -13q-28 0 -44 15t-16 44q0 36 21.5 55.5t49.5 19.5t44.5 -15.5t16.5 -45.5q0 -17 -6.5 -30.5t-16.5 -23t-23 -14.5t-26 -5zM505 -13q-28 0 -44 15t-16 44q0 36 21.5 55.5t49.5 19.5t44.5 -15.5t16.5 -45.5q0 -17 -6.5 -30.5t-16.5 -23t-23 -14.5t-26 -5zM838 -13 q-28 0 -44 15t-16 44q0 36 21.5 55.5t49.5 19.5t44.5 -15.5t16.5 -45.5q0 -17 -6.5 -30.5t-16.5 -23t-23 -14.5t-26 -5z" />
<glyph unicode="&#x202f;" horiz-adv-x="156" />
<glyph unicode="&#x205f;" horiz-adv-x="195" />
<glyph unicode="&#x20ac;" d="M290 227v-18q0 -42 10.5 -69.5t28.5 -43.5t42.5 -22.5t52.5 -6.5q45 0 77 8.5t56 19.5l3 -79q-7 -4 -22 -9t-35.5 -9.5t-43.5 -7.5t-46 -3q-104 0 -159.5 55t-55.5 162v23h-92l17 72h80q6 50 20 101h-77l17 72h84q20 49 49.5 91.5t69 74t89.5 50t113 18.5q39 0 66.5 -6 t53.5 -17l-37 -75q-16 8 -36.5 13.5t-58.5 5.5q-39 0 -71 -12t-58.5 -32.5t-47 -49t-35.5 -61.5h237l-30 -72h-234q-8 -25 -13 -50.5t-8 -50.5h211l-30 -72h-187z" />
<glyph unicode="&#x2122;" horiz-adv-x="763" d="M413 693v-61h-105v-272h-69v272h-105v61h279zM793 693q8 -51 14 -130.5t14 -202.5h-70q-1 25 -2 53.5t-2.5 57t-3.5 56.5t-4 52q-11 -19 -24 -45l-25 -50l-24 -47q-12 -22 -18 -35h-49q-6 13 -17 35l-24 47l-26 50l-24 45q-2 -24 -4 -52t-3.5 -56.5t-2.5 -57t-2 -53.5 h-69q8 123 14 202.5t14 130.5h66l20 -41l26 -52l29 -57l28 -56l28 56l29 57l26 52l20 41h66z" />
</font>
</defs>
</svg>
