<?xml version="1.0" encoding="UTF-8" standalone="no"?>
<!-- Generator: Adobe Illustrator 14.0.0, SVG Export Plug-In . SVG Version: 6.00 Build 43363)  -->

<svg
   xmlns:dc="http://purl.org/dc/elements/1.1/"
   xmlns:cc="http://creativecommons.org/ns#"
   xmlns:rdf="http://www.w3.org/1999/02/22-rdf-syntax-ns#"
   xmlns:svg="http://www.w3.org/2000/svg"
   xmlns="http://www.w3.org/2000/svg"
   xmlns:sodipodi="http://sodipodi.sourceforge.net/DTD/sodipodi-0.dtd"
   xmlns:inkscape="http://www.inkscape.org/namespaces/inkscape"
   version="1.1"
   x="0px"
   y="0px"
   width="32px"
   height="32px"
   viewBox="0 0 32 32"
   enable-background="new 0 0 32 32"
   xml:space="preserve"
   id="svg2"
   inkscape:version="0.48.2 r9819"
   sodipodi:docname="barters.svg"><metadata
   id="metadata20"><rdf:RDF><cc:Work
       rdf:about=""><dc:format>image/svg+xml</dc:format><dc:type
         rdf:resource="http://purl.org/dc/dcmitype/StillImage" /><dc:title></dc:title></cc:Work></rdf:RDF></metadata><defs
   id="defs18" /><sodipodi:namedview
   pagecolor="#ffffff"
   bordercolor="#666666"
   borderopacity="1"
   objecttolerance="10"
   gridtolerance="10"
   guidetolerance="10"
   inkscape:pageopacity="0"
   inkscape:pageshadow="2"
   inkscape:window-width="1078"
   inkscape:window-height="919"
   id="namedview16"
   showgrid="false"
   inkscape:zoom="1"
   inkscape:cx="16"
   inkscape:cy="16"
   inkscape:window-x="0"
   inkscape:window-y="972"
   inkscape:window-maximized="0"
   inkscape:current-layer="svg2" />
<g
   id="Layer_1">
</g>
<g
   id="fullscreen_x5F_exit_x5F_32x32">
	<g
   id="g6">
		<polygon
   points="27.414,24.586 32,20 20,20 20,32 24.586,27.414 29.172,32 32,29.172 "
   id="polygon8"
   transform="matrix(-1,0,0,1,52,0)"
   style="fill:#231f20" />
		<polygon
   points="7.414,4.586 2.875,0.043 0.047,2.871 4.586,7.414 0,12 12,12 12,0 "
   id="polygon10"
   transform="matrix(-1,0,0,-1,32,12)"
   style="fill:#231f20" />
		<polygon
   points="0,20 4.586,24.586 0,29.172 2.828,32 7.414,27.414 12,32 12,20 "
   id="polygon12"
   style="fill:#231f20"
   transform="matrix(1,0,0,-1,0,52)" />
		<polygon
   points="20,12 32,12 27.414,7.414 31.961,2.871 29.133,0.043 24.586,4.586 20,0 "
   id="polygon14"
   transform="translate(-20,0)"
   style="fill:#231f20" />
	</g>
</g>
</svg>