<?xml version="1.0" encoding="UTF-8" standalone="no"?>
<!-- Generator: Adobe Illustrator 14.0.0, SVG Export Plug-In . SVG Version: 6.00 Build 43363)  -->

<svg
   xmlns:dc="http://purl.org/dc/elements/1.1/"
   xmlns:cc="http://creativecommons.org/ns#"
   xmlns:rdf="http://www.w3.org/1999/02/22-rdf-syntax-ns#"
   xmlns:svg="http://www.w3.org/2000/svg"
   xmlns="http://www.w3.org/2000/svg"
   xmlns:sodipodi="http://sodipodi.sourceforge.net/DTD/sodipodi-0.dtd"
   xmlns:inkscape="http://www.inkscape.org/namespaces/inkscape"
   version="1.1"
   id="Layer_1"
   x="0px"
   y="0px"
   width="32px"
   height="32.023px"
   viewBox="0 0 32 32.023"
   style="enable-background:new 0 0 32 32.023;"
   xml:space="preserve"
   inkscape:version="0.48.2 r9819"
   sodipodi:docname="blog.svg"><metadata
   id="metadata9"><rdf:RDF><cc:Work
       rdf:about=""><dc:format>image/svg+xml</dc:format><dc:type
         rdf:resource="http://purl.org/dc/dcmitype/StillImage" /><dc:title /></cc:Work></rdf:RDF></metadata><defs
   id="defs7" /><sodipodi:namedview
   pagecolor="#ffffff"
   bordercolor="#666666"
   borderopacity="1"
   objecttolerance="10"
   gridtolerance="10"
   guidetolerance="10"
   inkscape:pageopacity="0"
   inkscape:pageshadow="2"
   inkscape:window-width="1078"
   inkscape:window-height="919"
   id="namedview5"
   showgrid="true"
   inkscape:zoom="5.5975395"
   inkscape:cx="16"
   inkscape:cy="10.652002"
   inkscape:window-x="0"
   inkscape:window-y="972"
   inkscape:window-maximized="0"
   inkscape:current-layer="Layer_1"><inkscape:grid
     type="xygrid"
     id="grid3005" /></sodipodi:namedview>

<path
   style="fill:#231f20"
   d="M 0 0 L 0 32.03125 L 32 32.03125 L 32 10 L 29.0625 7.0625 C 29.645385 8.2530281 29.96875 9.5850786 29.96875 11 C 29.96875 13.112978 29.25243 15.059907 28.03125 16.59375 C 28.028366 19.812263 28 28.03125 28 28.03125 L 4 28.03125 C 4 28.03125 4 6.5804999 4 3.9375 L 15.4375 3.9375 C 16.965886 2.7328831 18.902941 2.03125 21 2.03125 C 22.424999 2.03125 23.771869 2.3467994 24.96875 2.9375 L 22.03125 0 L 0 0 z "
   id="path3" /><path
   inkscape:connector-curvature="0"
   style="fill:#231f20"
   d="M 25.750001,13.115998 22.328,9.6899993 l 0,-3.6670003 -4.023,0 c 0,3.8454005 0,4.507 0,4.507 0,0.602 0.277,1.122 0.695,1.493 l 3.922001,3.921999 z"
   id="path7"
   sodipodi:nodetypes="ccccsccc" /><path
   transform="matrix(3.277217,0,0,3.277217,-40.416133,-58.744255)"
   d="m 21.480664,21.282667 a 2.7403326,2.7403326 0 1 1 -5.480665,0 2.7403326,2.7403326 0 1 1 5.480665,0 z"
   sodipodi:ry="2.7403326"
   sodipodi:rx="2.7403326"
   sodipodi:cy="21.282667"
   sodipodi:cx="18.740332"
   id="path3005"
   style="color:#000000;fill:none;stroke:#231f20;stroke-width:1.2205478;stroke-miterlimit:4;stroke-opacity:1;stroke-dasharray:none;marker:none;visibility:visible;display:inline;overflow:visible;enable-background:accumulate"
   sodipodi:type="arc" /></svg>