<?xml version="1.0" encoding="UTF-8" standalone="no"?>
<!-- Generator: Adobe Illustrator 14.0.0, SVG Export Plug-In . SVG Version: 6.00 Build 43363)  -->

<svg
   xmlns:dc="http://purl.org/dc/elements/1.1/"
   xmlns:cc="http://creativecommons.org/ns#"
   xmlns:rdf="http://www.w3.org/1999/02/22-rdf-syntax-ns#"
   xmlns:svg="http://www.w3.org/2000/svg"
   xmlns="http://www.w3.org/2000/svg"
   xmlns:sodipodi="http://sodipodi.sourceforge.net/DTD/sodipodi-0.dtd"
   xmlns:inkscape="http://www.inkscape.org/namespaces/inkscape"
   version="1.1"
   id="Layer_1"
   x="0px"
   y="0px"
   width="32"
   height="32"
   viewBox="0 0 32 32"
   xml:space="preserve"
   inkscape:version="0.48.2 r9819"
   sodipodi:docname="chain-close.svg"><metadata
   id="metadata9"><rdf:RDF><cc:Work
       rdf:about=""><dc:format>image/svg+xml</dc:format><dc:type
         rdf:resource="http://purl.org/dc/dcmitype/StillImage" /><dc:title /></cc:Work></rdf:RDF></metadata><defs
   id="defs7" /><sodipodi:namedview
   pagecolor="#ffffff"
   bordercolor="#666666"
   borderopacity="1"
   objecttolerance="10"
   gridtolerance="10"
   guidetolerance="10"
   inkscape:pageopacity="0"
   inkscape:pageshadow="2"
   inkscape:window-width="1078"
   inkscape:window-height="919"
   id="namedview5"
   showgrid="true"
   inkscape:zoom="11.313708"
   inkscape:cx="9.6518354"
   inkscape:cy="14.221054"
   inkscape:window-x="0"
   inkscape:window-y="972"
   inkscape:window-maximized="0"
   inkscape:current-layer="Layer_1"><inkscape:grid
     type="xygrid"
     id="grid2986"
     empspacing="5"
     visible="true"
     enabled="true"
     snapvisiblegridlinesonly="true" /></sodipodi:namedview>

<path
   style="fill:#231f20"
   d="M 16 0 C 11.582 -5.9211895e-16 8 3.48925 8 7.90625 L 8 12 C 8 13.104 8.895 14 10 14 L 14 14 L 14 18 L 10 18 C 8.895 18 8 18.896 8 20 L 8 24.09375 C 8 28.51075 11.582 32 16 32 C 20.418 32 24 28.51075 24 24.09375 L 24 20 C 24 18.896 23.105 18 22 18 L 18 18 L 18 14 L 22 14 C 23.105 14 24 13.104 24 12 L 24 7.90625 C 24 3.48925 20.418 0 16 0 z M 16 4 C 20 4 20 7.90625 20 7.90625 L 20 10 L 18 10 C 18 8.8954305 17.104569 8 16 8 C 14.895431 8 14 8.8954305 14 10 L 12 10 L 12 8 C 12 7.656755 12 4 16 4 z M 12 22 L 14 22 C 14 23.104569 14.895431 24 16 24 C 17.104569 24 18 23.104569 18 22 L 20 22 L 20 24.09375 C 20 24.09375 20 28 16 28 C 12 28 12 24.343245 12 24 L 12 22 z "
   id="path2994" /></svg>