<?xml version="1.0" encoding="UTF-8" standalone="no"?>
<!-- Generator: Adobe Illustrator 14.0.0, SVG Export Plug-In . SVG Version: 6.00 Build 43363)  -->

<svg
   xmlns:dc="http://purl.org/dc/elements/1.1/"
   xmlns:cc="http://creativecommons.org/ns#"
   xmlns:rdf="http://www.w3.org/1999/02/22-rdf-syntax-ns#"
   xmlns:svg="http://www.w3.org/2000/svg"
   xmlns="http://www.w3.org/2000/svg"
   xmlns:sodipodi="http://sodipodi.sourceforge.net/DTD/sodipodi-0.dtd"
   xmlns:inkscape="http://www.inkscape.org/namespaces/inkscape"
   version="1.1"
   id="Layer_1"
   x="0px"
   y="0px"
   width="32"
   height="32"
   viewBox="0 0 32 32"
   xml:space="preserve"
   inkscape:version="0.48.2 r9819"
   sodipodi:docname="chain-close.svg"><metadata
   id="metadata9"><rdf:RDF><cc:Work
       rdf:about=""><dc:format>image/svg+xml</dc:format><dc:type
         rdf:resource="http://purl.org/dc/dcmitype/StillImage" /><dc:title></dc:title></cc:Work></rdf:RDF></metadata><defs
   id="defs7" /><sodipodi:namedview
   pagecolor="#ffffff"
   bordercolor="#666666"
   borderopacity="1"
   objecttolerance="10"
   gridtolerance="10"
   guidetolerance="10"
   inkscape:pageopacity="0"
   inkscape:pageshadow="2"
   inkscape:window-width="1078"
   inkscape:window-height="919"
   id="namedview5"
   showgrid="true"
   inkscape:zoom="11.313708"
   inkscape:cx="-14.194054"
   inkscape:cy="5.099319"
   inkscape:window-x="0"
   inkscape:window-y="972"
   inkscape:window-maximized="0"
   inkscape:current-layer="Layer_1"><inkscape:grid
     type="xygrid"
     id="grid2986"
     empspacing="5"
     visible="true"
     enabled="true"
     snapvisiblegridlinesonly="true" /></sodipodi:namedview>

<path
   sodipodi:nodetypes="sssssssssssccs"
   inkscape:connector-curvature="0"
   id="path2994"
   d="m 22,18 -12,0 c -1.105,0 -2,0.896 -2,2 l 0,4.084746 C 8,28.501746 11.582,32 16,32 c 4.418,0 8,-3.498254 8,-7.915254 L 24,20 c 0,-1.104 -0.895,-2 -2,-2 z m -2,6.084746 c 0,0 0,3.915254 -4,3.915254 -4,0 -4,-3.656755 -4,-4 0,-0.08475 0,-0.08475 0,-2 l 8,0 c 0,0 0,1.084746 0,2.084746 z"
   style="fill:#231f20" /><path
   style="fill:#231f20"
   d="M 22,14 10,14 C 8.895,14 8,13.104 8,12 L 8,7.915254 C 8,3.498254 11.582,0 16,0 c 4.418,0 8,3.498254 8,7.915254 L 24,12 c 0,1.104 -0.895,2 -2,2 z M 20,7.915254 C 20,7.915254 20,4 16,4 c -4,0 -4,3.656755 -4,4 0,0.08475 0,0.08475 0,2 l 8,0 c 0,0 0,-1.084746 0,-2.084746 z"
   id="path2996"
   inkscape:connector-curvature="0"
   sodipodi:nodetypes="sssssssssssccs" /><rect
   style="color:#000000;fill:#231f20;fill-opacity:1;fill-rule:evenodd;stroke:none;stroke-width:24;marker:none;visibility:visible;display:inline;overflow:visible;enable-background:accumulate"
   id="rect3017"
   width="4"
   height="12"
   x="14"
   y="10" /><path
   sodipodi:type="arc"
   style="color:#000000;fill:#231f20;fill-opacity:1;fill-rule:evenodd;stroke:none;stroke-width:24;marker:none;visibility:visible;display:inline;overflow:visible;enable-background:accumulate"
   id="path3019"
   sodipodi:cx="17"
   sodipodi:cy="10"
   sodipodi:rx="2"
   sodipodi:ry="2"
   d="m 19,10 a 2,2 0 1 1 -4,0 2,2 0 1 1 4,0 z"
   transform="translate(-1,0)" /><path
   transform="translate(-1,12)"
   d="m 19,10 a 2,2 0 1 1 -4,0 2,2 0 1 1 4,0 z"
   sodipodi:ry="2"
   sodipodi:rx="2"
   sodipodi:cy="10"
   sodipodi:cx="17"
   id="path3022"
   style="color:#000000;fill:#231f20;fill-opacity:1;fill-rule:evenodd;stroke:none;stroke-width:24;marker:none;visibility:visible;display:inline;overflow:visible;enable-background:accumulate"
   sodipodi:type="arc" /><rect
   style="color:#000000;fill:none;stroke:#231f20;stroke-width:4;stroke-linecap:round;stroke-linejoin:round;stroke-miterlimit:2;stroke-opacity:1;stroke-dasharray:none;stroke-dashoffset:0;marker:none;visibility:visible;display:inline;overflow:visible;enable-background:accumulate"
   id="rect3813"
   width="12"
   height="10"
   x="-13"
   y="2"
   ry="1"
   rx="0.5" /><rect
   rx="0.5"
   ry="1"
   y="20"
   x="-13"
   height="10"
   width="12"
   id="rect3817"
   style="color:#000000;fill:none;stroke:#231f20;stroke-width:4;stroke-linecap:round;stroke-linejoin:round;stroke-miterlimit:2;stroke-opacity:1;stroke-dasharray:none;stroke-dashoffset:0;marker:none;visibility:visible;display:inline;overflow:visible;enable-background:accumulate" /><rect
   y="10"
   x="-9"
   height="12"
   width="4"
   id="rect3819"
   style="color:#000000;fill:#231f20;fill-opacity:1;fill-rule:evenodd;stroke:none;stroke-width:24;marker:none;visibility:visible;display:inline;overflow:visible;enable-background:accumulate" /><path
   transform="translate(-24,0)"
   d="m 19,10 a 2,2 0 1 1 -4,0 2,2 0 1 1 4,0 z"
   sodipodi:ry="2"
   sodipodi:rx="2"
   sodipodi:cy="10"
   sodipodi:cx="17"
   id="path3821"
   style="color:#000000;fill:#231f20;fill-opacity:1;fill-rule:evenodd;stroke:none;stroke-width:24;marker:none;visibility:visible;display:inline;overflow:visible;enable-background:accumulate"
   sodipodi:type="arc" /><path
   sodipodi:type="arc"
   style="color:#000000;fill:#231f20;fill-opacity:1;fill-rule:evenodd;stroke:none;stroke-width:24;marker:none;visibility:visible;display:inline;overflow:visible;enable-background:accumulate"
   id="path3823"
   sodipodi:cx="17"
   sodipodi:cy="10"
   sodipodi:rx="2"
   sodipodi:ry="2"
   d="m 19,10 a 2,2 0 1 1 -4,0 2,2 0 1 1 4,0 z"
   transform="translate(-24,12)" /><rect
   rx="0.5"
   ry="1"
   y="2"
   x="-33"
   height="10"
   width="12"
   id="rect3825"
   style="color:#000000;fill:none;stroke:#231f20;stroke-width:4;stroke-linecap:round;stroke-linejoin:round;stroke-miterlimit:2;stroke-opacity:1;stroke-dasharray:none;stroke-dashoffset:0;marker:none;visibility:visible;display:inline;overflow:visible;enable-background:accumulate" /><rect
   style="color:#000000;fill:none;stroke:#231f20;stroke-width:4;stroke-linecap:round;stroke-linejoin:round;stroke-miterlimit:2;stroke-opacity:1;stroke-dasharray:none;stroke-dashoffset:0;marker:none;visibility:visible;display:inline;overflow:visible;enable-background:accumulate"
   id="rect3827"
   width="12"
   height="10"
   x="-33"
   y="20"
   ry="1"
   rx="0.5" /><rect
   style="color:#000000;fill:#231f20;fill-opacity:1;fill-rule:evenodd;stroke:none;stroke-width:24;marker:none;visibility:visible;display:inline;overflow:visible;enable-background:accumulate"
   id="rect3829"
   width="4"
   height="12"
   x="-49"
   y="10" /><path
   sodipodi:type="arc"
   style="color:#000000;fill:#231f20;fill-opacity:1;fill-rule:evenodd;stroke:none;stroke-width:24;marker:none;visibility:visible;display:inline;overflow:visible;enable-background:accumulate"
   id="path3831"
   sodipodi:cx="17"
   sodipodi:cy="10"
   sodipodi:rx="2"
   sodipodi:ry="2"
   d="m 19,10 a 2,2 0 1 1 -4,0 2,2 0 1 1 4,0 z"
   transform="translate(-64,0)" /><path
   transform="translate(-64,12)"
   d="m 19,10 a 2,2 0 1 1 -4,0 2,2 0 1 1 4,0 z"
   sodipodi:ry="2"
   sodipodi:rx="2"
   sodipodi:cy="10"
   sodipodi:cx="17"
   id="path3833"
   style="color:#000000;fill:#231f20;fill-opacity:1;fill-rule:evenodd;stroke:none;stroke-width:24;marker:none;visibility:visible;display:inline;overflow:visible;enable-background:accumulate"
   sodipodi:type="arc" /></svg>