<?xml version="1.0" encoding="UTF-8" standalone="no"?>
<!-- Generator: Adobe Illustrator 14.0.0, SVG Export Plug-In . SVG Version: 6.00 Build 43363)  -->

<svg
   xmlns:dc="http://purl.org/dc/elements/1.1/"
   xmlns:cc="http://creativecommons.org/ns#"
   xmlns:rdf="http://www.w3.org/1999/02/22-rdf-syntax-ns#"
   xmlns:svg="http://www.w3.org/2000/svg"
   xmlns="http://www.w3.org/2000/svg"
   xmlns:sodipodi="http://sodipodi.sourceforge.net/DTD/sodipodi-0.dtd"
   xmlns:inkscape="http://www.inkscape.org/namespaces/inkscape"
   version="1.1"
   id="Layer_1"
   x="0px"
   y="0px"
   width="32px"
   height="32.023px"
   viewBox="0 0 32 32.023"
   style="enable-background:new 0 0 32 32.023;"
   xml:space="preserve"
   inkscape:version="0.48.2 r9819"
   sodipodi:docname="document_stroke-mod.svg"><metadata
   id="metadata9"><rdf:RDF><cc:Work
       rdf:about=""><dc:format>image/svg+xml</dc:format><dc:type
         rdf:resource="http://purl.org/dc/dcmitype/StillImage" /><dc:title></dc:title></cc:Work></rdf:RDF></metadata><defs
   id="defs7" /><sodipodi:namedview
   pagecolor="#ffffff"
   bordercolor="#666666"
   borderopacity="1"
   objecttolerance="10"
   gridtolerance="10"
   guidetolerance="10"
   inkscape:pageopacity="0"
   inkscape:pageshadow="2"
   inkscape:window-width="1078"
   inkscape:window-height="919"
   id="namedview5"
   showgrid="true"
   inkscape:zoom="20.844669"
   inkscape:cx="16"
   inkscape:cy="16.011499"
   inkscape:window-x="0"
   inkscape:window-y="972"
   inkscape:window-maximized="0"
   inkscape:current-layer="Layer_1"><inkscape:grid
     type="xygrid"
     id="grid3005" /></sodipodi:namedview>
<path
   style="fill:#231f20"
   d="M 22.016,0 0,0 -5.9466538e-7,32.023 C 13,32.023 19,32.023 32.000001,32.023 L 32,10.008 z M 28,28.023 c -10.907572,0 -10.783442,0 -24.0000004,0 0,0 0.006,-21.441 0.006,-24.084 2.1,0 7.807,0 12.006,0 l 0,12.01 12.01,0 C 28.021,18.682 28,28.023 28,28.023 z M 20.016,11.945 c 0,-1.543 0,-5.918 0,-8.006 1.615,1.619 6.402,6.404 8.006,8.006 -2.047,0 -6.454,0 -8.006,0 z"
   id="path3"
   inkscape:connector-curvature="0"
   sodipodi:nodetypes="ccccccccccccccccc" />
</svg>