<?xml version="1.0" encoding="UTF-8" standalone="no"?>
<!-- Generator: Adobe Illustrator 14.0.0, SVG Export Plug-In . SVG Version: 6.00 Build 43363)  -->

<svg
   xmlns:dc="http://purl.org/dc/elements/1.1/"
   xmlns:cc="http://creativecommons.org/ns#"
   xmlns:rdf="http://www.w3.org/1999/02/22-rdf-syntax-ns#"
   xmlns:svg="http://www.w3.org/2000/svg"
   xmlns="http://www.w3.org/2000/svg"
   xmlns:sodipodi="http://sodipodi.sourceforge.net/DTD/sodipodi-0.dtd"
   xmlns:inkscape="http://www.inkscape.org/namespaces/inkscape"
   version="1.1"
   id="Layer_1"
   x="0px"
   y="0px"
   width="32"
   height="32"
   viewBox="0 0 31.999999 32"
   xml:space="preserve"
   inkscape:version="0.48.2 r9819"
   sodipodi:docname="ideas.svg"
   inkscape:export-filename="/tmp/location-grey.png"
   inkscape:export-xdpi="45"
   inkscape:export-ydpi="45"><metadata
   id="metadata13"><rdf:RDF><cc:Work
       rdf:about=""><dc:format>image/svg+xml</dc:format><dc:type
         rdf:resource="http://purl.org/dc/dcmitype/StillImage" /><dc:title></dc:title></cc:Work></rdf:RDF></metadata><defs
   id="defs11" /><sodipodi:namedview
   pagecolor="#ffffff"
   bordercolor="#666666"
   borderopacity="1"
   objecttolerance="10"
   gridtolerance="10"
   guidetolerance="10"
   inkscape:pageopacity="0"
   inkscape:pageshadow="2"
   inkscape:window-width="1078"
   inkscape:window-height="919"
   id="namedview9"
   showgrid="true"
   inkscape:zoom="11.594073"
   inkscape:cx="42.459611"
   inkscape:cy="15.224037"
   inkscape:window-x="0"
   inkscape:window-y="709"
   inkscape:window-maximized="0"
   inkscape:current-layer="Layer_1"><inkscape:grid
     type="xygrid"
     id="grid3009"
     empspacing="5"
     visible="true"
     enabled="true"
     snapvisiblegridlinesonly="true" /></sodipodi:namedview>
<g
   id="g3">
	<path
   style="fill:#231f20"
   d="m 16.024,4.007 c 3.32,0 6.019,2.7 6.019,6.017 0,1.894 -0.867,3.636 -2.379,4.773 C 18.042084,16.123195 16.999999,17.4375 16,19 15,17 14,16 12.39,14.797 10.875,13.66 10.008,11.918 10.008,10.024 c 0,-3.317 2.699,-6.017 6.016,-6.017 M 16.024,0 C 10.488,0 6,4.488 6,10.024 c 0,3.28 1.547,6.147 3.977,7.976 1.121,0.844 1.57325,4 2.023,5 0.449749,1 0.92143,-1.477118 4,-2 3,0 4,4 4,2 0,-2 1,-3.531174 2.074,-5 2.43,-1.829 3.977,-4.696 3.977,-7.976 C 26.051,4.488 21.562,0 16.024,0 z"
   id="path5"
   inkscape:connector-curvature="0"
   sodipodi:nodetypes="cscccsccsczczcsc" />
	
</g>
<path
   style="fill:#231f20;fill-opacity:1;stroke:#231f20;stroke-width:4;stroke-linecap:round;stroke-linejoin:miter;stroke-opacity:1"
   d="M 11,23.920971 21,21"
   id="path3614"
   inkscape:connector-curvature="0"
   sodipodi:nodetypes="cc" /><path
   sodipodi:nodetypes="cc"
   inkscape:connector-curvature="0"
   id="path4386"
   d="M 11,27.920971 21,25"
   style="fill:#231f20;fill-opacity:1;stroke:#231f20;stroke-width:4;stroke-linecap:round;stroke-linejoin:miter;stroke-opacity:1" /><path
   sodipodi:type="arc"
   style="color:#000000;fill:#231f20;fill-opacity:1;fill-rule:evenodd;stroke:#231f20;stroke-width:4;stroke-linecap:round;stroke-linejoin:miter;stroke-miterlimit:4;stroke-opacity:1;stroke-dasharray:none;stroke-dashoffset:0;marker:none;visibility:visible;display:inline;overflow:visible;enable-background:accumulate"
   id="path4427"
   sodipodi:cx="16.427052"
   sodipodi:cy="27.5"
   sodipodi:rx="2.4270511"
   sodipodi:ry="1.5"
   d="M 18.854103,27.5 A 2.4270511,1.5 0 1 1 14,27.5 a 2.4270511,1.5 0 1 1 4.854103,0 z"
   transform="translate(-0.3901141,1)" /></svg>