<?xml version="1.0" encoding="UTF-8" standalone="no"?>
<!-- Generator: Adobe Illustrator 14.0.0, SVG Export Plug-In . SVG Version: 6.00 Build 43363)  -->

<svg
   xmlns:dc="http://purl.org/dc/elements/1.1/"
   xmlns:cc="http://creativecommons.org/ns#"
   xmlns:rdf="http://www.w3.org/1999/02/22-rdf-syntax-ns#"
   xmlns:svg="http://www.w3.org/2000/svg"
   xmlns="http://www.w3.org/2000/svg"
   xmlns:sodipodi="http://sodipodi.sourceforge.net/DTD/sodipodi-0.dtd"
   xmlns:inkscape="http://www.inkscape.org/namespaces/inkscape"
   version="1.1"
   id="Layer_1"
   x="0px"
   y="0px"
   width="32px"
   height="32px"
   viewBox="0 0 32 32"
   style="enable-background:new 0 0 32 32;"
   xml:space="preserve"
   inkscape:version="0.48.2 r9819"
   sodipodi:docname="lists.svg"><metadata
   id="metadata19"><rdf:RDF><cc:Work
       rdf:about=""><dc:format>image/svg+xml</dc:format><dc:type
         rdf:resource="http://purl.org/dc/dcmitype/StillImage" /><dc:title /></cc:Work></rdf:RDF></metadata><defs
   id="defs17">
	
	
	
	
	
</defs><sodipodi:namedview
   pagecolor="#ffffff"
   bordercolor="#666666"
   borderopacity="1"
   objecttolerance="10"
   gridtolerance="10"
   guidetolerance="10"
   inkscape:pageopacity="0"
   inkscape:pageshadow="2"
   inkscape:window-width="1078"
   inkscape:window-height="919"
   id="namedview15"
   showgrid="true"
   inkscape:zoom="11.203125"
   inkscape:cx="17.097985"
   inkscape:cy="13.124115"
   inkscape:window-x="0"
   inkscape:window-y="972"
   inkscape:window-maximized="0"
   inkscape:current-layer="Layer_1"><inkscape:grid
     type="xygrid"
     id="grid3015" /></sodipodi:namedview>
<g
   id="g3000"><polygon
     transform="matrix(-1,0,0,1,32,0)"
     style="fill:#231f20"
     points="32,0 32,4 32,4 0,4 0,0 "
     id="polygon5" /><polygon
     transform="matrix(-1.4,0,0,1,32,0)"
     style="fill:#231f20"
     points="20,12 0,12 0,8 20,8 20,12 "
     id="polygon7" /><polygon
     transform="matrix(-0.875,0,0,1,32,0)"
     style="fill:#231f20"
     points="32,24 0,24 0,20 32,20 32,24 "
     id="polygon9" /><polygon
     transform="matrix(-1,0,0,1,32,0)"
     style="fill:#231f20"
     points="24,28 24,32 24,32 0,32 0,28 "
     id="polygon11" /></g>
</svg>