<?xml version="1.0" encoding="UTF-8" standalone="no"?>
<!-- Generator: Adobe Illustrator 14.0.0, SVG Export Plug-In . SVG Version: 6.00 Build 43363)  -->

<svg
   xmlns:dc="http://purl.org/dc/elements/1.1/"
   xmlns:cc="http://creativecommons.org/ns#"
   xmlns:rdf="http://www.w3.org/1999/02/22-rdf-syntax-ns#"
   xmlns:svg="http://www.w3.org/2000/svg"
   xmlns="http://www.w3.org/2000/svg"
   xmlns:sodipodi="http://sodipodi.sourceforge.net/DTD/sodipodi-0.dtd"
   xmlns:inkscape="http://www.inkscape.org/namespaces/inkscape"
   version="1.1"
   id="Layer_1"
   x="0px"
   y="0px"
   width="32"
   height="32"
   viewBox="0 0 31.999999 32"
   xml:space="preserve"
   inkscape:version="0.48.2 r9819"
   sodipodi:docname="location.svg"
   inkscape:export-filename="/tmp/location-grey.png"
   inkscape:export-xdpi="45"
   inkscape:export-ydpi="45"><metadata
   id="metadata13"><rdf:RDF><cc:Work
       rdf:about=""><dc:format>image/svg+xml</dc:format><dc:type
         rdf:resource="http://purl.org/dc/dcmitype/StillImage" /><dc:title /></cc:Work></rdf:RDF></metadata><defs
   id="defs11" /><sodipodi:namedview
   pagecolor="#ffffff"
   bordercolor="#666666"
   borderopacity="1"
   objecttolerance="10"
   gridtolerance="10"
   guidetolerance="10"
   inkscape:pageopacity="0"
   inkscape:pageshadow="2"
   inkscape:window-width="1078"
   inkscape:window-height="919"
   id="namedview9"
   showgrid="true"
   inkscape:zoom="22.40625"
   inkscape:cx="16"
   inkscape:cy="16"
   inkscape:window-x="31"
   inkscape:window-y="709"
   inkscape:window-maximized="0"
   inkscape:current-layer="Layer_1"><inkscape:grid
     type="xygrid"
     id="grid3009"
     empspacing="5"
     visible="true"
     enabled="true"
     snapvisiblegridlinesonly="true" /></sodipodi:namedview>
<g
   id="g3"
   transform="translate(0,2)">
	<path
   style="fill:#231f20"
   d="m 16.024,4.007 c 3.32,0 6.019,2.7 6.019,6.017 0,1.894 -0.867,3.636 -2.379,4.773 C 18.042084,16.123195 17,17.96875 16,19.53125 15,17.96875 14,16 12.39,14.797 10.875,13.66 10.008,11.918 10.008,10.024 c 0,-3.317 2.699,-6.017 6.016,-6.017 M 16.024,0 C 10.488,0 6,4.488 6,10.024 c 0,3.28 1.547,6.147 3.977,7.976 1.121,0.844 3.1235,4 3.57325,5 C 14,24 15.331475,26.335992 16,28 c 0.734517,-1.69468 1.812,-4 2.406,-5 0.594,-1 2.547,-4.156 3.668,-5 2.43,-1.829 3.977,-4.696 3.977,-7.976 C 26.051,4.488 21.562,0 16.024,0 z"
   id="path5"
   inkscape:connector-curvature="0"
   sodipodi:nodetypes="cscccsccsczczcsc" />
	
</g>
</svg>