<?xml version="1.0" encoding="UTF-8" standalone="no"?>
<!-- Generator: Adobe Illustrator 14.0.0, SVG Export Plug-In . SVG Version: 6.00 Build 43363)  -->

<svg
   xmlns:dc="http://purl.org/dc/elements/1.1/"
   xmlns:cc="http://creativecommons.org/ns#"
   xmlns:rdf="http://www.w3.org/1999/02/22-rdf-syntax-ns#"
   xmlns:svg="http://www.w3.org/2000/svg"
   xmlns="http://www.w3.org/2000/svg"
   xmlns:sodipodi="http://sodipodi.sourceforge.net/DTD/sodipodi-0.dtd"
   xmlns:inkscape="http://www.inkscape.org/namespaces/inkscape"
   version="1.1"
   id="Layer_1"
   x="0px"
   y="0px"
   width="32px"
   height="32.023px"
   viewBox="0 0 32 32.023"
   style="enable-background:new 0 0 32 32.023;"
   xml:space="preserve"
   inkscape:version="0.48.2 r9819"
   sodipodi:docname="picture.svg"
   inkscape:export-filename="/tmp/picture-black.png"
   inkscape:export-xdpi="45"
   inkscape:export-ydpi="45"><metadata
   id="metadata9"><rdf:RDF><cc:Work
       rdf:about=""><dc:format>image/svg+xml</dc:format><dc:type
         rdf:resource="http://purl.org/dc/dcmitype/StillImage" /><dc:title></dc:title></cc:Work></rdf:RDF></metadata><defs
   id="defs7" /><sodipodi:namedview
   pagecolor="#ffffff"
   bordercolor="#666666"
   borderopacity="1"
   objecttolerance="10"
   gridtolerance="10"
   guidetolerance="10"
   inkscape:pageopacity="0"
   inkscape:pageshadow="2"
   inkscape:window-width="1078"
   inkscape:window-height="919"
   id="namedview5"
   showgrid="true"
   inkscape:zoom="11.195079"
   inkscape:cx="15.028131"
   inkscape:cy="14.592141"
   inkscape:window-x="0"
   inkscape:window-y="972"
   inkscape:window-maximized="0"
   inkscape:current-layer="Layer_1"><inkscape:grid
     type="xygrid"
     id="grid3005" /></sodipodi:namedview>

<path
   style="font-size:medium;font-style:normal;font-variant:normal;font-weight:normal;font-stretch:normal;text-indent:0;text-align:start;text-decoration:none;line-height:normal;letter-spacing:normal;word-spacing:normal;text-transform:none;direction:ltr;block-progression:tb;writing-mode:lr-tb;text-anchor:start;baseline-shift:baseline;color:#000000;fill:#231f20;fill-opacity:1;stroke:none;stroke-width:4;marker:none;visibility:visible;display:inline;overflow:visible;enable-background:accumulate;font-family:Sans;-inkscape-font-specification:Sans"
   d="M 1.8125 0.03125 A 2.0001999 2.0001999 0 0 0 0 2.03125 L 0 30.03125 A 2.0001999 2.0001999 0 0 0 2 32.03125 L 30 32.03125 A 2.0001999 2.0001999 0 0 0 32 30.03125 L 32 2.03125 A 2.0001999 2.0001999 0 0 0 30 0.03125 L 2 0.03125 A 2.0001999 2.0001999 0 0 0 1.8125 0.03125 z M 4 4.03125 L 28 4.03125 L 28 14.03125 C 28 14.03125 26.974092 14.034149 25.65625 14.0625 C 25.581508 12.992164 25.258639 11.966366 24.71875 11.03125 C 22.797598 7.7037175 18.483783 6.5475981 15.15625 8.46875 C 12.362378 10.081793 11.133571 13.357304 11.9375 16.34375 C 9.6691205 17.30296 7.6457826 18.345626 4 19 L 4 4.03125 z M 18.875 11.5 C 19.832223 11.564262 20.72483 12.121629 21.25 13.03125 C 21.469627 13.411655 21.613234 13.817196 21.65625 14.25 C 19.617583 14.395505 17.468728 14.646833 15.71875 15.0625 C 15.483749 13.844461 16.007763 12.569329 17.15625 11.90625 C 17.702023 11.591148 18.300666 11.461443 18.875 11.5 z M 28 18.03125 L 28 28.03125 L 4 28.03125 L 4 23.03125 A 2.0001999 2.0001999 0 0 0 4.34375 23 C 10.699207 21.940757 12.956538 19.854616 16.5 18.96875 C 19.891283 18.120929 28 18.03125 28 18.03125 z "
   id="rect3004" /></svg>