<?xml version="1.0" encoding="UTF-8" standalone="no"?>
<!-- Generator: Adobe Illustrator 14.0.0, SVG Export Plug-In . SVG Version: 6.00 Build 43363)  -->

<svg
   xmlns:dc="http://purl.org/dc/elements/1.1/"
   xmlns:cc="http://creativecommons.org/ns#"
   xmlns:rdf="http://www.w3.org/1999/02/22-rdf-syntax-ns#"
   xmlns:svg="http://www.w3.org/2000/svg"
   xmlns="http://www.w3.org/2000/svg"
   xmlns:sodipodi="http://sodipodi.sourceforge.net/DTD/sodipodi-0.dtd"
   xmlns:inkscape="http://www.inkscape.org/namespaces/inkscape"
   version="1.1"
   id="Layer_1"
   x="0px"
   y="0px"
   width="32px"
   height="31.985px"
   viewBox="0 0 32 31.985"
   style="enable-background:new 0 0 32 31.985;"
   xml:space="preserve"
   inkscape:version="0.48.2 r9819"
   sodipodi:docname="reply.svg"><metadata
   id="metadata13"><rdf:RDF><cc:Work
       rdf:about=""><dc:format>image/svg+xml</dc:format><dc:type
         rdf:resource="http://purl.org/dc/dcmitype/StillImage" /><dc:title /></cc:Work></rdf:RDF></metadata><defs
   id="defs11" /><sodipodi:namedview
   pagecolor="#ffffff"
   bordercolor="#666666"
   borderopacity="1"
   objecttolerance="10"
   gridtolerance="10"
   guidetolerance="10"
   inkscape:pageopacity="0"
   inkscape:pageshadow="2"
   inkscape:window-width="1078"
   inkscape:window-height="919"
   id="namedview9"
   showgrid="false"
   inkscape:zoom="20.869432"
   inkscape:cx="16"
   inkscape:cy="15.9925"
   inkscape:window-x="0"
   inkscape:window-y="972"
   inkscape:window-maximized="0"
   inkscape:current-layer="Layer_1" />
<g
   id="g3"
   transform="matrix(-1,0,0,-1,31.98626,31.985377)">
	<path
   style="fill:#231f20"
   d="M 28.156,3.72 C 23.191259,-1.3561979 13.995754,-1.2081334 9.2406719,4.087821 7.4768618,5.8148852 5.7546981,7.5837628 4,9.32 4,7.547 4,5.774 4,4.001 c -1.3333333,0 -2.6666667,0 -4,0 0,4 0,8 0,12 4,0 8,0 12,0 0,-1.333333 0,-2.666667 0,-4 -1.675,0 -3.35,0 -5.025,0 2.3669706,-2.2196714 4.439909,-4.7779711 7.05347,-6.7189446 4.151835,-2.59042 10.352865,-1.2404923 12.749396,3.1216783 2.157583,3.6209673 1.362664,8.6925193 -1.835853,11.4513573 -1.001785,0.993873 -3.033417,2.323732 -2.233621,2.558459 4.283435,-0.590885 8.428779,-3.795214 9.173842,-8.201008 C 32.416151,10.382846 30.852862,6.4282488 28.156,3.72 z"
   id="path5"
   inkscape:connector-curvature="0"
   sodipodi:nodetypes="ccccccccccccccc" />
	
		
</g>
</svg>