<?xml version="1.0" encoding="UTF-8" standalone="no"?>
<!-- Generator: Adobe Illustrator 14.0.0, SVG Export Plug-In . SVG Version: 6.00 Build 43363)  -->

<svg
   xmlns:dc="http://purl.org/dc/elements/1.1/"
   xmlns:cc="http://creativecommons.org/ns#"
   xmlns:rdf="http://www.w3.org/1999/02/22-rdf-syntax-ns#"
   xmlns:svg="http://www.w3.org/2000/svg"
   xmlns="http://www.w3.org/2000/svg"
   xmlns:sodipodi="http://sodipodi.sourceforge.net/DTD/sodipodi-0.dtd"
   xmlns:inkscape="http://www.inkscape.org/namespaces/inkscape"
   version="1.1"
   id="Layer_1"
   x="0px"
   y="0px"
   width="32px"
   height="32px"
   viewBox="0 0 32 32"
   style="enable-background:new 0 0 32 32;"
   xml:space="preserve"
   inkscape:version="0.48.2 r9819"
   sodipodi:docname="trash.svg"><metadata
   id="metadata3056"><rdf:RDF><cc:Work
       rdf:about=""><dc:format>image/svg+xml</dc:format><dc:type
         rdf:resource="http://purl.org/dc/dcmitype/StillImage" /><dc:title></dc:title></cc:Work></rdf:RDF></metadata><defs
   id="defs3054">
	
	
	
	
	
</defs><sodipodi:namedview
   pagecolor="#ffffff"
   bordercolor="#666666"
   borderopacity="1"
   objecttolerance="10"
   gridtolerance="10"
   guidetolerance="10"
   inkscape:pageopacity="0"
   inkscape:pageshadow="2"
   inkscape:window-width="1078"
   inkscape:window-height="919"
   id="namedview3052"
   showgrid="false"
   inkscape:zoom="1"
   inkscape:cx="16"
   inkscape:cy="16"
   inkscape:window-x="0"
   inkscape:window-y="972"
   inkscape:window-maximized="0"
   inkscape:current-layer="Layer_1"
   inkscape:showpageshadow="false"
   showguides="false"><inkscape:grid
     type="xygrid"
     id="grid3077"
     empspacing="5"
     visible="true"
     enabled="true"
     snapvisiblegridlinesonly="true" /></sodipodi:namedview>
<path
   style="color:#000000;fill:#231f20;fill-opacity:1;fill-rule:evenodd;stroke:none;stroke-width:1;marker:none;visibility:visible;display:inline;overflow:visible;enable-background:accumulate"
   d="M 1,0 C 0.44600003,0 0,0.446 0,1 l 0,2 c 0,0.554 0.44600003,1 1,1 1.3041959,0 1.6744253,0 3,0 l 0,22 c 0,3.312 2.688,6 6,6 l 12,0 c 3.312,0 6,-2.688 6,-6 l 0,-22 2,0 1,0 c 0.554,0 1,-0.446 1,-1 L 32,1 C 32,0.446 31.554,0 31,0 L 30,0 26,0 C 24.589979,0 24,0.5207576 24,2.03125 L 24,26 c 0,1.102 -0.898,2 -2,2 L 10,28 C 8.898,28 8,27.102 8,26 8.00153,18.235176 8.00126,7.8861416 8,1 8,0.43960056 7.5213789,0 7,0 5.3333333,0 2.6666667,0 1,0 z"
   id="rect3871"
   inkscape:connector-curvature="0"
   sodipodi:nodetypes="cssccssssccsssscssssscccc"
   inkscape:export-filename="/home/vjrj/proyectos/dev/kune/trunk/src/main/resources/icons/trash-black.png"
   inkscape:export-xdpi="45"
   inkscape:export-ydpi="45" />
<rect
   style="color:#000000;fill:#231f20;fill-opacity:1;fill-rule:evenodd;stroke:none;stroke-width:1;marker:none;visibility:visible;display:inline;overflow:visible;enable-background:accumulate"
   id="rect3086"
   width="4"
   height="22"
   x="10"
   y="4"
   ry="0.99999994"
   rx="1"
   inkscape:export-filename="/home/vjrj/proyectos/dev/kune/trunk/src/main/resources/icons/trash-black.png"
   inkscape:export-xdpi="45"
   inkscape:export-ydpi="45" /><rect
   style="color:#000000;fill:#231f20;fill-opacity:1;fill-rule:evenodd;stroke:none;stroke-width:1;marker:none;visibility:visible;display:inline;overflow:visible;enable-background:accumulate"
   id="rect3860"
   width="4"
   height="22"
   x="18"
   y="4"
   ry="0.99999994"
   rx="1"
   inkscape:export-filename="/home/vjrj/proyectos/dev/kune/trunk/src/main/resources/icons/trash-black.png"
   inkscape:export-xdpi="45"
   inkscape:export-ydpi="45" /></svg>