<?xml version="1.0" encoding="UTF-8" standalone="no"?>
<!-- Generator: Adobe Illustrator 14.0.0, SVG Export Plug-In . SVG Version: 6.00 Build 43363)  -->

<svg
   xmlns:dc="http://purl.org/dc/elements/1.1/"
   xmlns:cc="http://creativecommons.org/ns#"
   xmlns:rdf="http://www.w3.org/1999/02/22-rdf-syntax-ns#"
   xmlns:svg="http://www.w3.org/2000/svg"
   xmlns="http://www.w3.org/2000/svg"
   xmlns:sodipodi="http://sodipodi.sourceforge.net/DTD/sodipodi-0.dtd"
   xmlns:inkscape="http://www.inkscape.org/namespaces/inkscape"
   version="1.1"
   id="Layer_1"
   x="0px"
   y="0px"
   width="32px"
   height="32.023px"
   viewBox="0 0 32 32.023"
   style="enable-background:new 0 0 32 32.023;"
   xml:space="preserve"
   inkscape:version="0.48.2 r9819"
   sodipodi:docname="wiki_stroke-mod.svg"><metadata
   id="metadata9"><rdf:RDF><cc:Work
       rdf:about=""><dc:format>image/svg+xml</dc:format><dc:type
         rdf:resource="http://purl.org/dc/dcmitype/StillImage" /><dc:title></dc:title></cc:Work></rdf:RDF></metadata><defs
   id="defs7" /><sodipodi:namedview
   pagecolor="#ffffff"
   bordercolor="#666666"
   borderopacity="1"
   objecttolerance="10"
   gridtolerance="10"
   guidetolerance="10"
   inkscape:pageopacity="0"
   inkscape:pageshadow="2"
   inkscape:window-width="1078"
   inkscape:window-height="919"
   id="namedview5"
   showgrid="true"
   inkscape:zoom="4"
   inkscape:cx="16"
   inkscape:cy="13.87808"
   inkscape:window-x="0"
   inkscape:window-y="972"
   inkscape:window-maximized="0"
   inkscape:current-layer="Layer_1"><inkscape:grid
     type="xygrid"
     id="grid3005" /></sodipodi:namedview>
<path
   style="fill:#231f20"
   d="m 23,0.02299881 c 0,0 -12,0 -19.0000004,-0.02299881 C 3.9999996,8.0229991 -5.9466538e-7,32.023 -5.9466538e-7,32.023 13,32.023 21.5,32.023 28,32.023 31.000001,20.023 31.000001,18.022999 31.984,10.030999 28,7.0229991 23,0.02299881 23,0.02299881 z M 25,28.023 c -10.907572,0 -13.911982,0.09595 -20.5202614,0.09595 C 5.9999996,21.023 6.9999997,12.022999 7.4797387,4.022999 c 2.1000003,0 5.3212613,0 9.5202613,0 0,0 0,9 -0.988,11.926001 C 21,16.517683 27,16.022999 27,16.022999 26.999,18.755999 25,28.023 25,28.023 z M 20.431765,12.687182 C 21.415765,8.7651811 21,6.110999 21,4.022999 c 1,2 5.418,6.320001 7.022,7.922001 -3.022,1.077999 -6.038235,0.742182 -7.590235,0.742182 z"
   id="path3"
   inkscape:connector-curvature="0"
   sodipodi:nodetypes="ccccccccccccccccc" />
</svg>