<?xml version="1.0" encoding="UTF-8" standalone="no"?>
<!-- Created with Inkscape (http://www.inkscape.org/) -->
<svg
   xmlns:dc="http://purl.org/dc/elements/1.1/"
   xmlns:cc="http://creativecommons.org/ns#"
   xmlns:rdf="http://www.w3.org/1999/02/22-rdf-syntax-ns#"
   xmlns:svg="http://www.w3.org/2000/svg"
   xmlns="http://www.w3.org/2000/svg"
   xmlns:sodipodi="http://sodipodi.sourceforge.net/DTD/sodipodi-0.dtd"
   xmlns:inkscape="http://www.inkscape.org/namespaces/inkscape"
   width="210mm"
   height="297mm"
   id="svg2"
   sodipodi:version="0.32"
   inkscape:version="0.46"
   sodipodi:docname="entitylogo.svg"
   inkscape:output_extension="org.inkscape.output.svg.inkscape">
  <defs
     id="defs4">
    <inkscape:perspective
       sodipodi:type="inkscape:persp3d"
       inkscape:vp_x="0 : 526.18109 : 1"
       inkscape:vp_y="0 : 1000 : 0"
       inkscape:vp_z="744.09448 : 526.18109 : 1"
       inkscape:persp3d-origin="372.04724 : 350.78739 : 1"
       id="perspective10" />
  </defs>
  <sodipodi:namedview
     id="base"
     pagecolor="#ffffff"
     bordercolor="#666666"
     borderopacity="1.0"
     inkscape:pageopacity="0.0"
     inkscape:pageshadow="2"
     inkscape:zoom="1.5"
     inkscape:cx="163.61744"
     inkscape:cy="979.47576"
     inkscape:document-units="px"
     inkscape:current-layer="layer1"
     showgrid="false"
     showguides="true"
     inkscape:guide-bbox="true"
     inkscape:window-width="1280"
     inkscape:window-height="727"
     inkscape:window-x="0"
     inkscape:window-y="25" />
  <metadata
     id="metadata7">
    <rdf:RDF>
      <cc:Work
         rdf:about="">
        <dc:format>image/svg+xml</dc:format>
        <dc:type
           rdf:resource="http://purl.org/dc/dcmitype/StillImage" />
      </cc:Work>
    </rdf:RDF>
  </metadata>
  <g
     inkscape:label="Capa 1"
     inkscape:groupmode="layer"
     id="layer1"
     style="display:inline">
    <rect
       y="223.25554"
       x="41.560001"
       height="26.879999"
       width="26.879999"
       id="rect3738"
       style="opacity:1;fill:none;fill-opacity:1;fill-rule:nonzero;stroke:#c6e9af;stroke-width:1;stroke-linecap:butt;stroke-linejoin:miter;marker:none;marker-start:none;marker-mid:none;marker-end:none;stroke-miterlimit:4;stroke-dasharray:none;stroke-dashoffset:0;stroke-opacity:1;visibility:visible;display:inline;overflow:visible;enable-background:accumulate" />
    <flowRoot
       xml:space="preserve"
       id="flowRoot3193"
       style="font-size:48.6047821px;font-style:oblique;font-variant:normal;font-weight:bold;font-stretch:normal;text-indent:0;text-align:start;text-decoration:none;line-height:100%;letter-spacing:normal;word-spacing:normal;text-transform:none;direction:ltr;block-progression:tb;writing-mode:lr-tb;text-anchor:start;opacity:1;fill:#cccccc;fill-opacity:1;fill-rule:nonzero;stroke:#cccccc;stroke-width:1;stroke-linecap:butt;stroke-linejoin:miter;marker:none;marker-start:none;marker-mid:none;marker-end:none;stroke-miterlimit:4;stroke-dasharray:none;stroke-dashoffset:0;stroke-opacity:1;visibility:visible;display:inline;overflow:visible;enable-background:accumulate;font-family:DejaVu Sans;-inkscape-font-specification:DejaVu Sans Bold Oblique"><flowRegion
         id="flowRegion3195"><rect
           id="rect3197"
           width="33"
           height="1053"
           x="-324"
           y="-1120.6378"
           style="font-style:oblique;font-variant:normal;font-weight:bold;font-stretch:normal;font-family:DejaVu Sans;-inkscape-font-specification:DejaVu Sans Bold Oblique" /></flowRegion><flowPara
         id="flowPara3199"></flowPara></flowRoot>    <text
       xml:space="preserve"
       style="font-size:24px;font-style:normal;font-variant:normal;font-weight:normal;font-stretch:normal;text-indent:0;text-align:start;text-decoration:none;line-height:100%;letter-spacing:normal;word-spacing:normal;text-transform:none;direction:ltr;block-progression:tb;writing-mode:lr-tb;text-anchor:start;opacity:1;fill:#250000;fill-opacity:1;fill-rule:nonzero;stroke:none;stroke-width:1;stroke-linecap:butt;stroke-linejoin:miter;marker:none;marker-start:none;marker-mid:none;marker-end:none;stroke-miterlimit:4;stroke-dasharray:none;stroke-dashoffset:0;stroke-opacity:1;visibility:visible;display:inline;overflow:visible;enable-background:accumulate;font-family:DejaVu Sans;-inkscape-font-specification:DejaVu Sans"
       x="112.83789"
       y="170.64734"
       id="text3203"
       sodipodi:linespacing="100%"><tspan
         sodipodi:role="line"
         x="112.83789"
         y="170.64734"
         id="tspan3207">Bajo el Asfalto est치 la Huerta</tspan></text>
    <text
       xml:space="preserve"
       style="font-size:16px;font-style:normal;font-variant:normal;font-weight:normal;font-stretch:normal;text-indent:0;text-align:start;text-decoration:none;line-height:100%;letter-spacing:normal;word-spacing:normal;text-transform:none;direction:ltr;block-progression:tb;writing-mode:lr-tb;text-anchor:start;opacity:1;fill:#250000;fill-opacity:1;fill-rule:nonzero;stroke:none;stroke-width:1;stroke-linecap:butt;stroke-linejoin:miter;marker:none;marker-start:none;marker-mid:none;marker-end:none;stroke-miterlimit:4;stroke-dasharray:none;stroke-dashoffset:0;stroke-opacity:1;visibility:visible;display:inline;overflow:visible;enable-background:accumulate;font-family:DejaVu Sans;-inkscape-font-specification:DejaVu Sans"
       x="73.837891"
       y="241.35104"
       id="text3215"
       sodipodi:linespacing="100%"><tspan
         sodipodi:role="line"
         id="tspan3217"
         x="73.837891"
         y="241.35104">Bajo el Asfalto est치 la Huerta</tspan></text>
    <rect
       y="382.37564"
       x="36.013458"
       height="56.973083"
       width="56.973083"
       id="rect3223"
       style="opacity:1;fill:#cccccc;fill-opacity:1;fill-rule:nonzero;stroke:#cccccc;stroke-width:1.02691722;stroke-linecap:butt;stroke-linejoin:miter;marker:none;marker-start:none;marker-mid:none;marker-end:none;stroke-miterlimit:4;stroke-dasharray:none;stroke-dashoffset:0;stroke-opacity:1;visibility:visible;display:inline;overflow:visible;enable-background:accumulate" />
    <rect
       y="471.42218"
       x="37.060001"
       height="26.879999"
       width="26.879999"
       id="rect3227"
       style="opacity:1;fill:#cccccc;fill-opacity:1;fill-rule:nonzero;stroke:#cccccc;stroke-width:1.12;stroke-linecap:butt;stroke-linejoin:miter;marker:none;marker-start:none;marker-mid:none;marker-end:none;stroke-miterlimit:4;stroke-dasharray:none;stroke-dashoffset:0;stroke-opacity:1;visibility:visible;display:inline;overflow:visible;enable-background:accumulate" />
    <text
       sodipodi:linespacing="100%"
       id="text3233"
       y="418.64734"
       x="103.83789"
       style="font-size:24px;font-style:normal;font-variant:normal;font-weight:normal;font-stretch:normal;text-indent:0;text-align:start;text-decoration:none;line-height:100%;letter-spacing:normal;word-spacing:normal;text-transform:none;direction:ltr;block-progression:tb;writing-mode:lr-tb;text-anchor:start;opacity:1;fill:#250000;fill-opacity:0.94117647;fill-rule:nonzero;stroke:none;stroke-width:1;stroke-linecap:butt;stroke-linejoin:miter;marker:none;marker-start:none;marker-mid:none;marker-end:none;stroke-miterlimit:4;stroke-dasharray:none;stroke-dashoffset:0;stroke-opacity:1;visibility:visible;display:inline;overflow:visible;enable-background:accumulate;font-family:DejaVu Sans;-inkscape-font-specification:DejaVu Sans"
       xml:space="preserve"><tspan
         id="tspan3237"
         y="418.64734"
         x="103.83789"
         sodipodi:role="line">Asociaci칩n La Claqueta</tspan></text>
    <text
       sodipodi:linespacing="100%"
       id="text3239"
       y="491.35104"
       x="66.837891"
       style="font-size:18px;font-style:normal;font-variant:normal;font-weight:normal;font-stretch:normal;text-indent:0;text-align:start;text-decoration:none;line-height:100%;letter-spacing:normal;word-spacing:normal;text-transform:none;direction:ltr;block-progression:tb;writing-mode:lr-tb;text-anchor:start;opacity:1;fill:#250000;fill-opacity:1;fill-rule:nonzero;stroke:none;stroke-width:1;stroke-linecap:butt;stroke-linejoin:miter;marker:none;marker-start:none;marker-mid:none;marker-end:none;stroke-miterlimit:4;stroke-dasharray:none;stroke-dashoffset:0;stroke-opacity:1;visibility:visible;display:inline;overflow:visible;enable-background:accumulate;font-family:DejaVu Sans;-inkscape-font-specification:DejaVu Sans"
       xml:space="preserve"><tspan
         y="491.35104"
         x="66.837891"
         id="tspan3241"
         sodipodi:role="line">Asociaci칩n La Claqueta</tspan></text>
    <text
       sodipodi:linespacing="100%"
       id="text3481"
       y="565.2157"
       x="105.59271"
       style="font-size:28px;font-style:normal;font-variant:normal;font-weight:normal;font-stretch:normal;text-indent:0;text-align:start;text-decoration:none;line-height:100%;letter-spacing:normal;word-spacing:normal;text-transform:none;direction:ltr;block-progression:tb;writing-mode:lr-tb;text-anchor:start;opacity:1;fill:#250000;fill-opacity:1;fill-rule:nonzero;stroke:none;stroke-width:1;stroke-linecap:butt;stroke-linejoin:miter;marker:none;marker-start:none;marker-mid:none;marker-end:none;stroke-miterlimit:4;stroke-dasharray:none;stroke-dashoffset:0;stroke-opacity:1;visibility:visible;display:inline;overflow:visible;enable-background:accumulate;font-family:DejaVu Sans;-inkscape-font-specification:DejaVu Sans"
       xml:space="preserve"><tspan
         id="tspan3483"
         y="565.2157"
         x="105.59271"
         sodipodi:role="line">Luther Blisset</tspan></text>
    <g
       id="g4530"
       transform="matrix(0.7058824,0,0,0.7058824,-242.43824,296.00256)"
       inkscape:export-filename="/home/vjrj/proyectos/dev/kune/trunk/img/icons/persons/person6-85.png"
       inkscape:export-xdpi="90"
       inkscape:export-ydpi="90">
      <path
         transform="matrix(3.1844753,0,0,3.3202165,614.65933,-434.25909)"
         d="M -43,242.36218 A 12.5,12 0 1 1 -68,242.36218 A 12.5,12 0 1 1 -43,242.36218 z"
         sodipodi:ry="12"
         sodipodi:rx="12.5"
         sodipodi:cy="242.36218"
         sodipodi:cx="-55.5"
         id="path3603"
         style="fill:#abc837;fill-opacity:1;fill-rule:nonzero;stroke:#954f2c;stroke-width:1.63299322;stroke-linecap:butt;stroke-linejoin:miter;marker:none;marker-start:none;marker-mid:none;marker-end:none;stroke-miterlimit:4;stroke-dasharray:none;stroke-dashoffset:0;stroke-opacity:1;visibility:visible;display:inline;overflow:visible;enable-background:accumulate"
         sodipodi:type="arc"
         inkscape:export-filename="/home/vjrj/proyectos/ourproject.org/kune/svn/trunk/img/group-def-icon.png"
         inkscape:export-xdpi="90"
         inkscape:export-ydpi="90" />
      <path
         style="fill:#dbdee3;fill-opacity:1;fill-rule:nonzero;stroke:#954f2c;stroke-width:5.30990267;stroke-linecap:butt;stroke-linejoin:round;marker:none;marker-start:none;marker-mid:none;marker-end:none;stroke-miterlimit:4;stroke-dasharray:none;stroke-dashoffset:0;stroke-opacity:1;visibility:visible;display:inline;overflow:visible;enable-background:accumulate"
         d="M 437.92095,330.6613 C 427.73175,330.6613 417.49371,334.50632 409.72508,342.28206 C 394.30176,357.71958 394.19614,382.65026 409.39336,398.22771 C 407.23073,388.75054 409.98472,378.37855 417.35455,371.00193 C 428.75019,359.59579 447.09171,359.59579 458.48735,371.00193 C 465.85713,378.37855 468.61117,388.75054 466.44854,398.22771 C 481.64581,382.65021 481.54025,357.71958 466.11683,342.28206 C 458.34825,334.50632 448.11016,330.6613 437.92095,330.6613 z"
         id="path3605" />
      <path
         sodipodi:nodetypes="csssc"
         id="path3607"
         d="M 460.05116,364.96552 C 455.38897,371.83641 432.14686,380.28156 424.78848,372.95567 C 417.51844,365.71771 417.5378,353.91825 424.78848,346.6609 C 432.03916,339.40354 443.80837,339.40354 451.05905,346.6609 C 458.30973,353.91826 455.3126,357.26255 460.05116,364.96552 z"
         style="fill:#ffe680;fill-opacity:1;fill-rule:nonzero;stroke:#784421;stroke-width:5.30990171;stroke-linecap:butt;stroke-linejoin:miter;marker:none;marker-start:none;marker-mid:none;marker-end:none;stroke-miterlimit:4;stroke-dashoffset:0;stroke-opacity:1;visibility:visible;display:inline;overflow:visible;enable-background:accumulate" />
    </g>
    <path
       id="path2116"
       d="M 49.32599,146.74252 C 45.94103,146.74252 45.41828,146.76418 45.26552,146.91694 C 45.10808,147.07438 45.08762,148.4179 45.08762,160.02624 C 45.08762,171.93618 45.10506,172.97507 45.27599,173.14601 C 45.4453,173.31531 45.91361,173.32451 50.60623,173.27508 C 53.43576,173.24527 55.89878,173.18464 56.08297,173.13903 L 56.41785,173.05531 L 56.18762,173.32391 C 55.79378,173.77907 55.56257,174.21561 55.62599,174.38089 C 55.69846,174.56973 56.04438,174.59042 56.21902,174.41577 C 56.28736,174.34742 56.5505,174.31126 56.80506,174.33554 C 57.22839,174.37591 57.26244,174.35813 57.19576,174.15066 C 56.91003,173.26165 57.02113,173.03655 57.78878,172.93322 C 58.93447,172.77899 59.9295,172.08429 60.42948,171.09136 C 60.69437,170.56529 61.05041,169.19103 61.05041,168.69833 C 61.05041,168.43696 61.36697,168.10068 62.26088,167.42158 L 62.59227,167.17391 L 62.60622,169.77973 C 62.6208,172.56453 62.57947,172.83171 62.07599,173.32391 C 61.91106,173.48514 61.68547,173.75037 61.57366,173.91345 C 61.46186,174.07652 61.16047,174.34567 60.9039,174.50996 C 60.25165,174.92762 60.61461,174.97318 61.5632,174.59368 C 61.96867,174.43147 62.32685,174.32477 62.35855,174.35647 C 62.39025,174.38817 62.35894,174.67967 62.28878,175.00531 C 62.21863,175.33095 62.10625,175.86163 62.03762,176.18089 C 61.93198,176.67236 61.94003,176.80142 62.09343,177.03554 C 62.19309,177.18762 62.38983,177.32952 62.52948,177.3495 C 62.88268,177.4 63.0564,176.79773 63.03878,175.59135 C 63.02811,174.85981 63.06519,174.60686 63.20971,174.44717 C 63.31166,174.33452 63.3946,174.13102 63.3946,173.99368 C 63.3946,173.56395 63.60249,173.30996 63.95274,173.30996 C 64.37941,173.30996 64.45506,173.4571 64.45506,174.25879 C 64.45506,174.84463 64.48304,174.9315 64.67832,174.95647 C 65.11957,175.01289 65.23696,174.82858 65.08297,174.31461 C 65.0064,174.05907 64.91459,173.51343 64.88064,173.10415 C 64.8255,172.43929 64.8464,172.33881 65.06204,172.14484 C 65.2721,171.95589 65.36094,171.94259 65.75273,172.04717 C 66.10756,172.14187 66.21422,172.13827 66.25855,172.02275 C 66.33715,171.81792 65.91685,171.28029 65.33413,170.84368 C 64.60957,170.30079 64.48733,169.78966 64.58413,167.73903 C 64.65825,166.16889 64.66542,166.12544 64.9853,165.76112 C 65.38064,165.31086 65.72872,165.2074 67.60157,164.99019 C 68.3884,164.89893 69.40338,164.7153 69.85506,164.58205 C 70.45167,164.40605 70.72647,164.37298 70.85971,164.45647 C 71.1583,164.64357 71.14149,164.9955 70.82483,165.20298 C 70.55013,165.38297 70.43205,165.71926 70.64343,165.71926 C 70.70013,165.71926 70.98896,165.53453 71.2853,165.30763 C 71.84591,164.87837 72.43203,164.61835 72.85157,164.60996 C 73.22853,164.60242 73.62855,165.04758 73.76553,165.62856 C 74.12941,167.17195 73.55954,168.58125 71.89227,170.26112 C 71.09603,171.06338 70.95157,171.30066 71.26437,171.30066 C 71.49674,171.30066 71.4732,171.62357 71.20855,172.05763 C 70.92243,172.52691 70.92898,172.57679 71.27483,172.73438 C 71.52064,172.84637 71.55661,172.92661 71.52599,173.28205 C 71.49847,173.60149 71.53467,173.70765 71.67948,173.73554 C 71.8847,173.77506 71.87301,173.81116 72.10506,171.97043 C 72.24784,170.83787 72.54553,170.0508 72.92832,169.78322 C 74.04639,169.00162 74.71196,168.79287 75.2132,169.06112 C 75.43086,169.17761 75.45041,169.27986 75.45041,170.18786 C 75.45041,171.31935 75.2616,171.95273 74.68995,172.74136 C 74.26274,173.3307 74.25313,173.42159 74.60622,173.42159 C 74.81989,173.42159 74.90595,173.50943 75.01437,173.84019 C 75.17575,174.33255 75.43653,174.76112 75.57599,174.76112 C 75.63033,174.76112 75.67367,174.59177 75.67367,174.38438 C 75.67367,174.12253 75.74795,173.95766 75.91436,173.84717 C 76.11662,173.71287 76.16713,173.53821 76.23181,172.72391 C 76.30595,171.79037 76.44934,171.41229 76.73064,171.41229 C 76.94257,171.41229 77.57134,172.46991 77.57134,172.82508 C 77.57134,173.00109 77.6305,173.31874 77.70041,173.53322 C 77.77032,173.74769 77.85823,174.42624 77.89576,175.04019 L 77.96204,176.15647 L 78.58994,176.13554 L 79.21786,176.11461 L 79.39227,176.55414 C 79.5079,176.84849 79.63184,176.99368 79.7725,176.99368 C 79.88795,176.99368 80.04418,177.05605 80.11785,177.12973 C 80.21859,177.23046 80.2832,177.22949 80.37948,177.13322 C 80.47576,177.03694 80.39049,176.80444 80.03065,176.19135 C 79.76747,175.74298 79.46289,175.24483 79.3539,175.08554 C 79.1896,174.84543 79.15655,174.56872 79.16553,173.46693 C 79.17148,172.736 79.10885,171.62236 79.02599,170.99019 C 78.88638,169.92503 78.89016,169.82686 79.07134,169.65065 C 79.25628,169.4708 79.29528,169.49133 79.81436,170.06578 L 80.36204,170.67275 L 80.36204,171.81694 C 80.36203,173.21004 80.42815,173.30996 81.34925,173.30996 L 81.98762,173.30996 L 82.20739,173.78438 C 82.48555,174.38322 82.71802,174.39285 82.88064,173.81229 L 83.00623,173.36577 L 85.09228,173.30996 C 86.7832,173.26475 87.2009,173.22234 87.28646,173.0867 C 87.34899,172.98757 87.39359,170.74481 87.3946,167.58903 L 87.3946,162.25879 L 88.34344,162.25879 L 89.29227,162.25879 L 89.29227,167.60996 C 89.29227,172.32491 89.31559,172.98095 89.47018,173.13554 C 89.6214,173.28676 90.07971,173.30996 92.80855,173.30996 C 95.5374,173.30996 95.99919,173.28676 96.15041,173.13554 C 96.30787,172.97809 96.32483,171.63457 96.32483,160.02624 C 96.32483,148.41791 96.30787,147.07438 96.15041,146.91694 C 95.99919,146.76571 95.53739,146.74252 92.80855,146.74252 C 90.07971,146.74252 89.6214,146.76571 89.47018,146.91694 C 89.31642,147.07069 89.29227,147.65653 89.29227,151.66112 L 89.29227,156.23089 L 88.34344,156.23089 L 87.3946,156.23089 L 87.3946,151.66112 C 87.3946,147.65653 87.37393,147.07069 87.22018,146.91694 C 87.06896,146.76571 86.60716,146.74252 83.87832,146.74252 C 81.14948,146.74252 80.69117,146.76571 80.53994,146.91694 C 80.3839,147.07298 80.36404,147.94517 80.36204,154.81461 L 80.35855,162.53786 L 79.76553,161.92391 C 79.30267,161.44422 79.09308,161.10246 78.80971,160.36112 C 78.41745,159.33486 78.13688,158.45622 77.86437,157.40298 C 77.25294,155.03989 76.73841,153.60403 75.68762,151.3367 C 74.99696,149.84644 74.86462,149.45499 74.66901,148.32275 C 74.51501,147.43128 74.38591,146.97765 74.25739,146.88205 C 74.1202,146.78001 73.389,146.74252 71.53297,146.74252 C 68.7584,146.74252 68.64388,146.76691 68.64111,147.39136 C 68.63855,147.96958 68.32881,148.84454 67.78995,149.79833 C 67.49057,150.32823 67.06728,151.10383 66.84808,151.52508 C 66.26816,152.63959 65.28596,154.16272 64.57018,155.0588 C 64.22688,155.48856 63.73878,156.19182 63.48529,156.62159 C 63.23181,157.05135 62.88192,157.5874 62.70738,157.81112 C 62.34835,158.27134 62.30271,158.49908 62.57832,158.446 C 62.68141,158.42615 62.9876,158.08112 63.25855,157.68205 C 63.77547,156.92072 64.38312,156.23089 64.53529,156.23089 C 64.67593,156.23089 64.63897,156.61187 64.45855,157.04368 C 64.12306,157.84663 63.62083,160.13487 63.39808,161.8681 C 63.27185,162.85042 63.1232,163.75883 63.07018,163.88438 C 63.01716,164.00992 62.57979,164.53239 62.09692,165.04601 L 61.21785,165.9774 L 61.14809,164.48089 C 60.98997,161.19211 60.2165,159.91965 57.9318,159.17856 C 57.36435,158.9945 57.34252,158.97678 57.59692,158.87507 C 60.2357,157.82012 60.54808,157.30822 60.54808,154.05414 C 60.54808,151.20002 60.12706,149.76611 58.92948,148.54949 C 57.47287,147.06973 55.73539,146.74252 49.32599,146.74252 z M 101.57135,146.7495 C 98.8425,146.7495 98.38419,146.76755 98.23297,146.87856 C 98.07922,146.99144 98.05506,147.42014 98.05506,150.35996 L 98.05506,153.71577 L 98.05506,158.13903 L 98.05506,162.06694 C 98.05506,165.52823 98.07838,166.01043 98.23297,166.12391 C 98.38419,166.23493 98.8425,166.25298 101.57135,166.25298 C 104.30019,166.25298 104.76199,166.23493 104.9132,166.12391 C 105.07065,166.00833 105.08762,165.02479 105.08762,156.50298 C 105.08762,147.98117 105.07065,146.99415 104.9132,146.87856 C 104.76198,146.76756 104.30019,146.7495 101.57135,146.7495 z M 52.00855,151.43089 L 52.55971,151.43089 C 53.39081,151.43089 53.66418,151.57941 53.92716,152.17391 C 54.13747,152.64936 54.15029,152.84609 54.09809,154.49019 C 54.0667,155.47857 54.00683,156.40076 53.96204,156.54135 C 53.846,156.90553 53.34705,157.12392 52.62948,157.12392 L 52.00855,157.12392 L 52.00855,154.2774 L 52.00855,151.43089 z M 70.43413,155.5088 C 70.56795,155.5915 70.89934,156.21355 71.47018,157.4588 C 71.78408,158.14354 71.91881,158.60959 71.95855,159.13322 C 72.01144,159.83004 71.99678,159.88032 71.61669,160.37507 C 71.15212,160.97979 70.25405,161.65391 69.6039,161.88554 C 69.12608,162.05577 66.20608,162.81694 66.0318,162.81694 C 65.9773,162.81694 65.96082,162.65368 65.99343,162.45414 C 66.09517,161.83184 66.84424,160.42509 67.62251,159.39484 C 68.03299,158.85145 68.80754,157.74069 69.34576,156.92507 C 69.88398,156.10946 70.37428,155.47181 70.43413,155.5088 z M 52.39227,161.3588 C 52.54051,161.3612 52.74477,161.42734 53.02715,161.48089 C 54.09996,161.68434 54.07366,161.60248 54.07366,164.93089 C 54.07366,167.81817 54.07293,167.82389 53.80855,168.10531 C 53.56205,168.3677 52.78403,168.62158 52.22832,168.62158 C 52.01685,168.62159 52.00855,168.51665 52.00855,164.99368 C 52.00855,161.90433 51.94755,161.35157 52.39227,161.3588 z M 78.62832,163.16229 C 78.66932,163.09593 78.96704,163.2432 79.34692,163.5181 C 79.70485,163.77711 80.08185,164.03926 80.18413,164.10066 C 80.34886,164.19954 80.36585,164.44812 80.33762,166.2774 L 80.30622,168.34252 L 79.87716,167.61694 C 79.64125,167.21787 79.36018,166.79089 79.24925,166.6681 C 79.13832,166.54531 78.9705,166.2188 78.87948,165.94252 C 78.69938,165.39581 78.51473,163.34608 78.62832,163.16229 z M 101.57135,167.69717 C 98.8425,167.69717 98.38419,167.70033 98.23297,167.73205 C 98.07922,167.7643 98.05506,167.8864 98.05506,168.72624 L 98.05506,169.68554 L 98.05506,170.94833 L 98.05506,172.07159 C 98.05506,173.06039 98.07838,173.19731 98.23297,173.22973 C 98.38419,173.26144 98.8425,173.2681 101.57135,173.2681 C 104.30019,173.2681 104.76199,173.26144 104.9132,173.22973 C 105.07065,173.19671 105.08762,172.91538 105.08762,170.48089 C 105.08762,168.0464 105.07065,167.76507 104.9132,167.73205 C 104.76198,167.70034 104.30019,167.69717 101.57135,167.69717 z"
       style="fill:#1fbc13;fill-opacity:1;fill-rule:evenodd;stroke:none;stroke-width:0.58090181pt;stroke-linecap:butt;stroke-linejoin:miter;stroke-opacity:1" />
    <path
       id="path3714"
       d="M 42.977908,229.38252 C 41.398253,229.38252 41.154303,229.39262 41.08302,229.46392 C 41.009543,229.53738 41,230.16436 41,235.58159 C 41,241.13956 41.008143,241.62438 41.087908,241.70414 C 41.166915,241.78315 41.385467,241.78744 43.575347,241.76438 C 44.895803,241.75047 46.045203,241.72218 46.131163,241.70089 L 46.287438,241.66181 L 46.18,241.78716 C 45.996203,241.99958 45.88831,242.20329 45.917908,242.28043 C 45.95173,242.36855 46.11315,242.37821 46.194653,242.2967 C 46.22655,242.26481 46.349342,242.24792 46.468143,242.25926 C 46.665695,242.27809 46.681585,242.2698 46.65047,242.17298 C 46.51712,241.75811 46.568967,241.65306 46.927203,241.60485 C 47.461863,241.53287 47.926208,241.20868 48.15953,240.7453 C 48.28315,240.49981 48.449307,239.85849 48.449307,239.62856 C 48.449307,239.50658 48.59703,239.34966 49.014183,239.03274 L 49.168837,238.91716 L 49.175347,240.13321 C 49.182148,241.43279 49.162863,241.55747 48.927908,241.78716 C 48.850943,241.86241 48.745663,241.98618 48.69349,242.06228 C 48.641317,242.13839 48.500663,242.26399 48.380928,242.34065 C 48.076545,242.53557 48.245933,242.55682 48.688602,242.37972 C 48.877823,242.30403 49.044972,242.25424 49.059765,242.26903 C 49.074558,242.28382 49.059952,242.41986 49.027203,242.57181 C 48.994467,242.72378 48.942025,242.97143 48.91,243.12043 C 48.860697,243.34977 48.864453,243.41001 48.93604,243.51926 C 48.982555,243.59023 49.07436,243.65645 49.13953,243.66577 C 49.304357,243.68934 49.385428,243.40828 49.377203,242.8453 C 49.372233,242.50391 49.389535,242.38587 49.45698,242.31136 C 49.504557,242.25879 49.543255,242.16382 49.543255,242.09972 C 49.543255,241.89918 49.640275,241.78065 49.803725,241.78065 C 50.00284,241.78065 50.038143,241.84932 50.038143,242.22345 C 50.038143,242.49683 50.051198,242.53737 50.142327,242.54903 C 50.348243,242.57536 50.40303,242.48934 50.331163,242.24949 C 50.295428,242.13024 50.252588,241.87561 50.236745,241.68461 C 50.211008,241.37435 50.220762,241.32745 50.321398,241.23694 C 50.419422,241.14876 50.460885,241.14255 50.643713,241.19136 C 50.80931,241.23555 50.85908,241.23387 50.879765,241.17996 C 50.916445,241.08437 50.720305,240.83348 50.448367,240.62972 C 50.110243,240.37638 50.053193,240.13784 50.098367,239.18089 C 50.132958,238.44816 50.136307,238.42788 50.285582,238.25787 C 50.470078,238.04774 50.632513,237.99946 51.50651,237.8981 C 51.873695,237.85551 52.34735,237.76981 52.558143,237.70763 C 52.836557,237.6255 52.964797,237.61006 53.02698,237.64903 C 53.166315,237.73634 53.158475,237.90057 53.010693,237.9974 C 52.8825,238.0814 52.827398,238.23832 52.92604,238.23832 C 52.9525,238.23832 53.087297,238.15212 53.225582,238.04623 C 53.487207,237.84592 53.76072,237.72457 53.95651,237.72065 C 54.13242,237.71714 54.319098,237.92488 54.38302,238.196 C 54.55284,238.91625 54.286898,239.57392 53.508837,240.35787 C 53.137253,240.73225 53.069843,240.84298 53.215817,240.84298 C 53.324258,240.84298 53.313268,240.99368 53.189765,241.19623 C 53.05624,241.41523 53.059297,241.43851 53.220693,241.51205 C 53.335412,241.56432 53.3522,241.60175 53.337908,241.76763 C 53.325063,241.91671 53.341957,241.96624 53.40953,241.97926 C 53.505302,241.9977 53.499853,242.01454 53.608143,241.15554 C 53.674772,240.62702 53.813687,240.25971 53.992327,240.13485 C 54.514095,239.7701 54.824697,239.67268 55.058602,239.79787 C 55.160183,239.85222 55.169307,239.89994 55.169307,240.32367 C 55.169307,240.8517 55.081188,241.14728 54.814418,241.5153 C 54.615058,241.79033 54.610567,241.83275 54.775347,241.83275 C 54.875062,241.83275 54.915218,241.87374 54.965817,242.0281 C 55.041125,242.25786 55.16282,242.45787 55.227908,242.45787 C 55.25326,242.45787 55.27349,242.37884 55.27349,242.28205 C 55.27349,242.15985 55.308152,242.08291 55.385817,242.03136 C 55.4802,241.96868 55.503767,241.88717 55.53396,241.50716 C 55.568552,241.07152 55.635472,240.89508 55.766745,240.89508 C 55.865643,240.89508 56.159072,241.38863 56.159072,241.55438 C 56.159072,241.63652 56.186675,241.78476 56.219307,241.88485 C 56.251927,241.98493 56.292947,242.30159 56.31047,242.5881 L 56.341398,243.10903 L 56.634418,243.09926 L 56.92745,243.08949 L 57.008837,243.29461 C 57.062795,243.43197 57.120638,243.49972 57.186275,243.49972 C 57.240152,243.49972 57.313057,243.52883 57.347438,243.56321 C 57.394455,243.61022 57.424602,243.60977 57.46953,243.56485 C 57.51447,243.51992 57.474675,243.41142 57.306745,243.1253 C 57.18393,242.91606 57.041795,242.68359 56.990928,242.60926 C 56.914255,242.49721 56.898832,242.36808 56.90302,241.85391 C 56.905797,241.51281 56.876572,240.9931 56.837908,240.6981 C 56.77275,240.20102 56.774523,240.1552 56.859072,240.07298 C 56.94537,239.98905 56.96357,239.99863 57.205817,240.2667 L 57.461398,240.54996 L 57.461398,241.08392 C 57.461387,241.73403 57.492245,241.78065 57.922092,241.78065 L 58.22,241.78065 L 58.322562,242.00205 C 58.452365,242.28151 58.560853,242.286 58.636745,242.01508 L 58.695347,241.8067 L 59.668837,241.78065 C 60.457935,241.75956 60.652862,241.73977 60.692797,241.67647 C 60.721975,241.63021 60.742788,240.58358 60.743255,239.11089 L 60.743255,236.62345 L 61.186052,236.62345 L 61.628837,236.62345 L 61.628837,239.12065 C 61.628837,241.32096 61.639722,241.62712 61.711857,241.69926 C 61.782428,241.76982 61.996313,241.78065 63.269765,241.78065 C 64.543228,241.78065 64.758735,241.76982 64.829307,241.69926 C 64.902783,241.62579 64.910693,240.99881 64.910693,235.58159 C 64.910693,230.16436 64.902783,229.53738 64.829307,229.46392 C 64.758735,229.39333 64.543228,229.38252 63.269765,229.38252 C 61.996313,229.38252 61.782428,229.39333 61.711857,229.46392 C 61.640107,229.53567 61.628837,229.80905 61.628837,231.67787 L 61.628837,233.81043 L 61.186052,233.81043 L 60.743255,233.81043 L 60.743255,231.67787 C 60.743255,229.80905 60.733607,229.53567 60.661857,229.46392 C 60.591297,229.39333 60.37579,229.38252 59.102327,229.38252 C 57.828863,229.38252 57.61499,229.39333 57.544418,229.46392 C 57.471595,229.53673 57.462332,229.94376 57.461398,233.14949 L 57.459765,236.75367 L 57.18302,236.46716 C 56.967023,236.24331 56.86921,236.08382 56.73698,235.73787 C 56.553918,235.25894 56.422983,234.84891 56.295817,234.3574 C 56.010485,233.25463 55.770373,232.58455 55.28,231.52647 C 54.957697,230.83102 54.895933,230.64834 54.804653,230.11996 C 54.732787,229.70394 54.67254,229.49224 54.612562,229.44763 C 54.548535,229.40001 54.207308,229.38252 53.341163,229.38252 C 52.046362,229.38252 51.992917,229.39389 51.991633,229.6853 C 51.990432,229.95514 51.845893,230.36346 51.594418,230.80856 C 51.45471,231.05585 51.25717,231.41779 51.154877,231.61438 C 50.884257,232.13449 50.425897,232.84528 50.091857,233.26345 C 49.93165,233.464 49.70387,233.79219 49.585582,233.99275 C 49.467293,234.1933 49.304007,234.44346 49.22255,234.54787 C 49.055005,234.76264 49.033713,234.86891 49.162327,234.84414 C 49.21044,234.83488 49.353322,234.67387 49.479765,234.48763 C 49.720997,234.13235 50.004567,233.81043 50.075582,233.81043 C 50.141207,233.81043 50.123963,233.98822 50.039765,234.18972 C 49.88321,234.56443 49.648827,235.63228 49.544877,236.44112 C 49.485972,236.89954 49.416602,237.32346 49.391857,237.38205 C 49.367123,237.44064 49.163015,237.68446 48.937673,237.92414 L 48.527438,238.35879 L 48.494888,237.66043 C 48.421097,236.12565 48.060142,235.53184 46.993948,235.186 C 46.729138,235.10011 46.718953,235.09184 46.837673,235.04438 C 48.069102,234.55207 48.214877,234.31318 48.214877,232.79461 C 48.214877,231.46269 48.01841,230.79352 47.45953,230.22577 C 46.779783,229.53521 45.968962,229.38252 42.977908,229.38252 z M 67.359072,229.38577 C 66.085608,229.38577 65.871735,229.3942 65.801163,229.446 C 65.729413,229.49868 65.718143,229.69874 65.718143,231.07065 L 65.718143,232.6367 L 65.718143,234.70089 L 65.718143,236.53392 C 65.718143,238.14918 65.729017,238.37421 65.801163,238.42716 C 65.871735,238.47897 66.085608,238.4874 67.359072,238.4874 C 68.632535,238.4874 68.848042,238.47897 68.918602,238.42716 C 68.992078,238.37323 69,237.91425 69,233.9374 C 69,229.96056 68.992078,229.49994 68.918602,229.446 C 68.84803,229.3942 68.632535,229.38577 67.359072,229.38577 z M 44.229765,231.57043 L 44.48698,231.57043 C 44.874827,231.57043 45.00239,231.63973 45.125123,231.91716 C 45.223263,232.13904 45.229248,232.23085 45.204888,232.9981 C 45.190235,233.45934 45.162293,233.88969 45.141398,233.9553 C 45.087242,234.12525 44.854398,234.22717 44.51953,234.22717 L 44.229765,234.22717 L 44.229765,232.89879 L 44.229765,231.57043 z M 52.828367,233.47345 C 52.890818,233.51204 53.045472,233.80233 53.311857,234.38345 C 53.458343,234.703 53.521227,234.92049 53.539765,235.16485 C 53.564452,235.49003 53.557603,235.51349 53.380235,235.74438 C 53.163433,236.02658 52.744332,236.34116 52.440928,236.44926 C 52.217943,236.5287 50.855277,236.88392 50.773948,236.88392 C 50.748515,236.88392 50.740827,236.80772 50.75604,236.71461 C 50.803523,236.4242 51.153092,235.76772 51.516287,235.28694 C 51.707842,235.03335 52.069298,234.515 52.32047,234.13438 C 52.57163,233.75375 52.800437,233.45618 52.828367,233.47345 z M 44.408837,236.20345 C 44.47802,236.20457 44.573337,236.23544 44.705112,236.26043 C 45.205763,236.35537 45.19349,236.31716 45.19349,237.87043 C 45.19349,239.21782 45.19314,239.22049 45.069765,239.35181 C 44.954732,239.47427 44.591653,239.59274 44.332327,239.59274 C 44.233638,239.59275 44.229765,239.54378 44.229765,237.89972 C 44.229765,236.45803 44.201298,236.20008 44.408837,236.20345 z M 56.652327,237.04508 C 56.67146,237.01411 56.810398,237.08283 56.987673,237.21112 C 57.154705,237.33199 57.330638,237.45432 57.378367,237.48298 C 57.45525,237.52913 57.463172,237.64513 57.45,238.49879 L 57.435347,239.46252 L 57.235123,239.12392 C 57.125025,238.93768 56.993857,238.73843 56.942092,238.68112 C 56.890327,238.62381 56.812008,238.47145 56.76953,238.34252 C 56.685483,238.08738 56.599313,237.13084 56.652327,237.04508 z M 67.359072,239.16136 C 66.085608,239.16136 65.871735,239.16283 65.801163,239.17763 C 65.729413,239.19268 65.718143,239.24966 65.718143,239.64159 L 65.718143,240.08926 L 65.718143,240.67856 L 65.718143,241.20275 C 65.718143,241.66419 65.729017,241.72808 65.801163,241.74321 C 65.871735,241.75802 66.085608,241.76112 67.359072,241.76112 C 68.632535,241.76112 68.848042,241.75802 68.918602,241.74321 C 68.992078,241.7278 69,241.59652 69,240.46043 C 69,239.32433 68.992078,239.19304 68.918602,239.17763 C 68.84803,239.16284 68.632535,239.16136 67.359072,239.16136 z"
       style="fill:#1fbc13;fill-opacity:1;fill-rule:evenodd;stroke:none;stroke-width:0.58090181pt;stroke-linecap:butt;stroke-linejoin:miter;stroke-opacity:1" />
  </g>
  <g
     inkscape:groupmode="layer"
     id="layer2"
     inkscape:label="borders"
     style="display:inline">
    <rect
       y="132.35645"
       x="37.292313"
       height="59.01149"
       width="467.01147"
       id="rect3159"
       style="opacity:1;fill:none;fill-opacity:1;fill-rule:nonzero;stroke:#cccccc;stroke-width:0.98851103;stroke-linecap:butt;stroke-linejoin:miter;marker:none;marker-start:none;marker-mid:none;marker-end:none;stroke-miterlimit:4;stroke-dasharray:none;stroke-dashoffset:0;stroke-opacity:1;visibility:visible;display:inline;overflow:visible;enable-background:accumulate" />
    <rect
       style="opacity:1;fill:none;fill-opacity:1;fill-rule:nonzero;stroke:#cccccc;stroke-width:0.67290944;stroke-linecap:butt;stroke-linejoin:miter;marker:none;marker-start:none;marker-mid:none;marker-end:none;stroke-miterlimit:4;stroke-dasharray:none;stroke-dashoffset:0;stroke-opacity:1;visibility:visible;display:inline;overflow:visible;enable-background:accumulate"
       id="rect3165"
       width="467.32709"
       height="27.327091"
       x="38.33646"
       y="222.69864" />
    <rect
       style="opacity:1;fill:none;fill-opacity:1;fill-rule:nonzero;stroke:#cccccc;stroke-width:0.98851103;stroke-linecap:butt;stroke-linejoin:miter;marker:none;marker-start:none;marker-mid:none;marker-end:none;stroke-miterlimit:4;stroke-dasharray:none;stroke-dashoffset:0;stroke-opacity:1;visibility:visible;display:inline;overflow:visible;enable-background:accumulate"
       id="rect3221"
       width="467.01147"
       height="59.01149"
       x="35.292313"
       y="381.35645" />
    <rect
       y="471.69864"
       x="36.33646"
       height="27.327091"
       width="467.32709"
       id="rect3225"
       style="opacity:1;fill:none;fill-opacity:1;fill-rule:nonzero;stroke:#cccccc;stroke-width:0.67290944;stroke-linecap:butt;stroke-linejoin:miter;marker:none;marker-start:none;marker-mid:none;marker-end:none;stroke-miterlimit:4;stroke-dasharray:none;stroke-dashoffset:0;stroke-opacity:1;visibility:visible;display:inline;overflow:visible;enable-background:accumulate" />
    <rect
       style="opacity:1;fill:none;fill-opacity:1;fill-rule:nonzero;stroke:#cccccc;stroke-width:0.98851103;stroke-linecap:butt;stroke-linejoin:miter;marker:none;marker-start:none;marker-mid:none;marker-end:none;stroke-miterlimit:4;stroke-dasharray:none;stroke-dashoffset:0;stroke-opacity:1;visibility:visible;display:inline;overflow:visible;enable-background:accumulate"
       id="rect3477"
       width="467.01147"
       height="59.01149"
       x="37.047119"
       y="527.9248" />
  </g>
</svg>
