<?xml version="1.0" encoding="UTF-8" standalone="no"?>
<!-- Created with Inkscape (http://www.inkscape.org/) -->
<svg
   xmlns:dc="http://purl.org/dc/elements/1.1/"
   xmlns:cc="http://creativecommons.org/ns#"
   xmlns:rdf="http://www.w3.org/1999/02/22-rdf-syntax-ns#"
   xmlns:svg="http://www.w3.org/2000/svg"
   xmlns="http://www.w3.org/2000/svg"
   xmlns:xlink="http://www.w3.org/1999/xlink"
   xmlns:sodipodi="http://sodipodi.sourceforge.net/DTD/sodipodi-0.dtd"
   xmlns:inkscape="http://www.inkscape.org/namespaces/inkscape"
   width="210mm"
   height="297mm"
   id="svg2531"
   sodipodi:version="0.32"
   inkscape:version="0.46"
   sodipodi:docbase="/home/vjrj/proyectos/ourproject.org/kune/svn/trunk/img"
   sodipodi:docname="kune-logos.svg"
   inkscape:output_extension="org.inkscape.output.svg.inkscape">
  <defs
     id="defs2533">
    <inkscape:perspective
       sodipodi:type="inkscape:persp3d"
       inkscape:vp_x="0 : 526.18109 : 1"
       inkscape:vp_y="0 : 1000 : 0"
       inkscape:vp_z="744.09448 : 526.18109 : 1"
       inkscape:persp3d-origin="372.04724 : 350.78739 : 1"
       id="perspective2515" />
    <linearGradient
       inkscape:collect="always"
       id="linearGradient2871">
      <stop
         style="stop-color:#f95;stop-opacity:1;"
         offset="0"
         id="stop2873" />
      <stop
         style="stop-color:#f95;stop-opacity:0;"
         offset="1"
         id="stop2875" />
    </linearGradient>
    <linearGradient
       inkscape:collect="always"
       xlink:href="#linearGradient2871"
       id="linearGradient3948"
       gradientUnits="userSpaceOnUse"
       gradientTransform="translate(-40.30246,-342.5709)"
       x1="368.6329"
       y1="835.74664"
       x2="368.6329"
       y2="932.62268" />
    <linearGradient
       inkscape:collect="always"
       xlink:href="#linearGradient2871"
       id="linearGradient4012"
       gradientUnits="userSpaceOnUse"
       gradientTransform="matrix(0.997905,0,0,0.997905,-48.42866,-162.7847)"
       x1="367.37344"
       y1="805.51978"
       x2="367.37344"
       y2="882.24463" />
    <linearGradient
       inkscape:collect="always"
       xlink:href="#linearGradient2871"
       id="linearGradient4732"
       gradientUnits="userSpaceOnUse"
       gradientTransform="matrix(0.997905,0,0,0.997905,-48.42866,-162.7847)"
       x1="367.37344"
       y1="805.51978"
       x2="367.37344"
       y2="882.24463" />
    <linearGradient
       inkscape:collect="always"
       xlink:href="#linearGradient2871"
       id="linearGradient3463"
       gradientUnits="userSpaceOnUse"
       gradientTransform="matrix(0.997905,0,0,0.997905,-416.0995,-39.78506)"
       x1="719.26416"
       y1="813.12897"
       x2="719.26416"
       y2="918.47412" />
  </defs>
  <sodipodi:namedview
     id="base"
     pagecolor="#ffffff"
     bordercolor="#666666"
     borderopacity="1.0"
     inkscape:pageopacity="0.0"
     inkscape:pageshadow="2"
     inkscape:zoom="0.72123458"
     inkscape:cx="372.04724"
     inkscape:cy="526.18109"
     inkscape:document-units="px"
     inkscape:current-layer="layer1"
     inkscape:window-width="1379"
     inkscape:window-height="936"
     inkscape:window-x="61"
     inkscape:window-y="0"
     showguides="true"
     inkscape:guide-bbox="true"
     inkscape:guide-points="true"
     showgrid="false" />
  <metadata
     id="metadata2536">
    <rdf:RDF>
      <cc:Work
         rdf:about="">
        <dc:format>image/svg+xml</dc:format>
        <dc:type
           rdf:resource="http://purl.org/dc/dcmitype/StillImage" />
      </cc:Work>
    </rdf:RDF>
  </metadata>
  <g
     inkscape:label="Capa 1"
     inkscape:groupmode="layer"
     id="layer1">
    <rect
       style="opacity:0.8;color:#000000;fill:#800000;fill-opacity:1;fill-rule:evenodd;stroke:#ffffff;stroke-width:1.90017545;stroke-linecap:butt;stroke-linejoin:miter;marker:none;marker-start:none;marker-mid:none;marker-end:none;stroke-miterlimit:4;stroke-dasharray:none;stroke-dashoffset:0;stroke-opacity:1;visibility:visible;display:inline;overflow:visible;enable-background:accumulate"
       id="rect2349"
       width="159.36984"
       height="37.225075"
       x="522.6051"
       y="369.80557" />
    <text
       xml:space="preserve"
       style="font-size:37.67004013px;font-style:normal;font-variant:normal;font-weight:normal;font-stretch:normal;line-height:100%;writing-mode:lr-tb;text-anchor:start;fill:#a56941;fill-opacity:1;stroke:none;stroke-width:1pt;stroke-linecap:butt;stroke-linejoin:miter;stroke-opacity:1;font-family:Emblem"
       x="194.65031"
       y="257.54782"
       id="text5978"
       sodipodi:linespacing="100%"><tspan
         sodipodi:role="line"
         id="tspan5980"
         x="194.65031"
         y="257.54782">kune</tspan></text>
    <text
       xml:space="preserve"
       style="font-size:19.77380943px;font-style:normal;font-variant:normal;font-weight:normal;font-stretch:normal;line-height:100%;writing-mode:lr-tb;text-anchor:start;fill:#dd8a3d;fill-opacity:1;stroke:none;stroke-width:1pt;stroke-linecap:butt;stroke-linejoin:miter;stroke-opacity:1;font-family:Emblem"
       x="194.29167"
       y="279.47168"
       id="text5982"
       sodipodi:linespacing="100%"><tspan
         sodipodi:role="line"
         id="tspan5984"
         x="194.29167"
         y="279.47168">libre/free projects</tspan></text>
    <g
       id="g5986"
       transform="matrix(0.3688,0,0,0.3688,117.3684,-91.15957)">
      <path
         style="color:black;fill:#69312f;fill-opacity:1;fill-rule:nonzero;stroke:#dd8a3d;stroke-width:109.23953247;stroke-linecap:round;stroke-linejoin:miter;marker:none;marker-start:none;marker-mid:none;marker-end:none;stroke-miterlimit:4;stroke-dashoffset:0;stroke-opacity:1;visibility:visible;display:block"
         d="M 60.321717,411.99998 L 437.33633,411.99998"
         id="path5988"
         transform="matrix(0.240856,0.12287,-0.12287,0.240856,101.5762,778.871)" />
      <path
         style="color:black;fill:white;fill-opacity:1;fill-rule:nonzero;stroke:#ffdb6b;stroke-width:109.23950958;stroke-linecap:round;stroke-linejoin:miter;marker:none;marker-start:none;marker-mid:none;marker-end:none;stroke-miterlimit:4;stroke-dashoffset:0;stroke-opacity:1;visibility:visible;display:block"
         d="M 252.61203,788.60332 L 252.61203,411.59154"
         id="path5990"
         transform="matrix(0.240856,0.12287,-0.12287,0.240856,101.5762,778.871)" />
      <path
         style="color:black;fill:#69312f;fill-opacity:1;fill-rule:nonzero;stroke:#69312f;stroke-width:109.23951721;stroke-linecap:round;stroke-linejoin:miter;marker:none;marker-start:none;marker-mid:none;marker-end:none;stroke-miterlimit:4;stroke-dashoffset:0;stroke-opacity:1;visibility:visible;display:block"
         d="M 252.86937,597.15755 L 629.88177,597.15755"
         id="path5992"
         transform="matrix(0.240856,0.12287,-0.12287,0.240856,101.5762,778.871)" />
      <path
         style="color:black;fill:white;fill-opacity:1;fill-rule:nonzero;stroke:#c63;stroke-width:109.23950195;stroke-linecap:round;stroke-linejoin:miter;marker:none;marker-start:none;marker-mid:none;marker-end:none;stroke-miterlimit:4;stroke-dashoffset:0;stroke-opacity:1;visibility:visible;display:block"
         d="M 437.45588,596.97447 L 437.45588,219.95956"
         id="path5994"
         transform="matrix(0.240856,0.12287,-0.12287,0.240856,101.5762,778.871)" />
      <path
         style="color:black;fill:#69312f;fill-opacity:1;fill-rule:nonzero;stroke:#dd8a3d;stroke-width:109.23947906;stroke-linecap:round;stroke-linejoin:miter;marker:none;marker-start:none;marker-mid:none;marker-end:none;stroke-miterlimit:4;stroke-dashoffset:0;stroke-opacity:1;visibility:visible;display:block"
         d="M 372.87905,411.27704 L 437.81346,411.27704"
         id="path5996"
         transform="matrix(0.240856,0.12287,-0.12287,0.240856,101.5762,778.871)" />
    </g>
    <path
       style="font-size:58.13353348px;font-style:normal;font-variant:normal;font-weight:normal;font-stretch:normal;line-height:100%;writing-mode:lr-tb;text-anchor:start;fill:#a56941;fill-opacity:1;stroke:none;stroke-width:1pt;stroke-linecap:butt;stroke-linejoin:miter;stroke-opacity:1;font-family:Emblem"
       d="M 382.32888,356.181 C 381.58585,356.181 380.87165,356.18362 380.15497,356.23041 C 380.08806,356.24404 380.02464,356.26725 379.95734,356.27981 C 379.29019,356.40442 378.63198,356.51068 377.93165,356.52685 C 377.83464,356.54045 377.7317,356.51232 377.63521,356.52685 C 371.91916,357.3874 367.08967,359.86933 363.20833,363.98732 C 358.67562,368.77438 356.39016,374.50914 356.39015,381.181 C 356.39015,387.92772 358.67563,393.70144 363.20833,398.47349 C 368.115,403.61953 374.49013,406.18098 382.32888,406.181 C 386.48757,406.18098 390.48569,405.14772 394.2854,403.06835 C 398.08505,401.04884 401.38885,398.19052 404.21623,394.57033 L 395.6688,389.82725 C 391.98875,394.73393 387.46722,397.18891 382.08185,397.18891 C 378.34197,397.18891 374.98875,395.97572 372.10161,393.58219 C 369.16954,391.18868 367.70434,388.27328 367.70438,384.78772 L 406.7854,384.78772 L 406.7854,382.81143 C 406.78536,374.35939 403.92249,367.59136 398.23797,362.50511 C 393.45092,358.27164 388.14807,356.18106 382.32888,356.181 z M 200.60951,356.52685 L 200.60951,375.44977 L 193.98896,375.44977 L 193.98896,385.13357 L 200.60951,385.13357 L 200.60951,404.89642 L 210.68856,404.89642 L 210.68856,385.13357 L 216.76564,385.13357 L 229.16683,404.89642 L 241.12335,404.89642 L 224.47315,379.7976 L 240.38224,357.46558 L 228.17868,357.46558 L 215.87631,375.44977 L 210.68856,375.44977 L 210.68856,356.52685 L 200.60951,356.52685 z M 324.27552,356.52685 C 322.54049,356.83651 320.92381,357.34051 319.43362,358.10788 C 316.92042,359.45426 314.93633,361.22989 313.45536,363.44385 L 313.45536,357.46558 L 303.3269,357.46558 L 303.3269,404.89642 L 313.45536,404.89642 L 313.45536,378.31539 C 313.45535,374.51574 314.5276,371.60032 316.66683,369.52092 C 318.82096,367.4416 321.5519,366.4083 324.91781,366.40827 C 328.47813,366.4083 331.25846,367.36364 333.21821,369.32329 C 335.17785,371.28301 336.13317,374.35431 336.13323,378.51302 L 336.13323,404.89642 L 346.26169,404.89642 L 346.26169,376.2897 C 346.26164,370.4705 344.48602,365.66255 340.92572,361.86282 C 338.25543,359.01309 335.16572,357.23931 331.63718,356.52685 L 324.27552,356.52685 z M 247.49687,357.46558 L 247.49687,384.93594 C 247.49685,391.36851 249.6654,396.56938 254.0186,400.54859 C 258.05764,404.28845 263.06049,406.18098 268.93955,406.181 C 274.87841,406.18098 279.85588,404.28845 283.90991,400.54859 C 288.26306,396.56938 290.4316,391.36851 290.43165,384.93594 L 290.43165,357.46558 L 280.30319,357.46558 L 280.30319,384.04661 C 280.30314,387.54713 279.23089,390.39502 277.09173,392.59404 C 274.87769,394.86789 272.18573,396.00313 268.93955,396.00313 C 265.81301,396.00315 263.10017,394.85294 260.88619,392.59404 C 258.68714,390.32023 257.62529,387.48731 257.62532,384.04661 L 257.62532,357.46558 L 247.49687,357.46558 z M 381.0443,365.27191 C 384.3503,365.27196 387.23715,366.19874 389.69054,368.03871 C 392.06905,369.92362 393.82068,372.66955 394.9277,376.2897 L 367.70438,376.2897 C 368.49721,372.80418 370.1423,370.09724 372.59568,368.13752 C 374.97421,366.23771 377.78313,365.27196 381.0443,365.27191 z "
       id="path2585"
       inkscape:export-filename="/home/vjrj/proyectos/dev/kune/trunk/img/kune-logo-1200.png"
       inkscape:export-xdpi="399.59854"
       inkscape:export-ydpi="399.59854" />
    <g
       id="g6020"
       transform="matrix(0.347343,0,0,0.346901,118.4533,54.1211)"
       inkscape:export-filename="/home/vjrj/proyectos/dev/kune/trunk/img/kune-logo-1200.png"
       inkscape:export-xdpi="399.59854"
       inkscape:export-ydpi="399.59854">
      <path
         style="color:black;fill:#69312f;fill-opacity:1;fill-rule:nonzero;stroke:#dd8a3d;stroke-width:109.23953247;stroke-linecap:round;stroke-linejoin:miter;marker:none;marker-start:none;marker-mid:none;marker-end:none;stroke-miterlimit:4;stroke-dashoffset:0;stroke-opacity:1;visibility:visible;display:block"
         d="M 60.321717,411.99998 L 437.33633,411.99998"
         id="path6022"
         transform="matrix(0.240856,0.12287,-0.12287,0.240856,101.5762,778.871)" />
      <path
         style="color:black;fill:white;fill-opacity:1;fill-rule:nonzero;stroke:#ffdb6b;stroke-width:109.23950958;stroke-linecap:round;stroke-linejoin:miter;marker:none;marker-start:none;marker-mid:none;marker-end:none;stroke-miterlimit:4;stroke-dashoffset:0;stroke-opacity:1;visibility:visible;display:block"
         d="M 252.61203,788.60332 L 252.61203,411.59154"
         id="path6024"
         transform="matrix(0.240856,0.12287,-0.12287,0.240856,101.5762,778.871)" />
      <path
         style="color:black;fill:#69312f;fill-opacity:1;fill-rule:nonzero;stroke:#69312f;stroke-width:109.23951721;stroke-linecap:round;stroke-linejoin:miter;marker:none;marker-start:none;marker-mid:none;marker-end:none;stroke-miterlimit:4;stroke-dashoffset:0;stroke-opacity:1;visibility:visible;display:block"
         d="M 252.86937,597.15755 L 629.88177,597.15755"
         id="path6026"
         transform="matrix(0.240856,0.12287,-0.12287,0.240856,101.5762,778.871)" />
      <path
         style="color:black;fill:white;fill-opacity:1;fill-rule:nonzero;stroke:#c63;stroke-width:109.23950195;stroke-linecap:round;stroke-linejoin:miter;marker:none;marker-start:none;marker-mid:none;marker-end:none;stroke-miterlimit:4;stroke-dashoffset:0;stroke-opacity:1;visibility:visible;display:block"
         d="M 437.45588,596.97447 L 437.45588,219.95956"
         id="path6028"
         transform="matrix(0.240856,0.12287,-0.12287,0.240856,101.5762,778.871)" />
      <path
         style="color:black;fill:#69312f;fill-opacity:1;fill-rule:nonzero;stroke:#dd8a3d;stroke-width:109.23947906;stroke-linecap:round;stroke-linejoin:miter;marker:none;marker-start:none;marker-mid:none;marker-end:none;stroke-miterlimit:4;stroke-dashoffset:0;stroke-opacity:1;visibility:visible;display:block"
         d="M 372.87905,411.27704 L 437.81346,411.27704"
         id="path6030"
         transform="matrix(0.240856,0.12287,-0.12287,0.240856,101.5762,778.871)" />
    </g>
    <g
       id="g2513"
       transform="matrix(0.222301,0,0,0.222015,155.9062,114.9246)"
       inkscape:export-filename="/home/vjrj/proyectos/ourproject.org/documentos/fsm-virtual/kune-ico.png"
       inkscape:export-xdpi="90"
       inkscape:export-ydpi="90">
      <path
         style="color:black;fill:#69312f;fill-opacity:1;fill-rule:nonzero;stroke:#dd8a3d;stroke-width:109.23953247;stroke-linecap:round;stroke-linejoin:miter;marker:none;marker-start:none;marker-mid:none;marker-end:none;stroke-miterlimit:4;stroke-dashoffset:0;stroke-opacity:1;visibility:visible;display:block"
         d="M 60.321717,411.99998 L 437.33633,411.99998"
         id="path2515"
         transform="matrix(0.240856,0.12287,-0.12287,0.240856,101.5762,778.871)" />
      <path
         style="color:black;fill:white;fill-opacity:1;fill-rule:nonzero;stroke:#ffdb6b;stroke-width:109.23950958;stroke-linecap:round;stroke-linejoin:miter;marker:none;marker-start:none;marker-mid:none;marker-end:none;stroke-miterlimit:4;stroke-dashoffset:0;stroke-opacity:1;visibility:visible;display:block"
         d="M 252.61203,788.60332 L 252.61203,411.59154"
         id="path2517"
         transform="matrix(0.240856,0.12287,-0.12287,0.240856,101.5762,778.871)" />
      <path
         style="color:black;fill:#69312f;fill-opacity:1;fill-rule:nonzero;stroke:#69312f;stroke-width:109.23951721;stroke-linecap:round;stroke-linejoin:miter;marker:none;marker-start:none;marker-mid:none;marker-end:none;stroke-miterlimit:4;stroke-dashoffset:0;stroke-opacity:1;visibility:visible;display:block"
         d="M 252.86937,597.15755 L 629.88177,597.15755"
         id="path2519"
         transform="matrix(0.240856,0.12287,-0.12287,0.240856,101.5762,778.871)" />
      <path
         style="color:black;fill:white;fill-opacity:1;fill-rule:nonzero;stroke:#c63;stroke-width:109.23950195;stroke-linecap:round;stroke-linejoin:miter;marker:none;marker-start:none;marker-mid:none;marker-end:none;stroke-miterlimit:4;stroke-dashoffset:0;stroke-opacity:1;visibility:visible;display:block"
         d="M 437.45588,596.97447 L 437.45588,219.95956"
         id="path2521"
         transform="matrix(0.240856,0.12287,-0.12287,0.240856,101.5762,778.871)" />
      <path
         style="color:black;fill:#69312f;fill-opacity:1;fill-rule:nonzero;stroke:#dd8a3d;stroke-width:109.23947906;stroke-linecap:round;stroke-linejoin:miter;marker:none;marker-start:none;marker-mid:none;marker-end:none;stroke-miterlimit:4;stroke-dashoffset:0;stroke-opacity:1;visibility:visible;display:block"
         d="M 372.87905,411.27704 L 437.81346,411.27704"
         id="path2523"
         transform="matrix(0.240856,0.12287,-0.12287,0.240856,101.5762,778.871)" />
    </g>
    <path
       style="color:black;fill:#dd8a3d;fill-opacity:1;fill-rule:nonzero;stroke:none;stroke-width:1pt;stroke-linecap:butt;stroke-linejoin:miter;marker:none;marker-start:none;marker-mid:none;marker-end:none;stroke-miterlimit:4;stroke-dasharray:none;stroke-dashoffset:0;stroke-opacity:1;visibility:visible;display:inline;overflow:visible"
       d="M 114.97879,474.62134 L 114.97879,475.99161 L 594.10379,475.99161 L 594.10379,474.62134 L 114.97879,474.62134 z "
       id="path2924" />
    <path
       style="opacity:0.33000004;color:black;fill:url(#linearGradient3948);fill-opacity:1;fill-rule:nonzero;stroke:none;stroke-width:1pt;stroke-linecap:butt;stroke-linejoin:miter;marker:none;marker-start:none;marker-mid:none;marker-end:none;stroke-miterlimit:4;stroke-dasharray:none;stroke-dashoffset:0;stroke-opacity:1;visibility:visible;display:inline;overflow:visible"
       d="M 114.97879,475.99161 L 114.97879,500.89786 C 121.83635,501.04069 129.19856,501.25538 136.88504,501.61661 C 164.1692,502.89887 167.39227,518.96747 194.07254,526.58536 C 222.40603,534.67531 228.20957,530.6705 249.35356,528.14844 C 287.25457,523.6276 343.69837,490.87496 387.97879,514.27286 C 412.46746,527.21275 437.88253,529.1942 469.44754,520.71036 C 502.92488,511.71256 525.18524,505.9131 563.47879,501.42911 L 594.10379,500.80411 L 594.10379,475.99161 L 114.97879,475.99161 z "
       id="path1971"
       sodipodi:nodetypes="ccssssscccc" />
    <text
       xml:space="preserve"
       style="font-size:37.67004013px;font-style:normal;font-variant:normal;font-weight:normal;font-stretch:normal;line-height:100%;writing-mode:lr-tb;text-anchor:start;fill:#a56941;fill-opacity:1;stroke:none;stroke-width:1pt;stroke-linecap:butt;stroke-linejoin:miter;stroke-opacity:1;font-family:Emblem"
       x="188.50735"
       y="507.32114"
       id="text2887"
       sodipodi:linespacing="100%"><tspan
         sodipodi:role="line"
         id="tspan2889"
         x="188.50735"
         y="507.32114">kune</tspan></text>
    <text
       xml:space="preserve"
       style="font-size:23.88307381px;font-style:normal;font-variant:normal;font-weight:normal;font-stretch:normal;line-height:100%;writing-mode:lr-tb;text-anchor:start;fill:#dd8a3d;fill-opacity:1;stroke:none;stroke-width:1pt;stroke-linecap:butt;stroke-linejoin:miter;stroke-opacity:1;font-family:Emblem"
       x="237.69305"
       y="533.18787"
       id="text2891"
       sodipodi:linespacing="100%"><tspan
         sodipodi:role="line"
         id="tspan2893"
         x="237.69305"
         y="533.18787">wiki</tspan></text>
    <g
       id="g2895"
       transform="matrix(0.3688,0,0,0.3688,111.2255,158.6138)">
      <path
         style="color:black;fill:#69312f;fill-opacity:1;fill-rule:nonzero;stroke:#dd8a3d;stroke-width:109.23953247;stroke-linecap:round;stroke-linejoin:miter;marker:none;marker-start:none;marker-mid:none;marker-end:none;stroke-miterlimit:4;stroke-dashoffset:0;stroke-opacity:1;visibility:visible;display:block"
         d="M 60.321717,411.99998 L 437.33633,411.99998"
         id="path2897"
         transform="matrix(0.240856,0.12287,-0.12287,0.240856,101.5762,778.871)" />
      <path
         style="color:black;fill:white;fill-opacity:1;fill-rule:nonzero;stroke:#ffdb6b;stroke-width:109.23950958;stroke-linecap:round;stroke-linejoin:miter;marker:none;marker-start:none;marker-mid:none;marker-end:none;stroke-miterlimit:4;stroke-dashoffset:0;stroke-opacity:1;visibility:visible;display:block"
         d="M 252.61203,788.60332 L 252.61203,411.59154"
         id="path2899"
         transform="matrix(0.240856,0.12287,-0.12287,0.240856,101.5762,778.871)" />
      <path
         style="color:black;fill:#69312f;fill-opacity:1;fill-rule:nonzero;stroke:#69312f;stroke-width:109.23951721;stroke-linecap:round;stroke-linejoin:miter;marker:none;marker-start:none;marker-mid:none;marker-end:none;stroke-miterlimit:4;stroke-dashoffset:0;stroke-opacity:1;visibility:visible;display:block"
         d="M 252.86937,597.15755 L 629.88177,597.15755"
         id="path2901"
         transform="matrix(0.240856,0.12287,-0.12287,0.240856,101.5762,778.871)" />
      <path
         style="color:black;fill:white;fill-opacity:1;fill-rule:nonzero;stroke:#c63;stroke-width:109.23950195;stroke-linecap:round;stroke-linejoin:miter;marker:none;marker-start:none;marker-mid:none;marker-end:none;stroke-miterlimit:4;stroke-dashoffset:0;stroke-opacity:1;visibility:visible;display:block"
         d="M 437.45588,596.97447 L 437.45588,219.95956"
         id="path2903"
         transform="matrix(0.240856,0.12287,-0.12287,0.240856,101.5762,778.871)" />
      <path
         style="color:black;fill:#69312f;fill-opacity:1;fill-rule:nonzero;stroke:#dd8a3d;stroke-width:109.23947906;stroke-linecap:round;stroke-linejoin:miter;marker:none;marker-start:none;marker-mid:none;marker-end:none;stroke-miterlimit:4;stroke-dashoffset:0;stroke-opacity:1;visibility:visible;display:block"
         d="M 372.87905,411.27704 L 437.81346,411.27704"
         id="path2905"
         transform="matrix(0.240856,0.12287,-0.12287,0.240856,101.5762,778.871)" />
    </g>
    <g
       id="g4030"
       inkscape:export-filename="/home/vjrj/proyectos/ourproject.org/documentos/fsm-virtual/kune-logo-wiki.png"
       inkscape:export-xdpi="90"
       inkscape:export-ydpi="90">
      <path
         id="path2952"
         d="M 105.53125 652.625 L 105.53125 654 L 582.9375 654 L 582.96875 654 L 1058.375 654 L 1060.375 654 L 1535.7812 654 L 1535.8125 654 L 2013.2188 654 L 2013.2188 652.625 L 1535.8125 652.625 L 1535.7812 652.625 L 1060.375 652.625 L 1058.375 652.625 L 582.96875 652.625 L 582.9375 652.625 L 105.53125 652.625 z "
         style="color:black;fill:#dd8a3d;fill-opacity:1;fill-rule:nonzero;stroke:none;stroke-width:1pt;stroke-linecap:butt;stroke-linejoin:miter;marker:none;marker-start:none;marker-mid:none;marker-end:none;stroke-miterlimit:4;stroke-dasharray:none;stroke-dashoffset:0;stroke-opacity:1;visibility:visible;display:inline;overflow:visible" />
      <path
         id="path2954"
         d="M 106.53125 654.0625 C 106.53125 662.34719 106.53125 670.62156 106.53125 678.90625 C 126.03374 678.94549 147.17511 678.88813 162.875 692.46875 C 182.19889 705.67743 206.67856 714.95641 230.0625 707.8125 C 279.49807 702.00195 328.72651 680.70937 378.96875 692.25 C 410.05633 699.36366 441.80002 691.68955 473.03125 689.8125 C 500.91193 685.1284 528.46846 678.78125 557.28125 678.78125 C 567.09851 678.78124 575.11549 678.78125 582.9375 678.78125 C 582.93753 678.82281 582.9375 678.86466 582.9375 678.90625 C 602.44002 678.94549 623.58136 678.88813 639.28125 692.46875 C 658.6051 705.67743 683.08481 714.95641 706.46875 707.8125 C 755.90428 702.00195 805.13276 680.70937 855.375 692.25 C 886.46257 699.36366 918.20628 691.68955 949.4375 689.8125 C 977.3182 685.1284 1004.8747 678.78125 1033.6875 678.78125 C 1043.5165 678.78124 1051.5439 678.78125 1059.375 678.78125 C 1059.375 678.82293 1059.375 678.86457 1059.375 678.90625 C 1078.8775 678.94549 1100.0188 678.88813 1115.7188 692.46875 C 1135.0427 705.67743 1159.4911 714.95641 1182.875 707.8125 C 1232.3107 702.00195 1281.539 680.70937 1331.7812 692.25 C 1362.8689 699.36366 1394.6438 691.68955 1425.875 689.8125 C 1453.7556 685.1284 1481.2811 678.78125 1510.0938 678.78125 C 1519.911 678.78124 1527.9593 678.78125 1535.7812 678.78125 C 1535.7812 678.82281 1535.7812 678.86466 1535.7812 678.90625 C 1555.2837 678.94549 1576.4251 678.88813 1592.125 692.46875 C 1611.4489 705.67743 1635.8973 714.95641 1659.2812 707.8125 C 1708.7168 702.00195 1757.9453 680.70937 1808.1875 692.25 C 1839.2752 699.36366 1871.05 691.68955 1902.2812 689.8125 C 1930.1619 685.1284 1957.6872 678.78125 1986.5 678.78125 C 1996.3291 678.78124 2004.3877 678.78125 2012.2188 678.78125 L 2012.2188 654.0625 C 1853.4167 654.0625 1694.6146 654.0625 1535.8125 654.0625 C 1535.8021 654.0625 1535.7917 654.0625 1535.7812 654.0625 C 1376.9791 654.0625 1218.1771 654.0625 1059.375 654.0625 C 900.57302 654.0625 741.77084 654.0625 582.96875 654.0625 C 582.95832 654.0625 582.9479 654.0625 582.9375 654.0625 C 424.13545 654.0625 265.33335 654.0625 106.53125 654.0625 z "
         style="opacity:0.33000004;color:black;fill:url(#linearGradient4012);fill-opacity:1;fill-rule:nonzero;stroke:none;stroke-width:1pt;stroke-linecap:butt;stroke-linejoin:miter;marker:none;marker-start:none;marker-mid:none;marker-end:none;stroke-miterlimit:4;stroke-dasharray:none;stroke-dashoffset:0;stroke-opacity:1;visibility:visible;display:inline;overflow:visible" />
      <g
         transform="translate(0,178)"
         id="g3971">
        <text
           sodipodi:linespacing="100%"
           id="text3951"
           y="507.32114"
           x="188.50735"
           style="font-size:37.67004013px;font-style:normal;font-variant:normal;font-weight:normal;font-stretch:normal;line-height:100%;writing-mode:lr-tb;text-anchor:start;fill:#a56941;fill-opacity:1;stroke:none;stroke-width:1pt;stroke-linecap:butt;stroke-linejoin:miter;stroke-opacity:1;font-family:Emblem"
           xml:space="preserve"><tspan
             y="507.32114"
             x="188.50735"
             id="tspan3953"
             sodipodi:role="line">kune</tspan></text>
        <text
           sodipodi:linespacing="100%"
           id="text3955"
           y="533.18787"
           x="237.69305"
           style="font-size:23.88307381px;font-style:normal;font-variant:normal;font-weight:normal;font-stretch:normal;line-height:100%;writing-mode:lr-tb;text-anchor:start;fill:#dd8a3d;fill-opacity:1;stroke:none;stroke-width:1pt;stroke-linecap:butt;stroke-linejoin:miter;stroke-opacity:1;font-family:Emblem"
           xml:space="preserve"><tspan
             y="533.18787"
             x="237.69305"
             id="tspan3957"
             sodipodi:role="line">wiki</tspan></text>
        <g
           transform="matrix(0.3688,0,0,0.3688,111.2255,158.6138)"
           id="g3959">
          <path
             transform="matrix(0.240856,0.12287,-0.12287,0.240856,101.5762,778.871)"
             id="path3961"
             d="M 60.321717,411.99998 L 437.33633,411.99998"
             style="color:black;fill:#69312f;fill-opacity:1;fill-rule:nonzero;stroke:#dd8a3d;stroke-width:109.23953247;stroke-linecap:round;stroke-linejoin:miter;marker:none;marker-start:none;marker-mid:none;marker-end:none;stroke-miterlimit:4;stroke-dashoffset:0;stroke-opacity:1;visibility:visible;display:block" />
          <path
             transform="matrix(0.240856,0.12287,-0.12287,0.240856,101.5762,778.871)"
             id="path3963"
             d="M 252.61203,788.60332 L 252.61203,411.59154"
             style="color:black;fill:white;fill-opacity:1;fill-rule:nonzero;stroke:#ffdb6b;stroke-width:109.23950958;stroke-linecap:round;stroke-linejoin:miter;marker:none;marker-start:none;marker-mid:none;marker-end:none;stroke-miterlimit:4;stroke-dashoffset:0;stroke-opacity:1;visibility:visible;display:block" />
          <path
             transform="matrix(0.240856,0.12287,-0.12287,0.240856,101.5762,778.871)"
             id="path3965"
             d="M 252.86937,597.15755 L 629.88177,597.15755"
             style="color:black;fill:#69312f;fill-opacity:1;fill-rule:nonzero;stroke:#69312f;stroke-width:109.23951721;stroke-linecap:round;stroke-linejoin:miter;marker:none;marker-start:none;marker-mid:none;marker-end:none;stroke-miterlimit:4;stroke-dashoffset:0;stroke-opacity:1;visibility:visible;display:block" />
          <path
             transform="matrix(0.240856,0.12287,-0.12287,0.240856,101.5762,778.871)"
             id="path3967"
             d="M 437.45588,596.97447 L 437.45588,219.95956"
             style="color:black;fill:white;fill-opacity:1;fill-rule:nonzero;stroke:#c63;stroke-width:109.23950195;stroke-linecap:round;stroke-linejoin:miter;marker:none;marker-start:none;marker-mid:none;marker-end:none;stroke-miterlimit:4;stroke-dashoffset:0;stroke-opacity:1;visibility:visible;display:block" />
          <path
             transform="matrix(0.240856,0.12287,-0.12287,0.240856,101.5762,778.871)"
             id="path3969"
             d="M 372.87905,411.27704 L 437.81346,411.27704"
             style="color:black;fill:#69312f;fill-opacity:1;fill-rule:nonzero;stroke:#dd8a3d;stroke-width:109.23947906;stroke-linecap:round;stroke-linejoin:miter;marker:none;marker-start:none;marker-mid:none;marker-end:none;stroke-miterlimit:4;stroke-dashoffset:0;stroke-opacity:1;visibility:visible;display:block" />
        </g>
      </g>
    </g>
    <path
       style="color:black;fill:#dd8a3d;fill-opacity:1;fill-rule:nonzero;stroke:none;stroke-width:1pt;stroke-linecap:butt;stroke-linejoin:miter;marker:none;marker-start:none;marker-mid:none;marker-end:none;stroke-miterlimit:4;stroke-dasharray:none;stroke-dashoffset:0;stroke-opacity:1;visibility:visible;display:inline;overflow:visible"
       d="M 301.0328,775.62064 L 301.0328,776.99564 L 302.2828,776.99564 L 302.2828,775.62064 L 301.0328,775.62064 z "
       id="path3441" />
    <path
       style="opacity:0.33000004;color:black;fill:url(#linearGradient3463);fill-opacity:1;fill-rule:nonzero;stroke:none;stroke-width:1pt;stroke-linecap:butt;stroke-linejoin:miter;marker:none;marker-start:none;marker-mid:none;marker-end:none;stroke-miterlimit:4;stroke-dasharray:none;stroke-dashoffset:0;stroke-opacity:1;visibility:visible;display:inline;overflow:visible"
       d="M 301.0328,777.05814 L 301.0328,829.99564 C 301.44582,830.12132 301.86834,830.22014 302.2828,830.33939 L 302.2828,777.05814 C 301.86613,777.05814 301.44947,777.05814 301.0328,777.05814 z "
       id="path3435" />
    <g
       id="g3451"
       inkscape:export-filename="/home/vjrj/proyectos/ourproject.org/documentos/fsm-virtual/kune-wiki-logo.png"
       inkscape:export-xdpi="240"
       inkscape:export-ydpi="240">
      <text
         xml:space="preserve"
         style="font-size:23.88307381px;font-style:normal;font-variant:normal;font-weight:normal;font-stretch:normal;line-height:100%;writing-mode:lr-tb;text-anchor:start;fill:#dd8a3d;fill-opacity:1;stroke:none;stroke-width:1pt;stroke-linecap:butt;stroke-linejoin:miter;stroke-opacity:1;font-family:Emblem"
         x="252.00264"
         y="831.75439"
         id="text4716"
         sodipodi:linespacing="100%"><tspan
           sodipodi:role="line"
           id="tspan4718"
           x="252.00264"
           y="831.75439">wiki</tspan></text>
      <g
         id="g4720"
         transform="matrix(0.3688,0,0,0.3688,110.9594,457.1803)">
        <path
           style="color:black;fill:#69312f;fill-opacity:1;fill-rule:nonzero;stroke:#dd8a3d;stroke-width:109.23953247;stroke-linecap:round;stroke-linejoin:miter;marker:none;marker-start:none;marker-mid:none;marker-end:none;stroke-miterlimit:4;stroke-dashoffset:0;stroke-opacity:1;visibility:visible;display:block"
           d="M 60.321717,411.99998 L 437.33633,411.99998"
           id="path4722"
           transform="matrix(0.240856,0.12287,-0.12287,0.240856,101.5762,778.871)" />
        <path
           style="color:black;fill:white;fill-opacity:1;fill-rule:nonzero;stroke:#ffdb6b;stroke-width:109.23950958;stroke-linecap:round;stroke-linejoin:miter;marker:none;marker-start:none;marker-mid:none;marker-end:none;stroke-miterlimit:4;stroke-dashoffset:0;stroke-opacity:1;visibility:visible;display:block"
           d="M 252.61203,788.60332 L 252.61203,411.59154"
           id="path4724"
           transform="matrix(0.240856,0.12287,-0.12287,0.240856,101.5762,778.871)" />
        <path
           style="color:black;fill:#69312f;fill-opacity:1;fill-rule:nonzero;stroke:#69312f;stroke-width:109.23951721;stroke-linecap:round;stroke-linejoin:miter;marker:none;marker-start:none;marker-mid:none;marker-end:none;stroke-miterlimit:4;stroke-dashoffset:0;stroke-opacity:1;visibility:visible;display:block"
           d="M 252.86937,597.15755 L 629.88177,597.15755"
           id="path4726"
           transform="matrix(0.240856,0.12287,-0.12287,0.240856,101.5762,778.871)" />
        <path
           style="color:black;fill:white;fill-opacity:1;fill-rule:nonzero;stroke:#c63;stroke-width:109.23950195;stroke-linecap:round;stroke-linejoin:miter;marker:none;marker-start:none;marker-mid:none;marker-end:none;stroke-miterlimit:4;stroke-dashoffset:0;stroke-opacity:1;visibility:visible;display:block"
           d="M 437.45588,596.97447 L 437.45588,219.95956"
           id="path4728"
           transform="matrix(0.240856,0.12287,-0.12287,0.240856,101.5762,778.871)" />
        <path
           style="color:black;fill:#69312f;fill-opacity:1;fill-rule:nonzero;stroke:#dd8a3d;stroke-width:109.23947906;stroke-linecap:round;stroke-linejoin:miter;marker:none;marker-start:none;marker-mid:none;marker-end:none;stroke-miterlimit:4;stroke-dashoffset:0;stroke-opacity:1;visibility:visible;display:block"
           d="M 372.87905,411.27704 L 437.81346,411.27704"
           id="path4730"
           transform="matrix(0.240856,0.12287,-0.12287,0.240856,101.5762,778.871)" />
      </g>
      <path
         inkscape:export-ydpi="90"
         inkscape:export-xdpi="90"
         inkscape:export-filename="/home/vjrj/proyectos/ourproject.org/documentos/fsm-virtual/kune-logo.png"
         id="path4766"
         d="M 278.7546,778.41609 C 278.39498,778.41609 278.04933,778.41736 277.70246,778.44001 C 277.67009,778.4466 277.63939,778.45783 277.60682,778.46392 C 277.28394,778.52422 276.96537,778.57565 276.62643,778.58347 C 276.57947,778.59006 276.52965,778.57644 276.48295,778.58347 C 273.7165,778.99997 271.37912,780.20117 269.50064,782.1942 C 267.30689,784.51104 266.20078,787.28654 266.20077,790.51559 C 266.20077,793.78086 267.3069,796.57522 269.50064,798.8848 C 271.87536,801.37538 274.96079,802.61507 278.7546,802.61508 C 280.76732,802.61507 282.70232,802.11499 284.54131,801.10862 C 286.38026,800.13122 287.97923,798.74785 289.34763,796.99576 L 285.21084,794.7002 C 283.42977,797.07493 281.24145,798.26309 278.63504,798.26309 C 276.82501,798.26309 275.20212,797.67593 273.80481,796.51751 C 272.38574,795.3591 271.67662,793.94811 271.67664,792.26117 L 290.59106,792.26117 L 290.59106,791.30468 C 290.59103,787.21406 289.20547,783.93847 286.45428,781.47683 C 284.13743,779.42792 281.57097,778.41613 278.7546,778.41609 z M 190.8061,778.58347 L 190.8061,787.74179 L 187.60189,787.74179 L 187.60189,792.42855 L 190.8061,792.42855 L 190.8061,801.99337 L 195.68416,801.99337 L 195.68416,792.42855 L 198.62534,792.42855 L 204.62726,801.99337 L 210.41398,801.99337 L 202.35562,789.84605 L 210.0553,779.03781 L 204.14902,779.03781 L 198.19493,787.74179 L 195.68416,787.74179 L 195.68416,778.58347 L 190.8061,778.58347 z M 250.65794,778.58347 C 249.81822,778.73335 249.03579,778.97728 248.31456,779.34866 C 247.09823,780.00029 246.13796,780.85966 245.42121,781.93116 L 245.42121,779.03781 L 240.51924,779.03781 L 240.51924,801.99337 L 245.42121,801.99337 L 245.42121,789.12869 C 245.4212,787.28973 245.94015,785.87873 246.9755,784.87234 C 248.01805,783.866 249.33976,783.3659 250.9688,783.36589 C 252.69192,783.3659 254.03754,783.82827 254.98602,784.7767 C 255.93445,785.72516 256.3968,787.21161 256.39683,789.22434 L 256.39683,801.99337 L 261.2988,801.99337 L 261.2988,788.1483 C 261.29878,785.33192 260.43941,783.00497 258.7163,781.16598 C 257.42394,779.78677 255.92858,778.92829 254.22084,778.58347 L 250.65794,778.58347 z M 213.49863,779.03781 L 213.49863,792.3329 C 213.49862,795.44614 214.54816,797.96325 216.65502,799.88911 C 218.60984,801.69913 221.03111,802.61507 223.87646,802.61508 C 226.75075,802.61507 229.15974,801.69913 231.1218,799.88911 C 233.22864,797.96325 234.27817,795.44614 234.27819,792.3329 L 234.27819,779.03781 L 229.37623,779.03781 L 229.37623,791.90249 C 229.3762,793.59666 228.85726,794.97498 227.82195,796.03927 C 226.7504,797.13976 225.44754,797.6892 223.87646,797.6892 C 222.36327,797.68921 221.05032,797.13253 219.97879,796.03927 C 218.9145,794.93879 218.40058,793.56771 218.4006,791.90249 L 218.4006,779.03781 L 213.49863,779.03781 z M 278.13288,782.81591 C 279.73292,782.81594 281.1301,783.26448 282.31749,784.15499 C 283.46864,785.06724 284.31639,786.39622 284.85216,788.1483 L 271.67664,788.1483 C 272.06035,786.46138 272.85654,785.15127 274.04393,784.20281 C 275.19508,783.28334 276.55454,782.81594 278.13288,782.81591 z "
         style="font-size:58.13353348px;font-style:normal;font-variant:normal;font-weight:normal;font-stretch:normal;line-height:100%;writing-mode:lr-tb;text-anchor:start;fill:#a56941;fill-opacity:1;stroke:none;stroke-width:1pt;stroke-linecap:butt;stroke-linejoin:miter;stroke-opacity:1;font-family:Emblem" />
    </g>
    <g
       id="g7182"
       transform="matrix(0.64908,0,0,0.64908,234.5008,109.7477)"
       inkscape:export-filename="/home/vjrj/proyectos/ourproject.org/documentos/fsm-virtual/kune-arch-0.1.png"
       inkscape:export-xdpi="240"
       inkscape:export-ydpi="240">
      <g
         transform="translate(-2.385332,4.770664)"
         id="g7173">
        <g
           transform="matrix(0.3688,0,0,0.3688,-188.5,-224.5906)"
           id="g7361">
          <path
             transform="matrix(0.240856,0.12287,-0.12287,0.240856,101.5762,778.871)"
             id="path7363"
             d="M 60.321717,411.99998 L 437.33633,411.99998"
             style="color:black;fill:#69312f;fill-opacity:1;fill-rule:nonzero;stroke:#dd8a3d;stroke-width:109.23953247;stroke-linecap:round;stroke-linejoin:miter;marker:none;marker-start:none;marker-mid:none;marker-end:none;stroke-miterlimit:4;stroke-dashoffset:0;stroke-opacity:1;visibility:visible;display:block" />
          <path
             transform="matrix(0.240856,0.12287,-0.12287,0.240856,101.5762,778.871)"
             id="path7365"
             d="M 252.61203,788.60332 L 252.61203,411.59154"
             style="color:black;fill:white;fill-opacity:1;fill-rule:nonzero;stroke:#ffdb6b;stroke-width:109.23950958;stroke-linecap:round;stroke-linejoin:miter;marker:none;marker-start:none;marker-mid:none;marker-end:none;stroke-miterlimit:4;stroke-dashoffset:0;stroke-opacity:1;visibility:visible;display:block" />
          <path
             transform="matrix(0.240856,0.12287,-0.12287,0.240856,101.5762,778.871)"
             id="path7367"
             d="M 252.86937,597.15755 L 629.88177,597.15755"
             style="color:black;fill:#69312f;fill-opacity:1;fill-rule:nonzero;stroke:#69312f;stroke-width:109.23951721;stroke-linecap:round;stroke-linejoin:miter;marker:none;marker-start:none;marker-mid:none;marker-end:none;stroke-miterlimit:4;stroke-dashoffset:0;stroke-opacity:1;visibility:visible;display:block" />
          <path
             transform="matrix(0.240856,0.12287,-0.12287,0.240856,101.5762,778.871)"
             id="path7369"
             d="M 437.45588,596.97447 L 437.45588,219.95956"
             style="color:black;fill:white;fill-opacity:1;fill-rule:nonzero;stroke:#c63;stroke-width:109.23950195;stroke-linecap:round;stroke-linejoin:miter;marker:none;marker-start:none;marker-mid:none;marker-end:none;stroke-miterlimit:4;stroke-dashoffset:0;stroke-opacity:1;visibility:visible;display:block" />
          <path
             transform="matrix(0.240856,0.12287,-0.12287,0.240856,101.5762,778.871)"
             id="path7371"
             d="M 372.87905,411.27704 L 437.81346,411.27704"
             style="color:black;fill:#69312f;fill-opacity:1;fill-rule:nonzero;stroke:#dd8a3d;stroke-width:109.23947906;stroke-linecap:round;stroke-linejoin:miter;marker:none;marker-start:none;marker-mid:none;marker-end:none;stroke-miterlimit:4;stroke-dashoffset:0;stroke-opacity:1;visibility:visible;display:block" />
        </g>
        <path
           style="font-size:58.13353348px;font-style:normal;font-variant:normal;font-weight:normal;font-stretch:normal;line-height:100%;writing-mode:lr-tb;text-anchor:start;fill:#a56941;fill-opacity:1;stroke:none;stroke-width:1pt;stroke-linecap:butt;stroke-linejoin:miter;stroke-opacity:1;font-family:Emblem"
           d="M -20.704789,96.645148 C -21.064409,96.645148 -21.410059,96.646418 -21.756929,96.669068 C -21.789299,96.675658 -21.819999,96.686888 -21.852569,96.692978 C -22.175449,96.753278 -22.494019,96.804708 -22.832959,96.812528 C -22.879919,96.819118 -22.929739,96.805498 -22.976439,96.812528 C -25.742889,97.229028 -28.080269,98.430228 -29.958749,100.42326 C -32.152499,102.7401 -33.258609,105.5156 -33.258619,108.74465 C -33.258619,112.00992 -32.152489,114.80428 -29.958749,117.11386 C -27.584029,119.60444 -24.498599,120.84413 -20.704789,120.84414 C -18.692069,120.84413 -16.757069,120.34405 -14.918079,119.33768 C -13.079129,118.36028 -11.480159,116.97691 -10.111759,115.22482 L -14.248549,112.92926 C -16.029619,115.30399 -18.217939,116.49215 -20.824349,116.49215 C -22.634379,116.49215 -24.257269,115.90499 -25.654579,114.74657 C -27.073649,113.58816 -27.782769,112.17717 -27.782749,110.49023 L -8.8683294,110.49023 L -8.8683294,109.53374 C -8.8683594,105.44312 -10.253919,102.16753 -13.005109,99.705888 C -15.321959,97.656978 -17.888419,96.645188 -20.704789,96.645148 z M -108.65329,96.812528 L -108.65329,105.97085 L -111.8575,105.97085 L -111.8575,110.65761 L -108.65329,110.65761 L -108.65329,120.22243 L -103.77523,120.22243 L -103.77523,110.65761 L -100.83405,110.65761 L -94.832129,120.22243 L -89.045409,120.22243 L -97.103769,108.07511 L -89.404089,97.266868 L -95.310369,97.266868 L -101.26446,105.97085 L -103.77523,105.97085 L -103.77523,96.812528 L -108.65329,96.812528 z M -48.801449,96.812528 C -49.641169,96.962408 -50.423599,97.206338 -51.144829,97.577718 C -52.361159,98.229348 -53.321429,99.088718 -54.038179,100.16022 L -54.038179,97.266868 L -58.940149,97.266868 L -58.940149,120.22243 L -54.038179,120.22243 L -54.038179,107.35775 C -54.038189,105.51879 -53.519239,104.10779 -52.483889,103.1014 C -51.441339,102.09506 -50.119629,101.59496 -48.490589,101.59495 C -46.767469,101.59496 -45.421849,102.05733 -44.473369,103.00576 C -43.524939,103.95422 -43.062589,105.44067 -43.062559,107.4534 L -43.062559,120.22243 L -38.160589,120.22243 L -38.160589,106.37736 C -38.160609,103.56098 -39.019979,101.23403 -40.743089,99.395038 C -42.035449,98.015828 -43.530809,97.157348 -45.238549,96.812528 L -48.801449,96.812528 z M -85.960759,97.266868 L -85.960759,110.56196 C -85.960769,113.6752 -84.911229,116.19231 -82.804369,118.11817 C -80.849549,119.92819 -78.428279,120.84413 -75.582929,120.84414 C -72.708639,120.84413 -70.299649,119.92819 -68.337589,118.11817 C -66.230749,116.19231 -65.181219,113.6752 -65.181199,110.56196 L -65.181199,97.266868 L -70.083159,97.266868 L -70.083159,110.13155 C -70.083189,111.82572 -70.602129,113.20404 -71.637439,114.26833 C -72.708989,115.36882 -74.011849,115.91826 -75.582929,115.91826 C -77.096119,115.91827 -78.409069,115.36159 -79.480599,114.26833 C -80.544889,113.16785 -81.058809,111.79677 -81.058789,110.13155 L -81.058789,97.266868 L -85.960759,97.266868 z M -21.326509,101.04497 C -19.726469,101.045 -18.329289,101.49354 -17.141899,102.38405 C -15.990749,103.2963 -15.142999,104.62528 -14.607229,106.37736 L -27.782749,106.37736 C -27.399039,104.69044 -26.602849,103.38033 -25.415459,102.43187 C -24.264309,101.5124 -22.904849,101.045 -21.326509,101.04497 z "
           id="path7373"
           inkscape:export-filename="/home/vjrj/proyectos/ourproject.org/documentos/fsm-virtual/kune-logo.png"
           inkscape:export-xdpi="90"
           inkscape:export-ydpi="90" />
      </g>
      <text
         sodipodi:linespacing="100%"
         id="text7149"
         y="141.60875"
         x="-112.3018"
         style="font-size:13.38996029px;font-style:normal;font-variant:normal;font-weight:normal;font-stretch:normal;line-height:100%;writing-mode:lr-tb;text-anchor:start;fill:#dd8a3d;fill-opacity:1;stroke:none;stroke-width:1pt;stroke-linecap:butt;stroke-linejoin:miter;stroke-opacity:1;font-family:Emblem"
         xml:space="preserve"><tspan
           y="141.60875"
           x="-112.3018"
           id="tspan7151"
           sodipodi:role="line">libre/free projects</tspan><tspan
           y="154.99871"
           x="-112.3018"
           sodipodi:role="line"
           id="tspan7153">collaborative platform</tspan></text>
    </g>
    <path
       style="opacity:1;color:black;fill:none;fill-opacity:1;fill-rule:nonzero;stroke:#dc5f01;stroke-width:1.99999976;stroke-linecap:butt;stroke-linejoin:miter;marker:none;marker-start:none;marker-mid:none;marker-end:none;stroke-miterlimit:4;stroke-dasharray:none;stroke-dashoffset:0;stroke-opacity:1;visibility:visible;display:inline;overflow:visible"
       d="M 148.8919,267.4272 C 161.99966,267.4272 168.97012,250.16033 180.69406,244.29836 C 189.19763,240.04658 187.92182,239.7468 187.92182,251.52613 C 187.92182,263.69491 191.14411,263.09055 203.8229,263.09055 C 217.89191,263.09055 225.16259,247.53306 234.1795,238.51615 C 235.62505,237.0706 237.0706,235.62505 238.51615,234.1795 C 241.88911,230.80654 243.86494,244.29836 248.63502,244.29836 C 251.86737,244.29836 254.41723,241.40726 257.30834,239.96171 C 263.6729,236.77943 255.86278,255.25625 255.86278,265.98165 C 255.86278,278.06988 273.3863,300.58647 284.77383,294.8927 C 291.59303,291.4831 305.53611,275.22627 309.34822,268.87276 C 311.28446,265.64569 312.81261,277.54607 316.57599,277.54607 C 323.31544,277.54607 335.7711,265.57872 339.70483,261.64499"
       id="path7380" />
    <path
       style="opacity:1;color:black;fill:none;fill-opacity:1;fill-rule:nonzero;stroke:#dc5f01;stroke-width:1.99999976;stroke-linecap:butt;stroke-linejoin:miter;marker:none;marker-start:none;marker-mid:none;marker-end:none;stroke-miterlimit:4;stroke-dasharray:none;stroke-dashoffset:0;stroke-opacity:1;visibility:visible;display:inline;overflow:visible"
       d="M 156.11966,261.64499 C 158.04707,261.64499 158.04707,261.64499 156.11966,261.64499 C 105.22308,261.64499 203.38647,252.97168 213.94176,252.97168 C 245.61975,252.97168 274.60153,248.63502 305.01157,248.63502 C 319.9219,248.63502 316.72892,252.97168 306.45712,252.97168"
       id="path8267" />
    <path
       style="opacity:1;color:black;fill:none;fill-opacity:1;fill-rule:nonzero;stroke:#dc5f01;stroke-width:1.99999976;stroke-linecap:butt;stroke-linejoin:miter;marker:none;marker-start:none;marker-mid:none;marker-end:none;stroke-miterlimit:4;stroke-dasharray:none;stroke-dashoffset:0;stroke-opacity:1;visibility:visible;display:inline;overflow:visible"
       d="M 183.58516,265.98165 C 214.96524,265.98165 259.98717,265.98165 296.33825,265.98165 C 317.93833,265.98165 346.11383,269.08169 362.83366,274.65497"
       id="path8269" />
    <path
       style="opacity:1;color:black;fill:none;fill-opacity:1;fill-rule:nonzero;stroke:#dc5f01;stroke-width:1.99999976;stroke-linecap:butt;stroke-linejoin:miter;marker:none;marker-start:none;marker-mid:none;marker-end:none;stroke-miterlimit:4;stroke-dasharray:none;stroke-dashoffset:0;stroke-opacity:1;visibility:visible;display:inline;overflow:visible"
       d="M 157.56522,281.88273 C 159.49262,281.88273 159.49262,281.88273 157.56522,281.88273 C 134.83668,281.88273 194.62357,281.88273 212.49621,281.88273 C 239.47986,281.88273 266.4635,281.88273 293.44715,281.88273 C 293.929,281.88273 294.41085,281.88273 294.8927,281.88273"
       id="path8271" />
    <path
       style="opacity:1;color:black;fill:none;fill-opacity:1;fill-rule:nonzero;stroke:#dc5f01;stroke-width:1.99999976;stroke-linecap:butt;stroke-linejoin:miter;marker:none;marker-start:none;marker-mid:none;marker-end:none;stroke-miterlimit:4;stroke-dasharray:none;stroke-dashoffset:0;stroke-opacity:1;visibility:visible;display:inline;overflow:visible"
       d="M 143.10969,235.62505 C 152.1417,235.62505 167.67218,231.28839 182.13961,231.28839 C 204.31188,231.28839 239.93322,234.88803 258.75389,244.29836 C 262.00256,245.9227 262.84756,245.1171 265.98165,245.74392"
       id="path8273" />
    <g
       id="g5064"
       inkscape:export-filename="/home/vjrj/proyectos/ourproject.org/kune/svn/trunk/img/kune-logo-16px.png"
       inkscape:export-xdpi="90"
       inkscape:export-ydpi="90">
      <path
         inkscape:export-ydpi="90"
         inkscape:export-xdpi="90"
         inkscape:export-filename="/home/vjrj/proyectos/ourproject.org/kune/svn/trunk/img/kune-logo-16px.png"
         id="path5050"
         d="M 206.0077,119.17481 C 205.76991,119.17481 205.54137,119.17568 205.31203,119.19062 C 205.29064,119.19501 205.27034,119.20243 205.24879,119.20643 C 205.0353,119.24634 204.82469,119.28034 204.60059,119.28548 C 204.56951,119.28987 204.5366,119.28083 204.50573,119.28548 C 202.67658,119.56085 201.13114,120.35507 199.88911,121.67284 C 198.43868,123.2047 197.70733,125.03981 197.70733,127.17481 C 197.70733,129.33374 198.43868,131.1813 199.88911,132.70839 C 201.45924,134.35508 203.49928,135.17475 206.0077,135.17475 C 207.33847,135.17475 208.61786,134.8441 209.83374,134.17874 C 211.04962,133.5325 212.10686,132.61781 213.01164,131.45938 L 210.27646,129.9416 C 209.09881,131.51173 207.65196,132.29729 205.92865,132.29729 C 204.73189,132.29729 203.65884,131.90909 202.73495,131.14319 C 201.79671,130.37723 201.32784,129.4443 201.32784,128.32897 L 213.83374,128.32897 L 213.83374,127.69653 C 213.83374,124.99189 212.91759,122.82613 211.09856,121.19855 C 209.56671,119.8438 207.86983,119.17481 206.0077,119.17481 z M 147.85769,119.28548 L 147.85769,125.34078 L 145.73909,125.34078 L 145.73909,128.43963 L 147.85769,128.43963 L 147.85769,134.7637 L 151.08296,134.7637 L 151.08296,128.43963 L 153.0276,128.43963 L 156.99598,134.7637 L 160.82207,134.7637 L 155.49401,126.73209 L 160.58492,119.58586 L 156.67978,119.58586 L 152.74302,125.34078 L 151.08296,125.34078 L 151.08296,119.28548 L 147.85769,119.28548 z M 187.43069,119.28548 C 186.87546,119.38456 186.35813,119.54585 185.88129,119.79144 C 185.07706,120.22226 184.44213,120.79048 183.96822,121.49894 L 183.96822,119.58586 L 180.72714,119.58586 L 180.72714,134.7637 L 183.96822,134.7637 L 183.96822,126.2578 C 183.96822,125.04192 184.31132,124.10899 184.9959,123.44358 C 185.68524,122.77822 186.5591,122.44757 187.63622,122.44751 C 188.77548,122.44757 189.66521,122.75326 190.29234,123.38034 C 190.91942,124.00747 191.22511,124.99027 191.22511,126.32103 L 191.22511,134.7637 L 194.46624,134.7637 L 194.46624,125.6096 C 194.46619,123.74742 193.89802,122.20891 192.7587,120.99298 C 191.90422,120.08111 190.91552,119.51348 189.78638,119.28548 L 187.43069,119.28548 z M 162.86156,119.58586 L 162.86156,128.37639 C 162.86156,130.43479 163.55551,132.09907 164.94854,133.3724 C 166.24103,134.56916 167.84192,135.17475 169.72321,135.17475 C 171.62367,135.17475 173.21643,134.56916 174.51374,133.3724 C 175.90672,132.09907 176.60067,130.43479 176.60067,128.37639 L 176.60067,119.58586 L 173.35959,119.58586 L 173.35959,128.09177 C 173.35953,129.21192 173.01643,130.12325 172.33191,130.82694 C 171.6234,131.55456 170.76199,131.91786 169.72321,131.91786 C 168.72271,131.91786 167.85464,131.5498 167.14613,130.82694 C 166.44244,130.09932 166.10264,129.19281 166.1027,128.09177 L 166.1027,119.58586 L 162.86156,119.58586 z M 205.5966,122.08389 C 206.65454,122.08389 207.57832,122.38049 208.36339,122.96929 C 209.12453,123.57243 209.68506,124.45111 210.03932,125.6096 L 201.32784,125.6096 C 201.58155,124.49421 202.10798,123.62798 202.89304,123.00091 C 203.65418,122.39294 204.55306,122.08389 205.5966,122.08389 z "
         style="font-size:58.13353348px;font-style:normal;font-variant:normal;font-weight:normal;font-stretch:normal;line-height:100%;writing-mode:lr-tb;text-anchor:start;fill:#a56941;fill-opacity:1;stroke:none;stroke-width:1pt;stroke-linecap:butt;stroke-linejoin:miter;stroke-opacity:1;font-family:Emblem" />
      <g
         inkscape:export-ydpi="90"
         inkscape:export-xdpi="90"
         inkscape:export-filename="/home/vjrj/proyectos/ourproject.org/kune/svn/trunk/img/kune-logo-16px.png"
         transform="matrix(0.1111494,0,0,0.111008,121.5678,22.515968)"
         id="g5052">
        <path
           transform="matrix(0.240856,0.12287,-0.12287,0.240856,101.5762,778.871)"
           id="path5054"
           d="M 60.321717,411.99998 L 437.33633,411.99998"
           style="color:#000000;fill:#69312f;fill-opacity:1;fill-rule:nonzero;stroke:#dd8a3d;stroke-width:109.23953247;stroke-linecap:round;stroke-linejoin:miter;marker:none;marker-start:none;marker-mid:none;marker-end:none;stroke-miterlimit:4;stroke-dashoffset:0;stroke-opacity:1;visibility:visible;display:block" />
        <path
           transform="matrix(0.240856,0.12287,-0.12287,0.240856,101.5762,778.871)"
           id="path5056"
           d="M 252.61203,788.60332 L 252.61203,411.59154"
           style="color:#000000;fill:#ffffff;fill-opacity:1;fill-rule:nonzero;stroke:#ffdb6b;stroke-width:109.23950958;stroke-linecap:round;stroke-linejoin:miter;marker:none;marker-start:none;marker-mid:none;marker-end:none;stroke-miterlimit:4;stroke-dashoffset:0;stroke-opacity:1;visibility:visible;display:block" />
        <path
           transform="matrix(0.240856,0.12287,-0.12287,0.240856,101.5762,778.871)"
           id="path5058"
           d="M 252.86937,597.15755 L 629.88177,597.15755"
           style="color:#000000;fill:#69312f;fill-opacity:1;fill-rule:nonzero;stroke:#69312f;stroke-width:109.23951721;stroke-linecap:round;stroke-linejoin:miter;marker:none;marker-start:none;marker-mid:none;marker-end:none;stroke-miterlimit:4;stroke-dashoffset:0;stroke-opacity:1;visibility:visible;display:block" />
        <path
           transform="matrix(0.240856,0.12287,-0.12287,0.240856,101.5762,778.871)"
           id="path5060"
           d="M 437.45588,596.97447 L 437.45588,219.95956"
           style="color:#000000;fill:#ffffff;fill-opacity:1;fill-rule:nonzero;stroke:#cc6633;stroke-width:109.23950195;stroke-linecap:round;stroke-linejoin:miter;marker:none;marker-start:none;marker-mid:none;marker-end:none;stroke-miterlimit:4;stroke-dashoffset:0;stroke-opacity:1;visibility:visible;display:block" />
        <path
           transform="matrix(0.240856,0.12287,-0.12287,0.240856,101.5762,778.871)"
           id="path5062"
           d="M 372.87905,411.27704 L 437.81346,411.27704"
           style="color:#000000;fill:#69312f;fill-opacity:1;fill-rule:nonzero;stroke:#dd8a3d;stroke-width:109.23947906;stroke-linecap:round;stroke-linejoin:miter;marker:none;marker-start:none;marker-mid:none;marker-end:none;stroke-miterlimit:4;stroke-dashoffset:0;stroke-opacity:1;visibility:visible;display:block" />
      </g>
    </g>
    <g
       id="g2258"
       transform="matrix(1.3893674,0,0,1.3875994,418.58885,-1165.2477)"
       inkscape:export-filename="/home/vjrj/proyectos/ourproject.org/kune/svn/trunk/img/kune-logo-without-text.png"
       inkscape:export-xdpi="90"
       inkscape:export-ydpi="90">
      <path
         style="color:#000000;fill:#69312f;fill-opacity:1;fill-rule:nonzero;stroke:#dd8a3d;stroke-width:109.23953247;stroke-linecap:round;stroke-linejoin:miter;marker:none;marker-start:none;marker-mid:none;marker-end:none;stroke-miterlimit:4;stroke-dashoffset:0;stroke-opacity:1;visibility:visible;display:block"
         d="M 60.321717,411.99998 L 437.33633,411.99998"
         id="path2260"
         transform="matrix(0.240856,0.12287,-0.12287,0.240856,101.5762,778.871)" />
      <path
         style="color:#000000;fill:#ffffff;fill-opacity:1;fill-rule:nonzero;stroke:#ffdb6b;stroke-width:109.23950958;stroke-linecap:round;stroke-linejoin:miter;marker:none;marker-start:none;marker-mid:none;marker-end:none;stroke-miterlimit:4;stroke-dashoffset:0;stroke-opacity:1;visibility:visible;display:block"
         d="M 252.61203,788.60332 L 252.61203,411.59154"
         id="path2262"
         transform="matrix(0.240856,0.12287,-0.12287,0.240856,101.5762,778.871)" />
      <path
         style="color:#000000;fill:#69312f;fill-opacity:1;fill-rule:nonzero;stroke:#69312f;stroke-width:109.23951721;stroke-linecap:round;stroke-linejoin:miter;marker:none;marker-start:none;marker-mid:none;marker-end:none;stroke-miterlimit:4;stroke-dashoffset:0;stroke-opacity:1;visibility:visible;display:block"
         d="M 252.86937,597.15755 L 629.88177,597.15755"
         id="path2264"
         transform="matrix(0.240856,0.12287,-0.12287,0.240856,101.5762,778.871)" />
      <path
         style="color:#000000;fill:#ffffff;fill-opacity:1;fill-rule:nonzero;stroke:#cc6633;stroke-width:109.23950195;stroke-linecap:round;stroke-linejoin:miter;marker:none;marker-start:none;marker-mid:none;marker-end:none;stroke-miterlimit:4;stroke-dashoffset:0;stroke-opacity:1;visibility:visible;display:block"
         d="M 437.45588,596.97447 L 437.45588,219.95956"
         id="path2266"
         transform="matrix(0.240856,0.12287,-0.12287,0.240856,101.5762,778.871)" />
      <path
         style="color:#000000;fill:#69312f;fill-opacity:1;fill-rule:nonzero;stroke:#dd8a3d;stroke-width:109.23947906;stroke-linecap:round;stroke-linejoin:miter;marker:none;marker-start:none;marker-mid:none;marker-end:none;stroke-miterlimit:4;stroke-dashoffset:0;stroke-opacity:1;visibility:visible;display:block"
         d="M 372.87905,411.27704 L 437.81346,411.27704"
         id="path2268"
         transform="matrix(0.240856,0.12287,-0.12287,0.240856,101.5762,778.871)" />
    </g>
    <g
       id="g2285"
       inkscape:export-filename="/home/vjrj/proyectos/ourproject.org/kune/svn/trunk/img/logo-kune-wiki-16.png"
       inkscape:export-xdpi="90"
       inkscape:export-ydpi="90">
      <g
         transform="translate(404.1233,229.24298)"
         inkscape:export-ydpi="90"
         inkscape:export-xdpi="90"
         inkscape:export-filename="/home/vjrj/proyectos/ourproject.org/kune/svn/trunk/img/kune-logo-16px.png"
         id="g2264">
        <path
           style="font-size:58.13353348px;font-style:normal;font-variant:normal;font-weight:normal;font-stretch:normal;line-height:100%;writing-mode:lr-tb;text-anchor:start;fill:#a56941;fill-opacity:1;stroke:none;stroke-width:1pt;stroke-linecap:butt;stroke-linejoin:miter;stroke-opacity:1;font-family:Emblem"
           d="M 206.0077,119.17481 C 205.76991,119.17481 205.54137,119.17568 205.31203,119.19062 C 205.29064,119.19501 205.27034,119.20243 205.24879,119.20643 C 205.0353,119.24634 204.82469,119.28034 204.60059,119.28548 C 204.56951,119.28987 204.5366,119.28083 204.50573,119.28548 C 202.67658,119.56085 201.13114,120.35507 199.88911,121.67284 C 198.43868,123.2047 197.70733,125.03981 197.70733,127.17481 C 197.70733,129.33374 198.43868,131.1813 199.88911,132.70839 C 201.45924,134.35508 203.49928,135.17475 206.0077,135.17475 C 207.33847,135.17475 208.61786,134.8441 209.83374,134.17874 C 211.04962,133.5325 212.10686,132.61781 213.01164,131.45938 L 210.27646,129.9416 C 209.09881,131.51173 207.65196,132.29729 205.92865,132.29729 C 204.73189,132.29729 203.65884,131.90909 202.73495,131.14319 C 201.79671,130.37723 201.32784,129.4443 201.32784,128.32897 L 213.83374,128.32897 L 213.83374,127.69653 C 213.83374,124.99189 212.91759,122.82613 211.09856,121.19855 C 209.56671,119.8438 207.86983,119.17481 206.0077,119.17481 z M 147.85769,119.28548 L 147.85769,125.34078 L 145.73909,125.34078 L 145.73909,128.43963 L 147.85769,128.43963 L 147.85769,134.7637 L 151.08296,134.7637 L 151.08296,128.43963 L 153.0276,128.43963 L 156.99598,134.7637 L 160.82207,134.7637 L 155.49401,126.73209 L 160.58492,119.58586 L 156.67978,119.58586 L 152.74302,125.34078 L 151.08296,125.34078 L 151.08296,119.28548 L 147.85769,119.28548 z M 187.43069,119.28548 C 186.87546,119.38456 186.35813,119.54585 185.88129,119.79144 C 185.07706,120.22226 184.44213,120.79048 183.96822,121.49894 L 183.96822,119.58586 L 180.72714,119.58586 L 180.72714,134.7637 L 183.96822,134.7637 L 183.96822,126.2578 C 183.96822,125.04192 184.31132,124.10899 184.9959,123.44358 C 185.68524,122.77822 186.5591,122.44757 187.63622,122.44751 C 188.77548,122.44757 189.66521,122.75326 190.29234,123.38034 C 190.91942,124.00747 191.22511,124.99027 191.22511,126.32103 L 191.22511,134.7637 L 194.46624,134.7637 L 194.46624,125.6096 C 194.46619,123.74742 193.89802,122.20891 192.7587,120.99298 C 191.90422,120.08111 190.91552,119.51348 189.78638,119.28548 L 187.43069,119.28548 z M 162.86156,119.58586 L 162.86156,128.37639 C 162.86156,130.43479 163.55551,132.09907 164.94854,133.3724 C 166.24103,134.56916 167.84192,135.17475 169.72321,135.17475 C 171.62367,135.17475 173.21643,134.56916 174.51374,133.3724 C 175.90672,132.09907 176.60067,130.43479 176.60067,128.37639 L 176.60067,119.58586 L 173.35959,119.58586 L 173.35959,128.09177 C 173.35953,129.21192 173.01643,130.12325 172.33191,130.82694 C 171.6234,131.55456 170.76199,131.91786 169.72321,131.91786 C 168.72271,131.91786 167.85464,131.5498 167.14613,130.82694 C 166.44244,130.09932 166.10264,129.19281 166.1027,128.09177 L 166.1027,119.58586 L 162.86156,119.58586 z M 205.5966,122.08389 C 206.65454,122.08389 207.57832,122.38049 208.36339,122.96929 C 209.12453,123.57243 209.68506,124.45111 210.03932,125.6096 L 201.32784,125.6096 C 201.58155,124.49421 202.10798,123.62798 202.89304,123.00091 C 203.65418,122.39294 204.55306,122.08389 205.5966,122.08389 z "
           id="path2267"
           inkscape:export-filename="/home/vjrj/proyectos/ourproject.org/kune/svn/trunk/img/kune-logo-16px.png"
           inkscape:export-xdpi="90"
           inkscape:export-ydpi="90" />
        <g
           id="g2269"
           transform="matrix(0.1111494,0,0,0.111008,121.5678,22.515968)"
           inkscape:export-filename="/home/vjrj/proyectos/ourproject.org/kune/svn/trunk/img/kune-logo-16px.png"
           inkscape:export-xdpi="90"
           inkscape:export-ydpi="90">
          <path
             style="color:#000000;fill:#69312f;fill-opacity:1;fill-rule:nonzero;stroke:#dd8a3d;stroke-width:109.23953247;stroke-linecap:round;stroke-linejoin:miter;marker:none;marker-start:none;marker-mid:none;marker-end:none;stroke-miterlimit:4;stroke-dashoffset:0;stroke-opacity:1;visibility:visible;display:block"
             d="M 60.321717,411.99998 L 437.33633,411.99998"
             id="path2271"
             transform="matrix(0.240856,0.12287,-0.12287,0.240856,101.5762,778.871)" />
          <path
             style="color:#000000;fill:#ffffff;fill-opacity:1;fill-rule:nonzero;stroke:#ffdb6b;stroke-width:109.23950958;stroke-linecap:round;stroke-linejoin:miter;marker:none;marker-start:none;marker-mid:none;marker-end:none;stroke-miterlimit:4;stroke-dashoffset:0;stroke-opacity:1;visibility:visible;display:block"
             d="M 252.61203,788.60332 L 252.61203,411.59154"
             id="path2273"
             transform="matrix(0.240856,0.12287,-0.12287,0.240856,101.5762,778.871)" />
          <path
             style="color:#000000;fill:#69312f;fill-opacity:1;fill-rule:nonzero;stroke:#69312f;stroke-width:109.23951721;stroke-linecap:round;stroke-linejoin:miter;marker:none;marker-start:none;marker-mid:none;marker-end:none;stroke-miterlimit:4;stroke-dashoffset:0;stroke-opacity:1;visibility:visible;display:block"
             d="M 252.86937,597.15755 L 629.88177,597.15755"
             id="path2275"
             transform="matrix(0.240856,0.12287,-0.12287,0.240856,101.5762,778.871)" />
          <path
             style="color:#000000;fill:#ffffff;fill-opacity:1;fill-rule:nonzero;stroke:#cc6633;stroke-width:109.23950195;stroke-linecap:round;stroke-linejoin:miter;marker:none;marker-start:none;marker-mid:none;marker-end:none;stroke-miterlimit:4;stroke-dashoffset:0;stroke-opacity:1;visibility:visible;display:block"
             d="M 437.45588,596.97447 L 437.45588,219.95956"
             id="path2277"
             transform="matrix(0.240856,0.12287,-0.12287,0.240856,101.5762,778.871)" />
          <path
             style="color:#000000;fill:#69312f;fill-opacity:1;fill-rule:nonzero;stroke:#dd8a3d;stroke-width:109.23947906;stroke-linecap:round;stroke-linejoin:miter;marker:none;marker-start:none;marker-mid:none;marker-end:none;stroke-miterlimit:4;stroke-dashoffset:0;stroke-opacity:1;visibility:visible;display:block"
             d="M 372.87905,411.27704 L 437.81346,411.27704"
             id="path2279"
             transform="matrix(0.240856,0.12287,-0.12287,0.240856,101.5762,778.871)" />
        </g>
      </g>
      <text
         sodipodi:linespacing="100%"
         id="text2281"
         y="364.09836"
         x="624.35651"
         style="font-size:22.95481682px;font-style:italic;font-variant:normal;font-weight:normal;font-stretch:normal;line-height:100%;writing-mode:lr-tb;text-anchor:start;fill:#dd8a3d;fill-opacity:1;stroke:none;stroke-width:1pt;stroke-linecap:butt;stroke-linejoin:miter;stroke-opacity:1;font-family:Emblem"
         xml:space="preserve"><tspan
           y="364.09836"
           x="624.35651"
           id="tspan2283"
           sodipodi:role="line">wiki</tspan></text>
    </g>
    <g
       id="g2338"
       inkscape:export-filename="/home/vjrj/proyectos/ourproject.org/kune/svn/trunk/img/logo-kune-wiki-16-white.png"
       inkscape:export-xdpi="90"
       inkscape:export-ydpi="90">
      <path
         style="font-size:58.13353348px;font-style:normal;font-variant:normal;font-weight:normal;font-stretch:normal;line-height:100%;writing-mode:lr-tb;text-anchor:start;fill:#ffffff;fill-opacity:1;stroke:none;stroke-width:1pt;stroke-linecap:butt;stroke-linejoin:miter;stroke-opacity:1;font-family:Emblem"
         d="M 612.45757,378.19846 C 612.21978,378.19846 611.99124,378.19933 611.7619,378.21427 C 611.74051,378.21866 611.72021,378.22608 611.69866,378.23008 C 611.48517,378.26999 611.27456,378.30399 611.05046,378.30913 C 611.01938,378.31352 610.98647,378.30448 610.9556,378.30913 C 609.12645,378.5845 607.58101,379.37872 606.33898,380.69649 C 604.88855,382.22835 604.1572,384.06346 604.1572,386.19846 C 604.1572,388.35739 604.88855,390.20495 606.33898,391.73204 C 607.90911,393.37873 609.94915,394.1984 612.45757,394.1984 C 613.78834,394.1984 615.06773,393.86775 616.28361,393.20239 C 617.49949,392.55615 618.55673,391.64146 619.46151,390.48303 L 616.72633,388.96525 C 615.54868,390.53538 614.10183,391.32094 612.37852,391.32094 C 611.18176,391.32094 610.10871,390.93274 609.18482,390.16684 C 608.24658,389.40088 607.77771,388.46795 607.77771,387.35262 L 620.28361,387.35262 L 620.28361,386.72018 C 620.28361,384.01554 619.36746,381.84978 617.54843,380.2222 C 616.01658,378.86745 614.3197,378.19846 612.45757,378.19846 z M 554.30756,378.30913 L 554.30756,384.36443 L 552.18896,384.36443 L 552.18896,387.46328 L 554.30756,387.46328 L 554.30756,393.78735 L 557.53283,393.78735 L 557.53283,387.46328 L 559.47747,387.46328 L 563.44585,393.78735 L 567.27194,393.78735 L 561.94388,385.75574 L 567.03479,378.60951 L 563.12965,378.60951 L 559.19289,384.36443 L 557.53283,384.36443 L 557.53283,378.30913 L 554.30756,378.30913 z M 593.88056,378.30913 C 593.32533,378.40821 592.808,378.5695 592.33116,378.81509 C 591.52693,379.24591 590.892,379.81413 590.41809,380.52259 L 590.41809,378.60951 L 587.17701,378.60951 L 587.17701,393.78735 L 590.41809,393.78735 L 590.41809,385.28145 C 590.41809,384.06557 590.76119,383.13264 591.44577,382.46723 C 592.13511,381.80187 593.00897,381.47122 594.08609,381.47116 C 595.22535,381.47122 596.11508,381.77691 596.74221,382.40399 C 597.36929,383.03112 597.67498,384.01392 597.67498,385.34468 L 597.67498,393.78735 L 600.91611,393.78735 L 600.91611,384.63325 C 600.91606,382.77107 600.34789,381.23256 599.20857,380.01663 C 598.35409,379.10476 597.36539,378.53713 596.23625,378.30913 L 593.88056,378.30913 z M 569.31143,378.60951 L 569.31143,387.40004 C 569.31143,389.45844 570.00538,391.12272 571.39841,392.39605 C 572.6909,393.59281 574.29179,394.1984 576.17308,394.1984 C 578.07354,394.1984 579.6663,393.59281 580.96361,392.39605 C 582.35659,391.12272 583.05054,389.45844 583.05054,387.40004 L 583.05054,378.60951 L 579.80946,378.60951 L 579.80946,387.11542 C 579.8094,388.23557 579.4663,389.1469 578.78178,389.85059 C 578.07327,390.57821 577.21186,390.94151 576.17308,390.94151 C 575.17258,390.94151 574.30451,390.57345 573.596,389.85059 C 572.89231,389.12297 572.55251,388.21646 572.55257,387.11542 L 572.55257,378.60951 L 569.31143,378.60951 z M 612.04647,381.10754 C 613.10441,381.10754 614.02819,381.40414 614.81326,381.99294 C 615.5744,382.59608 616.13493,383.47476 616.48919,384.63325 L 607.77771,384.63325 C 608.03142,383.51786 608.55785,382.65163 609.34291,382.02456 C 610.10405,381.41659 611.00293,381.10754 612.04647,381.10754 z "
         id="path2301"
         inkscape:export-filename="/home/vjrj/proyectos/ourproject.org/kune/svn/trunk/img/kune-logo-16px-white.png"
         inkscape:export-xdpi="90"
         inkscape:export-ydpi="90" />
      <g
         style="fill:#ffffff;stroke:#ffffff"
         id="g2303"
         transform="matrix(0.1111494,0,0,0.111008,528.01767,281.53962)"
         inkscape:export-filename="/home/vjrj/proyectos/ourproject.org/kune/svn/trunk/img/kune-logo-16px-white.png"
         inkscape:export-xdpi="90"
         inkscape:export-ydpi="90">
        <path
           style="color:#000000;fill:#ffffff;fill-opacity:1;fill-rule:nonzero;stroke:#ffffff;stroke-width:109.23953247;stroke-linecap:round;stroke-linejoin:miter;marker:none;marker-start:none;marker-mid:none;marker-end:none;stroke-miterlimit:4;stroke-dashoffset:0;stroke-opacity:1;visibility:visible;display:block"
           d="M 60.321717,411.99998 L 437.33633,411.99998"
           id="path2305"
           transform="matrix(0.240856,0.12287,-0.12287,0.240856,101.5762,778.871)" />
        <path
           style="color:#000000;fill:#ffffff;fill-opacity:1;fill-rule:nonzero;stroke:#ffffff;stroke-width:109.23950958;stroke-linecap:round;stroke-linejoin:miter;marker:none;marker-start:none;marker-mid:none;marker-end:none;stroke-miterlimit:4;stroke-dashoffset:0;stroke-opacity:1;visibility:visible;display:block"
           d="M 252.61203,788.60332 L 252.61203,411.59154"
           id="path2307"
           transform="matrix(0.240856,0.12287,-0.12287,0.240856,101.5762,778.871)" />
        <path
           style="color:#000000;fill:#ffffff;fill-opacity:1;fill-rule:nonzero;stroke:#ffffff;stroke-width:109.23951721;stroke-linecap:round;stroke-linejoin:miter;marker:none;marker-start:none;marker-mid:none;marker-end:none;stroke-miterlimit:4;stroke-dashoffset:0;stroke-opacity:1;visibility:visible;display:block"
           d="M 252.86937,597.15755 L 629.88177,597.15755"
           id="path2309"
           transform="matrix(0.240856,0.12287,-0.12287,0.240856,101.5762,778.871)" />
        <path
           style="color:#000000;fill:#ffffff;fill-opacity:1;fill-rule:nonzero;stroke:#ffffff;stroke-width:109.23950195;stroke-linecap:round;stroke-linejoin:miter;marker:none;marker-start:none;marker-mid:none;marker-end:none;stroke-miterlimit:4;stroke-dashoffset:0;stroke-opacity:1;visibility:visible;display:block"
           d="M 437.45588,596.97447 L 437.45588,219.95956"
           id="path2311"
           transform="matrix(0.240856,0.12287,-0.12287,0.240856,101.5762,778.871)" />
        <path
           style="color:#000000;fill:#ffffff;fill-opacity:1;fill-rule:nonzero;stroke:#ffffff;stroke-width:109.23947906;stroke-linecap:round;stroke-linejoin:miter;marker:none;marker-start:none;marker-mid:none;marker-end:none;stroke-miterlimit:4;stroke-dashoffset:0;stroke-opacity:1;visibility:visible;display:block"
           d="M 372.87905,411.27704 L 437.81346,411.27704"
           id="path2313"
           transform="matrix(0.240856,0.12287,-0.12287,0.240856,101.5762,778.871)" />
      </g>
      <text
         inkscape:export-ydpi="90"
         inkscape:export-xdpi="90"
         inkscape:export-filename="/home/vjrj/proyectos/ourproject.org/kune/svn/trunk/img/kune-logo-16px-white.png"
         xml:space="preserve"
         style="font-size:22.95481682px;font-style:italic;font-variant:normal;font-weight:normal;font-stretch:normal;line-height:100%;writing-mode:lr-tb;text-anchor:start;fill:#ffffff;fill-opacity:1;stroke:none;stroke-width:1pt;stroke-linecap:butt;stroke-linejoin:miter;stroke-opacity:1;font-family:Emblem"
         x="626.68304"
         y="393.87903"
         id="text2315"
         sodipodi:linespacing="100%"><tspan
           sodipodi:role="line"
           id="tspan2317"
           x="626.68304"
           y="393.87903">wiki</tspan></text>
    </g>
    <g
       inkscape:export-ydpi="90"
       inkscape:export-xdpi="90"
       inkscape:export-filename="/home/vjrj/proyectos/ourproject.org/kune/svn/trunk/img/kune-icon16.png"
       transform="matrix(0.1111494,0,0,0.111008,278.24359,22.515968)"
       id="g22118">
      <path
         transform="matrix(0.240856,0.12287,-0.12287,0.240856,101.5762,778.871)"
         id="path22120"
         d="M 60.321717,411.99998 L 437.33633,411.99998"
         style="color:#000000;fill:#69312f;fill-opacity:1;fill-rule:nonzero;stroke:#dd8a3d;stroke-width:109.23953247;stroke-linecap:round;stroke-linejoin:miter;marker:none;marker-start:none;marker-mid:none;marker-end:none;stroke-miterlimit:4;stroke-dashoffset:0;stroke-opacity:1;visibility:visible;display:block" />
      <path
         transform="matrix(0.240856,0.12287,-0.12287,0.240856,101.5762,778.871)"
         id="path22122"
         d="M 252.61203,788.60332 L 252.61203,411.59154"
         style="color:#000000;fill:#ffffff;fill-opacity:1;fill-rule:nonzero;stroke:#ffdb6b;stroke-width:109.23950958;stroke-linecap:round;stroke-linejoin:miter;marker:none;marker-start:none;marker-mid:none;marker-end:none;stroke-miterlimit:4;stroke-dashoffset:0;stroke-opacity:1;visibility:visible;display:block" />
      <path
         transform="matrix(0.240856,0.12287,-0.12287,0.240856,101.5762,778.871)"
         id="path22124"
         d="M 252.86937,597.15755 L 629.88177,597.15755"
         style="color:#000000;fill:#69312f;fill-opacity:1;fill-rule:nonzero;stroke:#69312f;stroke-width:109.23951721;stroke-linecap:round;stroke-linejoin:miter;marker:none;marker-start:none;marker-mid:none;marker-end:none;stroke-miterlimit:4;stroke-dashoffset:0;stroke-opacity:1;visibility:visible;display:block" />
      <path
         transform="matrix(0.240856,0.12287,-0.12287,0.240856,101.5762,778.871)"
         id="path22126"
         d="M 437.45588,596.97447 L 437.45588,219.95956"
         style="color:#000000;fill:#ffffff;fill-opacity:1;fill-rule:nonzero;stroke:#cc6633;stroke-width:109.23950195;stroke-linecap:round;stroke-linejoin:miter;marker:none;marker-start:none;marker-mid:none;marker-end:none;stroke-miterlimit:4;stroke-dashoffset:0;stroke-opacity:1;visibility:visible;display:block" />
      <path
         transform="matrix(0.240856,0.12287,-0.12287,0.240856,101.5762,778.871)"
         id="path22128"
         d="M 372.87905,411.27704 L 437.81346,411.27704"
         style="color:#000000;fill:#69312f;fill-opacity:1;fill-rule:nonzero;stroke:#dd8a3d;stroke-width:109.23947906;stroke-linecap:round;stroke-linejoin:miter;marker:none;marker-start:none;marker-mid:none;marker-end:none;stroke-miterlimit:4;stroke-dashoffset:0;stroke-opacity:1;visibility:visible;display:block" />
    </g>
  </g>
</svg>
